<svg width="43" height="18" viewBox="0 0 43 18" fill="none" xmlns="http://www.w3.org/2000/svg">
<path d="M11.7633 10.1734H1.76144C1.19626 10.1734 0.750977 9.72812 0.750977 9.16295V6.57686C0.750977 6.01169 1.19626 5.56641 1.76144 5.56641H11.7633C12.3284 5.56641 12.7737 6.01169 12.7737 6.57686V9.16295C12.7737 9.711 12.3113 10.1734 11.7633 10.1734Z" fill="#596982"/>
<path d="M1.96777 2.51708C1.96777 1.38674 2.8926 0.461914 4.02294 0.461914C5.15329 0.461914 6.07811 1.38674 6.07811 2.51708V4.57225H4.02294C2.8926 4.57225 1.96777 3.64743 1.96777 2.51708Z" fill="#596982"/>
<path d="M9.02247 5.03516H6.50488V2.51758C6.50488 1.13034 7.63523 0 9.02247 0C10.4097 0 11.5401 1.13034 11.5401 2.51758C11.5401 3.90482 10.4097 5.03516 9.02247 5.03516ZM7.41259 4.12746H9.02247C9.91304 4.12746 10.6323 3.40815 10.6323 2.51758C10.6323 1.62701 9.91304 0.9077 9.02247 0.9077C8.13189 0.9077 7.41259 1.62701 7.41259 2.51758V4.12746Z" fill="#596982"/>
<path d="M5.76915 17.3833V17.2634C5.478 17.5032 5.16972 17.6744 4.82719 17.7943C4.48467 17.9142 4.12501 17.9827 3.73111 17.9827C2.82341 17.9827 2.06984 17.6573 1.41904 17.0236C0.785364 16.39 0.459961 15.6193 0.459961 14.7116C0.459961 13.8039 0.785364 13.0503 1.41904 12.3995C2.05272 11.7658 2.82341 11.4404 3.73111 11.4404C4.62168 11.4404 5.39237 11.7658 6.04317 12.3995C6.67685 13.0332 7.00225 13.8039 7.00225 14.7116V17.3662C7.00225 17.5374 6.93374 17.6744 6.83099 17.7943C6.7111 17.9142 6.57409 17.9656 6.40283 17.9656C6.23156 17.9656 6.09455 17.9142 5.97467 17.7943C5.82053 17.6916 5.76915 17.5374 5.76915 17.3833ZM3.71398 12.6735C3.42283 12.6735 3.16593 12.7249 2.90904 12.8448C2.65214 12.9476 2.44662 13.1017 2.25823 13.2901C2.06984 13.4785 1.93283 13.684 1.83007 13.9409C1.72731 14.1978 1.67594 14.4547 1.67594 14.7287C1.67594 15.0027 1.72731 15.2767 1.83007 15.5165C1.93283 15.7734 2.08697 15.9789 2.25823 16.1673C2.44662 16.3557 2.65214 16.4927 2.90904 16.6126C3.16593 16.7154 3.42283 16.7667 3.71398 16.7667C3.988 16.7667 4.26202 16.7154 4.51892 16.6126C4.77581 16.5098 4.98133 16.3557 5.16972 16.1673C5.35811 15.9789 5.49512 15.7734 5.59788 15.5165C5.70064 15.2767 5.75202 15.0027 5.75202 14.7287C5.75202 14.4547 5.70064 14.1807 5.59788 13.9409C5.49512 13.7011 5.34099 13.4785 5.16972 13.2901C4.98133 13.1017 4.77581 12.9647 4.51892 12.8448C4.26202 12.742 4.00513 12.6735 3.71398 12.6735Z" fill="#596982"/>
<path d="M11.5578 11.4581C12.3285 11.4581 13.0135 11.6978 13.5958 12.1774V9.28302C13.5958 9.11175 13.6472 8.95762 13.7671 8.85486C13.887 8.73497 14.024 8.68359 14.1953 8.68359C14.3665 8.68359 14.5035 8.73497 14.6234 8.85486C14.7433 8.97474 14.7947 9.11175 14.7947 9.28302V14.7292C14.7947 15.6369 14.4693 16.4076 13.8356 17.0413C13.1848 17.675 12.4312 18.0004 11.5235 18.0004C10.633 18.0004 9.86229 17.675 9.22861 17.0413C8.59493 16.4076 8.26953 15.6369 8.26953 14.7292C8.26953 13.8215 8.59493 13.068 9.22861 12.4172C9.87941 11.7835 10.6501 11.4581 11.5578 11.4581ZM13.5958 14.7292C13.5958 14.4552 13.5445 14.1812 13.4417 13.9414C13.3389 13.7016 13.1848 13.479 13.0135 13.2906C12.8252 13.1022 12.6196 12.9652 12.3627 12.8453C12.1058 12.7426 11.8489 12.674 11.5578 12.674C11.2666 12.674 11.0098 12.7254 10.7529 12.8453C10.496 12.9481 10.2904 13.1022 10.1021 13.2906C9.91366 13.479 9.77665 13.6845 9.67389 13.9414C9.57114 14.1983 9.51976 14.4552 9.51976 14.7292C9.51976 15.0032 9.57114 15.2773 9.67389 15.517C9.77665 15.7739 9.93079 15.9794 10.1021 16.1678C10.2904 16.3562 10.496 16.4932 10.7529 16.6131C11.0098 16.7159 11.2666 16.7673 11.5578 16.7673C11.8489 16.7673 12.1058 16.7159 12.3627 16.6131C12.6196 16.5104 12.8252 16.3562 13.0135 16.1678C13.2019 15.9794 13.3389 15.7739 13.4417 15.517C13.5445 15.2601 13.5958 15.0032 13.5958 14.7292Z" fill="#596982"/>
<path d="M17.3468 14.8828C16.9872 14.7458 16.7303 14.5916 16.5761 14.4546C16.285 14.1635 16.1309 13.8038 16.1309 13.4099C16.1309 13.1187 16.2165 12.8447 16.3706 12.6049C16.5248 12.3652 16.7303 12.1597 16.9872 12.0055C17.2441 11.8343 17.5181 11.7144 17.8435 11.6116C18.1689 11.526 18.4772 11.4746 18.8026 11.4746C19.7788 11.4746 20.6009 11.8685 21.303 12.6392C21.3887 12.742 21.4229 12.8618 21.4229 12.9989C21.4229 13.1701 21.3715 13.3243 21.2517 13.427C21.1318 13.5469 20.9948 13.5983 20.8235 13.5983C20.7036 13.5983 20.6009 13.564 20.4981 13.4955C20.4125 13.427 20.3268 13.3585 20.2412 13.2729C19.8473 12.879 19.3678 12.6735 18.8026 12.6735C18.2374 12.6735 17.7921 12.8447 17.4667 13.1872C17.3982 13.2558 17.3811 13.3414 17.3811 13.4441C17.3811 13.5469 17.4325 13.6325 17.5352 13.6668L20.2583 14.5574C20.6351 14.7115 20.892 14.8485 21.029 14.9855C21.3202 15.2767 21.4743 15.6363 21.4743 16.0302C21.4743 16.3214 21.3887 16.5954 21.2345 16.8352C21.0804 17.0749 20.8749 17.2805 20.618 17.4346C20.3611 17.5887 20.0871 17.7257 19.7617 17.8285C19.4534 17.9141 19.128 17.9655 18.8197 17.9655C17.8435 17.9655 17.0043 17.5716 16.3193 16.8009C16.2336 16.681 16.1994 16.5612 16.1994 16.4241C16.1994 16.2529 16.2507 16.0987 16.3706 15.996C16.4905 15.8761 16.6275 15.8247 16.7988 15.8247C16.9187 15.8247 17.0386 15.859 17.1242 15.9446C17.2098 16.0131 17.2955 16.0987 17.364 16.1672C17.7579 16.5612 18.2374 16.7667 18.8197 16.7667C19.3678 16.7667 19.813 16.5954 20.1556 16.2357C20.2069 16.1672 20.2412 16.0987 20.2412 15.996C20.2412 15.8932 20.1898 15.8076 20.0871 15.7733L17.3468 14.8828Z" fill="#596982"/>
<path d="M24.3346 17.1619C24.3346 17.3846 24.2489 17.5901 24.0948 17.7442C23.9407 17.8983 23.7351 17.984 23.5125 17.984C23.2899 17.984 23.0843 17.8983 22.9302 17.7442C22.7761 17.5901 22.6904 17.3846 22.6904 17.1619C22.6904 16.9393 22.7761 16.7337 22.9302 16.5796C23.0843 16.4255 23.2899 16.3398 23.5125 16.3398C23.7351 16.3398 23.9407 16.4255 24.0948 16.5796C24.2489 16.7337 24.3346 16.9221 24.3346 17.1619Z" fill="#596982"/>
<path d="M26.5783 12.1945C27.1606 11.715 27.8285 11.4752 28.6163 11.4752C29.5069 11.4752 30.2776 11.8006 30.9284 12.4343C31.2538 12.7426 31.4936 13.1022 31.6477 13.479C31.8018 13.8729 31.8875 14.2839 31.8875 14.7292C31.8875 15.6369 31.5621 16.4076 30.9284 17.0413C30.2776 17.675 29.524 18.0004 28.6163 18.0004C27.7257 18.0004 26.9551 17.675 26.3214 17.0413C25.6877 16.4076 25.3623 15.6369 25.3623 14.7292V9.28302C25.3623 9.11175 25.4137 8.95762 25.5336 8.85486C25.6535 8.73497 25.7905 8.68359 25.9617 8.68359C26.133 8.68359 26.27 8.73497 26.3899 8.85486C26.5098 8.97474 26.5612 9.11175 26.5612 9.28302V12.1945H26.5783ZM28.6163 16.7673C28.9075 16.7673 29.1644 16.7159 29.4213 16.6131C29.6782 16.5104 29.8837 16.3562 30.0721 16.1678C30.2605 15.9794 30.3975 15.7739 30.5002 15.517C30.603 15.2773 30.6544 15.0032 30.6544 14.7292C30.6544 14.4552 30.603 14.1812 30.5002 13.9414C30.3975 13.7016 30.2433 13.479 30.0721 13.2906C29.8837 13.1022 29.6782 12.9652 29.4213 12.8453C29.1644 12.7426 28.9075 12.674 28.6163 12.674C28.3252 12.674 28.0683 12.7254 27.8114 12.8453C27.5545 12.9481 27.349 13.1022 27.1606 13.2906C26.9722 13.479 26.8352 13.6845 26.7324 13.9414C26.6297 14.1983 26.5783 14.4552 26.5783 14.7292C26.5783 15.0032 26.6297 15.2773 26.7324 15.517C26.8352 15.7739 26.9893 15.9794 27.1606 16.1678C27.349 16.3562 27.5545 16.4932 27.8114 16.6131C28.0512 16.7159 28.3252 16.7673 28.6163 16.7673Z" fill="#596982"/>
<path d="M34.7296 10.3101C34.7296 10.5156 34.6611 10.6698 34.5241 10.8239C34.3871 10.9609 34.2158 11.0294 34.0103 11.0294C33.8048 11.0294 33.6507 10.9609 33.4965 10.8239C33.3595 10.6869 33.291 10.5156 33.291 10.3101C33.291 10.1046 33.3595 9.95047 33.4965 9.79633C33.6335 9.65932 33.8048 9.59082 34.0103 9.59082C34.1987 9.59082 34.37 9.65932 34.5241 9.79633C34.6611 9.93335 34.7296 10.1046 34.7296 10.3101ZM33.4109 17.3662V12.0741C33.4109 11.9029 33.4794 11.7659 33.5822 11.646C33.702 11.5261 33.8391 11.4747 34.0103 11.4747C34.1816 11.4747 34.3186 11.5261 34.4385 11.646C34.5584 11.7659 34.6269 11.9029 34.6269 12.0741V17.3662C34.6269 17.5375 34.5584 17.6745 34.4385 17.7944C34.3186 17.9143 34.1816 17.9656 34.0103 17.9656C33.8391 17.9656 33.702 17.9143 33.5822 17.7944C33.4794 17.6916 33.4109 17.5375 33.4109 17.3662Z" fill="#596982"/>
<path d="M39.4215 11.4581C40.1922 11.4581 40.8773 11.6978 41.4596 12.1774V9.28302C41.4596 9.11175 41.511 8.95762 41.6308 8.85486C41.7507 8.73497 41.8877 8.68359 42.059 8.68359C42.2303 8.68359 42.3673 8.73497 42.4872 8.85486C42.607 8.97474 42.6584 9.11175 42.6584 9.28302V14.7292C42.6584 15.6369 42.333 16.4076 41.6993 17.0413C41.0485 17.675 40.295 18.0004 39.4044 18.0004C38.4967 18.0004 37.7431 17.675 37.1095 17.0413C36.4758 16.4076 36.1504 15.6369 36.1504 14.7292C36.1504 13.8215 36.4758 13.068 37.1095 12.4172C37.7603 11.7835 38.531 11.4581 39.4215 11.4581ZM41.4767 14.7292C41.4767 14.4552 41.4253 14.1812 41.3226 13.9414C41.2198 13.7016 41.0657 13.479 40.8944 13.2906C40.706 13.1022 40.5005 12.9652 40.2436 12.8453C39.9867 12.7426 39.7298 12.674 39.4387 12.674C39.1475 12.674 38.8906 12.7254 38.6337 12.8453C38.3768 12.9481 38.1713 13.1022 37.9829 13.2906C37.7945 13.479 37.6575 13.6845 37.5548 13.9414C37.452 14.1983 37.4006 14.4552 37.4006 14.7292C37.4006 15.0032 37.452 15.2773 37.5548 15.517C37.6575 15.7739 37.8117 15.9794 37.9829 16.1678C38.1713 16.3562 38.3768 16.4932 38.6337 16.6131C38.8906 16.7159 39.1475 16.7673 39.4387 16.7673C39.7298 16.7673 39.9867 16.7159 40.2436 16.6131C40.5005 16.5104 40.706 16.3562 40.8944 16.1678C41.0828 15.9794 41.2198 15.7739 41.3226 15.517C41.4253 15.2601 41.4767 15.0032 41.4767 14.7292Z" fill="#596982"/>
<path d="M2.48127 8.01444C2.37851 7.98019 2.29288 7.92881 2.2415 7.87743C2.15587 7.7918 2.10449 7.68903 2.10449 7.55202C2.10449 7.46639 2.12162 7.38076 2.173 7.31225C2.22438 7.24375 2.27576 7.17524 2.36139 7.12386C2.42989 7.07248 2.53265 7.03823 2.61828 7.00398C2.72104 6.96973 2.80667 6.96973 2.90943 6.96973C3.20058 6.96973 3.45748 7.08961 3.66299 7.32938C3.68012 7.36363 3.69725 7.39789 3.69725 7.43214C3.69725 7.48352 3.68012 7.5349 3.64587 7.56915C3.61162 7.6034 3.56024 7.62053 3.50886 7.62053C3.4746 7.62053 3.44035 7.6034 3.4061 7.58628C3.37184 7.56915 3.35472 7.5349 3.33759 7.51777C3.21771 7.39789 3.06357 7.34651 2.89231 7.34651C2.72104 7.34651 2.58403 7.39789 2.48127 7.50065C2.46415 7.51777 2.44702 7.55203 2.44702 7.58628C2.44702 7.62053 2.46414 7.63766 2.4984 7.65478L3.32047 7.92881C3.44035 7.98019 3.50886 8.01444 3.56024 8.06582C3.64587 8.15145 3.69725 8.25421 3.69725 8.39122C3.69725 8.47685 3.68012 8.56248 3.62874 8.63099C3.57736 8.6995 3.52598 8.768 3.44035 8.81938C3.37184 8.87076 3.28621 8.90501 3.18345 8.93926C3.0807 8.97352 2.99506 8.97352 2.89231 8.97352C2.60116 8.97352 2.34426 8.85363 2.13874 8.63099C2.12162 8.59674 2.10449 8.56248 2.10449 8.5111C2.10449 8.45972 2.12162 8.40835 2.15587 8.37409C2.19012 8.33984 2.2415 8.32271 2.29288 8.32271C2.32713 8.32271 2.36139 8.33984 2.39564 8.35697C2.42989 8.37409 2.44702 8.40834 2.46415 8.42547C2.58403 8.54536 2.73817 8.61386 2.90943 8.61386C3.0807 8.61386 3.21771 8.56248 3.32047 8.45973C3.33759 8.4426 3.35472 8.40835 3.35472 8.39122C3.35472 8.35697 3.33759 8.33984 3.30334 8.32271L2.48127 8.01444Z" fill="white"/>
<path d="M4.22836 6.9862H4.31399V6.31827C4.31399 6.2669 4.33111 6.23264 4.36537 6.18126C4.39962 6.14701 4.451 6.12988 4.50238 6.12988C4.55376 6.12988 4.58801 6.14701 4.63939 6.18126C4.67364 6.21551 4.69077 6.2669 4.69077 6.31827V6.9862H4.91341C4.96479 6.9862 4.99904 7.00333 5.05042 7.03758C5.08467 7.07183 5.1018 7.12322 5.1018 7.17459C5.1018 7.22597 5.08467 7.27735 5.05042 7.3116C5.01617 7.34586 4.96479 7.36299 4.91341 7.36299H4.69077V8.25356C4.69077 8.49333 4.81065 8.59608 5.05042 8.59608C5.1018 8.59608 5.13605 8.61321 5.17031 8.64747C5.20456 8.68172 5.22168 8.7331 5.22168 8.78448C5.22168 8.83585 5.20456 8.88723 5.17031 8.92148C5.13605 8.95574 5.08467 8.97287 5.05042 8.97287C4.57088 8.97287 4.33111 8.7331 4.33111 8.25356V7.36299H4.24548C4.1941 7.36299 4.15985 7.34586 4.1256 7.3116C4.09134 7.27735 4.07422 7.22597 4.07422 7.17459C4.07422 7.12322 4.09134 7.08896 4.1256 7.03758C4.14272 7.00333 4.17698 6.9862 4.22836 6.9862Z" fill="white"/>
<path d="M7.4476 7.96306C7.4476 8.23708 7.34484 8.47685 7.15645 8.66524C6.96806 8.85363 6.72829 8.95639 6.45427 8.95639C6.18024 8.95639 5.94047 8.85363 5.75208 8.66524C5.56369 8.47685 5.46094 8.23708 5.46094 7.96306C5.46094 7.68904 5.56369 7.46639 5.75208 7.26088C5.94047 7.07249 6.18024 6.96973 6.45427 6.96973C6.72829 6.96973 6.95093 7.07249 7.15645 7.26088C7.25921 7.36364 7.32771 7.46639 7.37909 7.58628C7.41334 7.70616 7.43047 7.82605 7.4476 7.96306ZM6.45427 7.34651C6.36863 7.34651 6.283 7.36363 6.2145 7.39789C6.14599 7.43214 6.07749 7.48352 6.02611 7.5349C5.97473 7.58628 5.92335 7.65478 5.8891 7.72329C5.85484 7.79179 5.83772 7.87743 5.83772 7.96306C5.83772 8.04869 5.85484 8.13432 5.8891 8.20283C5.92335 8.27134 5.9576 8.33984 6.02611 8.39122C6.07749 8.4426 6.14599 8.49398 6.2145 8.52823C6.283 8.56248 6.36863 8.57961 6.45427 8.57961C6.5399 8.57961 6.62553 8.56248 6.69404 8.52823C6.76254 8.49398 6.83105 8.4426 6.88243 8.39122C6.93381 8.33984 6.98518 8.27134 7.01944 8.20283C7.05369 8.13432 7.07082 8.04869 7.07082 7.96306C7.07082 7.87743 7.05369 7.79179 7.01944 7.72329C6.98518 7.65478 6.95093 7.58628 6.88243 7.5349C6.83105 7.48352 6.76254 7.43214 6.69404 7.39789C6.62553 7.36363 6.5399 7.34651 6.45427 7.34651Z" fill="white"/>
<path d="M8.23511 7.15767V7.19192C8.32074 7.12342 8.4235 7.07203 8.52626 7.03778C8.62902 7.00353 8.73177 6.9864 8.85166 6.9864C8.90304 6.9864 8.95442 6.9864 9.02292 7.00353C9.09143 7.00353 9.14281 7.02065 9.19419 7.03778C9.24557 7.05491 9.27982 7.08916 9.31407 7.10629C9.34833 7.14054 9.36545 7.17479 9.36545 7.22617C9.36545 7.26042 9.36545 7.27755 9.34832 7.29468C9.3312 7.3118 9.3312 7.32893 9.31407 7.34606C9.29695 7.36319 9.27982 7.38031 9.26269 7.38031C9.24556 7.39743 9.21131 7.39744 9.19419 7.39744C9.17706 7.39744 9.14281 7.39743 9.12568 7.38031C9.05718 7.34606 8.97154 7.32893 8.88591 7.32893C8.80028 7.32893 8.71464 7.34606 8.64614 7.38031C8.57763 7.41456 8.50913 7.44882 8.45775 7.51732C8.40637 7.5687 8.35499 7.63721 8.32074 7.70571C8.28649 7.77422 8.26936 7.85985 8.26936 7.94548V8.75042C8.26936 8.8018 8.25223 8.83606 8.21798 8.88744C8.18373 8.92169 8.13235 8.93881 8.08097 8.93881C8.02959 8.93881 7.97821 8.92169 7.94396 8.88744C7.90971 8.85318 7.89258 8.8018 7.89258 8.75042V7.14054C7.89258 7.08916 7.90971 7.05491 7.94396 7.00353C7.97821 6.96928 8.02959 6.95215 8.08097 6.95215C8.13235 6.95215 8.1666 6.96928 8.21798 7.00353C8.21798 7.07204 8.23511 7.10629 8.23511 7.15767Z" fill="white"/>
<path d="M11.096 8.39122C11.1474 8.39122 11.1988 8.40835 11.233 8.4426C11.2673 8.47685 11.2844 8.52823 11.2844 8.57961C11.2844 8.63099 11.2673 8.68237 11.233 8.71662C11.0446 8.87076 10.8391 8.95639 10.5822 8.95639C10.3082 8.95639 10.0684 8.85363 9.88002 8.66524C9.69163 8.47685 9.58887 8.23708 9.58887 7.96306C9.58887 7.68904 9.69163 7.46639 9.88002 7.26088C10.0684 7.07249 10.3082 6.96973 10.5822 6.96973C10.8562 6.96973 11.0789 7.07249 11.2844 7.26088C11.3871 7.36364 11.4556 7.46639 11.507 7.58628C11.5584 7.70616 11.5755 7.82605 11.5755 7.96306C11.5755 8.01444 11.5584 8.06582 11.5242 8.10007C11.4899 8.13432 11.4385 8.15145 11.3871 8.15145H9.99991C10.017 8.21995 10.0513 8.27133 10.0855 8.32271C10.1198 8.37409 10.1712 8.42547 10.2225 8.45973C10.2739 8.49398 10.3253 8.52823 10.3938 8.54536C10.4623 8.56248 10.5137 8.57961 10.5822 8.57961C10.6507 8.57961 10.7363 8.56248 10.7877 8.54536C10.8562 8.52823 10.9076 8.49398 10.959 8.4426C11.0104 8.40835 11.0617 8.39122 11.096 8.39122ZM11.1816 7.77467C11.1645 7.70616 11.1302 7.65478 11.096 7.60341C11.0617 7.55203 11.0104 7.50064 10.959 7.46639C10.9076 7.43214 10.8562 7.39789 10.7877 7.38076C10.7192 7.36363 10.6678 7.34651 10.5993 7.34651C10.5308 7.34651 10.4623 7.36363 10.4109 7.38076C10.3424 7.39789 10.2911 7.43214 10.2397 7.46639C10.1883 7.50064 10.1369 7.55203 10.1027 7.60341C10.0684 7.65478 10.0342 7.72329 10.017 7.77467H11.1816Z" fill="white"/>
</svg>
