<svg width="80" height="35" viewBox="0 0 80 35" fill="none" xmlns="http://www.w3.org/2000/svg">
<path d="M21.4284 20.0463H2.46735C1.39592 20.0463 0.551758 19.2021 0.551758 18.1307V13.2281C0.551758 12.1567 1.39592 11.3125 2.46735 11.3125H21.4284C22.4998 11.3125 23.344 12.1567 23.344 13.2281V18.1307C23.344 19.1696 22.4674 20.0463 21.4284 20.0463Z" fill="url(#paint0_linear)"/>
<path d="M2.85742 5.53283C2.85742 3.38997 4.61067 1.63672 6.75353 1.63672C8.89639 1.63672 10.6496 3.38997 10.6496 5.53283V9.42893H6.75353C4.61067 9.42893 2.85742 7.67568 2.85742 5.53283Z" fill="url(#paint1_linear)"/>
<path d="M16.2337 10.3062H11.4609V5.53347C11.4609 2.9036 13.6038 0.760742 16.2337 0.760742C18.8635 0.760742 21.0064 2.9036 21.0064 5.53347C21.0064 8.16334 18.8635 10.3062 16.2337 10.3062ZM13.1817 8.58542H16.2337C17.922 8.58542 19.2856 7.22178 19.2856 5.53347C19.2856 3.84516 17.922 2.48152 16.2337 2.48152C14.5454 2.48152 13.1817 3.84516 13.1817 5.53347V8.58542Z" fill="url(#paint2_linear)"/>
<path d="M10.0649 33.7155V33.4882C9.51299 33.9427 8.92858 34.2674 8.27923 34.4947C7.62988 34.722 6.94806 34.8518 6.20131 34.8518C4.48052 34.8518 3.05195 34.2349 1.81819 33.0336C0.616886 31.8323 0 30.3713 0 28.6505C0 26.9297 0.616886 25.5012 1.81819 24.2674C3.01948 23.0661 4.48052 22.4492 6.20131 22.4492C7.88962 22.4492 9.35066 23.0661 10.5844 24.2674C11.7857 25.4687 12.4026 26.9297 12.4026 28.6505V33.683C12.4026 34.0077 12.2727 34.2674 12.0779 34.4947C11.8507 34.722 11.5909 34.8194 11.2662 34.8194C10.9416 34.8194 10.6818 34.722 10.4546 34.4947C10.1623 34.2999 10.0649 34.0077 10.0649 33.7155ZM6.16884 24.7869C5.61689 24.7869 5.12987 24.8843 4.64286 25.1116C4.15585 25.3064 3.76624 25.5986 3.40909 25.9557C3.05195 26.3129 2.79221 26.7025 2.5974 27.1895C2.4026 27.6765 2.3052 28.1635 2.3052 28.683C2.3052 29.2025 2.4026 29.7219 2.5974 30.1765C2.79221 30.6635 3.08442 31.0531 3.40909 31.4103C3.76624 31.7674 4.15585 32.0272 4.64286 32.2544C5.12987 32.4492 5.61689 32.5466 6.16884 32.5466C6.68832 32.5466 7.2078 32.4492 7.69481 32.2544C8.18182 32.0596 8.57143 31.7674 8.92858 31.4103C9.28572 31.0531 9.54546 30.6635 9.74027 30.1765C9.93507 29.7219 10.0325 29.2025 10.0325 28.683C10.0325 28.1635 9.93507 27.644 9.74027 27.1895C9.54546 26.7349 9.25325 26.3129 8.92858 25.9557C8.57143 25.5986 8.18182 25.3388 7.69481 25.1116C7.2078 24.9168 6.72078 24.7869 6.16884 24.7869Z" fill="#232B45"/>
<path d="M21.0394 22.4814C22.5005 22.4814 23.7992 22.936 24.9031 23.8451V18.358C24.9031 18.0334 25.0005 17.7412 25.2278 17.5464C25.455 17.3191 25.7148 17.2217 26.0394 17.2217C26.3641 17.2217 26.6239 17.3191 26.8511 17.5464C27.0784 17.7736 27.1758 18.0334 27.1758 18.358V28.6827C27.1758 30.4035 26.5589 31.8646 25.3576 33.0659C24.1239 34.2672 22.6953 34.884 20.9745 34.884C19.2862 34.884 17.8251 34.2672 16.6238 33.0659C15.4225 31.8646 14.8057 30.4035 14.8057 28.6827C14.8057 26.962 15.4225 25.5334 16.6238 24.2996C17.8576 23.0983 19.3186 22.4814 21.0394 22.4814ZM24.9031 28.6827C24.9031 28.1633 24.8057 27.6438 24.6109 27.1892C24.4161 26.7347 24.1238 26.3126 23.7992 25.9555C23.442 25.5983 23.0524 25.3386 22.5654 25.1113C22.0784 24.9165 21.5914 24.7866 21.0394 24.7866C20.4875 24.7866 20.0005 24.884 19.5135 25.1113C19.0264 25.3061 18.6368 25.5983 18.2797 25.9555C17.9225 26.3126 17.6628 26.7022 17.468 27.1892C17.2732 27.6762 17.1758 28.1633 17.1758 28.6827C17.1758 29.2022 17.2732 29.7217 17.468 30.1762C17.6628 30.6632 17.955 31.0529 18.2797 31.41C18.6368 31.7671 19.0264 32.0269 19.5135 32.2542C20.0005 32.449 20.4875 32.5464 21.0394 32.5464C21.5914 32.5464 22.0784 32.449 22.5654 32.2542C23.0524 32.0594 23.442 31.7671 23.7992 31.41C24.1563 31.0529 24.4161 30.6632 24.6109 30.1762C24.8057 29.6892 24.9031 29.2022 24.9031 28.6827Z" fill="#232B45"/>
<path d="M32.0132 28.9747C31.3314 28.715 30.8444 28.4228 30.5522 28.163C30.0002 27.6111 29.708 26.9293 29.708 26.1825C29.708 25.6306 29.8703 25.1111 30.1626 24.6565C30.4548 24.202 30.8444 23.8124 31.3314 23.5202C31.8184 23.1955 32.3379 22.9682 32.9548 22.7734C33.5716 22.6111 34.1561 22.5137 34.7729 22.5137C36.6236 22.5137 38.182 23.2604 39.5132 24.7215C39.6756 24.9163 39.7405 25.1435 39.7405 25.4033C39.7405 25.728 39.6431 26.0202 39.4158 26.215C39.1885 26.4422 38.9288 26.5396 38.6041 26.5396C38.3768 26.5396 38.182 26.4747 37.9872 26.3448C37.8249 26.215 37.6626 26.0851 37.5002 25.9228C36.7535 25.176 35.8444 24.7864 34.7729 24.7864C33.7015 24.7864 32.8574 25.1111 32.2405 25.7604C32.1106 25.8903 32.0781 26.0526 32.0781 26.2474C32.0781 26.4422 32.1755 26.6046 32.3704 26.6695L37.5327 28.3578C38.247 28.65 38.734 28.9098 38.9937 29.1695C39.5457 29.7215 39.8379 30.4033 39.8379 31.15C39.8379 31.702 39.6755 32.2215 39.3833 32.676C39.0911 33.1306 38.7015 33.5202 38.2145 33.8124C37.7275 34.1046 37.208 34.3643 36.5911 34.5591C36.0067 34.7215 35.3898 34.8189 34.8054 34.8189C32.9548 34.8189 31.3639 34.0721 30.0652 32.6111C29.9028 32.3838 29.8379 32.1565 29.8379 31.8968C29.8379 31.5721 29.9353 31.2799 30.1626 31.0851C30.3898 30.8578 30.6496 30.7604 30.9742 30.7604C31.2015 30.7604 31.4288 30.8254 31.5911 30.9877C31.7535 31.1176 31.9158 31.2799 32.0457 31.4098C32.7924 32.1565 33.7015 32.5461 34.8054 32.5461C35.8444 32.5461 36.6885 32.2215 37.3379 31.5396C37.4353 31.4098 37.5002 31.2799 37.5002 31.0851C37.5002 30.8903 37.4028 30.728 37.208 30.663L32.0132 28.9747Z" fill="#232B45"/>
<path d="M45.2595 33.2938C45.2595 33.7159 45.0971 34.1055 44.8049 34.3977C44.5127 34.6899 44.1231 34.8522 43.701 34.8522C43.2789 34.8522 42.8893 34.6899 42.5971 34.3977C42.3049 34.1055 42.1426 33.7159 42.1426 33.2938C42.1426 32.8717 42.3049 32.4821 42.5971 32.1899C42.8893 31.8977 43.2789 31.7354 43.701 31.7354C44.1231 31.7354 44.5127 31.8977 44.8049 32.1899C45.0971 32.4821 45.2595 32.8392 45.2595 33.2938Z" fill="#232B45"/>
<path d="M49.5132 23.8775C50.6171 22.9684 51.8833 22.5139 53.3768 22.5139C55.0652 22.5139 56.5262 23.1308 57.76 24.3321C58.3768 24.9165 58.8314 25.5983 59.1236 26.3126C59.4158 27.0594 59.5781 27.8386 59.5781 28.6827C59.5781 30.4035 58.9613 31.8646 57.76 33.0659C56.5262 34.2672 55.0976 34.884 53.3768 34.884C51.6885 34.884 50.2275 34.2672 49.0262 33.0659C47.8249 31.8646 47.208 30.4035 47.208 28.6827V18.358C47.208 18.0334 47.3054 17.7412 47.5327 17.5464C47.76 17.3191 48.0197 17.2217 48.3444 17.2217C48.669 17.2217 48.9288 17.3191 49.1561 17.5464C49.3833 17.7736 49.4807 18.0334 49.4807 18.358V23.8775H49.5132ZM53.3768 32.5464C53.9288 32.5464 54.4158 32.449 54.9028 32.2542C55.3898 32.0594 55.7794 31.7671 56.1366 31.41C56.4937 31.0529 56.7535 30.6632 56.9483 30.1762C57.1431 29.7217 57.2405 29.2022 57.2405 28.6827C57.2405 28.1633 57.1431 27.6438 56.9483 27.1892C56.7535 26.7347 56.4613 26.3126 56.1366 25.9555C55.7794 25.5983 55.3898 25.3386 54.9028 25.1113C54.4158 24.9165 53.9288 24.7866 53.3768 24.7866C52.8249 24.7866 52.3379 24.884 51.8509 25.1113C51.3639 25.3061 50.9742 25.5983 50.6171 25.9555C50.26 26.3126 50.0002 26.7022 49.8054 27.1892C49.6106 27.6762 49.5132 28.1633 49.5132 28.6827C49.5132 29.2022 49.6106 29.7217 49.8054 30.1762C50.0002 30.6632 50.2924 31.0529 50.6171 31.41C50.9742 31.7671 51.3639 32.0269 51.8509 32.2542C52.3054 32.449 52.8249 32.5464 53.3768 32.5464Z" fill="#232B45"/>
<path d="M64.9675 20.306C64.9675 20.6956 64.8376 20.9878 64.5779 21.28C64.3182 21.5398 63.9935 21.6697 63.6039 21.6697C63.2143 21.6697 62.922 21.5398 62.6298 21.28C62.3701 21.0203 62.2402 20.6956 62.2402 20.306C62.2402 19.9164 62.3701 19.6242 62.6298 19.332C62.8896 19.0722 63.2143 18.9424 63.6039 18.9424C63.961 18.9424 64.2857 19.0722 64.5779 19.332C64.8376 19.5917 64.9675 19.9164 64.9675 20.306ZM62.4675 33.6827V23.6502C62.4675 23.3255 62.5974 23.0658 62.7922 22.8385C63.0194 22.6112 63.2792 22.5138 63.6039 22.5138C63.9285 22.5138 64.1883 22.6112 64.4156 22.8385C64.6428 23.0658 64.7727 23.3255 64.7727 23.6502V33.6827C64.7727 34.0073 64.6428 34.2671 64.4156 34.4943C64.1883 34.7216 63.9285 34.819 63.6039 34.819C63.2792 34.819 63.0194 34.7216 62.7922 34.4943C62.5974 34.2995 62.4675 34.0073 62.4675 33.6827Z" fill="#232B45"/>
<path d="M73.8634 22.4814C75.3245 22.4814 76.6232 22.936 77.7271 23.8451V18.358C77.7271 18.0334 77.8245 17.7412 78.0517 17.5464C78.279 17.3191 78.5387 17.2217 78.8634 17.2217C79.1881 17.2217 79.4478 17.3191 79.6751 17.5464C79.9024 17.7736 79.9998 18.0334 79.9998 18.358V28.6827C79.9998 30.4035 79.3829 31.8646 78.1816 33.0659C76.9478 34.2672 75.5193 34.884 73.8309 34.884C72.1102 34.884 70.6816 34.2672 69.4803 33.0659C68.279 31.8646 67.6621 30.4035 67.6621 28.6827C67.6621 26.962 68.279 25.5334 69.4803 24.2996C70.7141 23.0983 72.1751 22.4814 73.8634 22.4814ZM77.7595 28.6827C77.7595 28.1633 77.6621 27.6438 77.4673 27.1892C77.2725 26.7347 76.9803 26.3126 76.6556 25.9555C76.2985 25.5983 75.9089 25.3386 75.4219 25.1113C74.9348 24.9165 74.4478 24.7866 73.8959 24.7866C73.3439 24.7866 72.8569 24.884 72.3699 25.1113C71.8829 25.3061 71.4933 25.5983 71.1361 25.9555C70.779 26.3126 70.5193 26.7022 70.3245 27.1892C70.1296 27.6762 70.0322 28.1633 70.0322 28.6827C70.0322 29.2022 70.1296 29.7217 70.3245 30.1762C70.5193 30.6632 70.8115 31.0529 71.1361 31.41C71.4933 31.7671 71.8829 32.0269 72.3699 32.2542C72.8569 32.449 73.3439 32.5464 73.8959 32.5464C74.4478 32.5464 74.9348 32.449 75.4219 32.2542C75.9089 32.0594 76.2985 31.7671 76.6556 31.41C77.0128 31.0529 77.2725 30.6632 77.4673 30.1762C77.6621 29.6892 77.7595 29.2022 77.7595 28.6827Z" fill="#232B45"/>
<path d="M3.83147 15.9551C3.63667 15.8902 3.47433 15.7928 3.37692 15.6954C3.21459 15.5331 3.11719 15.3382 3.11719 15.0785C3.11719 14.9162 3.14965 14.7538 3.24706 14.624C3.34446 14.4941 3.44186 14.3642 3.6042 14.2668C3.73407 14.1694 3.92888 14.1045 4.09121 14.0395C4.28602 13.9746 4.44836 13.9746 4.64316 13.9746C5.19511 13.9746 5.68212 14.2019 6.07173 14.6564C6.1042 14.7214 6.13667 14.7863 6.13667 14.8512C6.13667 14.9486 6.1042 15.046 6.03927 15.111C5.97433 15.1759 5.87693 15.2084 5.77953 15.2084C5.71459 15.2084 5.64965 15.1759 5.58472 15.1434C5.51978 15.111 5.48732 15.046 5.45485 15.0136C5.22758 14.7863 4.93537 14.6889 4.61069 14.6889C4.28602 14.6889 4.02628 14.7863 3.83147 14.9811C3.79901 15.0136 3.76654 15.0785 3.76654 15.1434C3.76654 15.2084 3.799 15.2408 3.86394 15.2733L5.42238 15.7928C5.64965 15.8902 5.77953 15.9551 5.87693 16.0525C6.03927 16.2149 6.13667 16.4097 6.13667 16.6694C6.13667 16.8318 6.1042 16.9941 6.0068 17.124C5.90939 17.2538 5.81199 17.3837 5.64965 17.4811C5.51978 17.5785 5.35744 17.6434 5.16264 17.7084C4.96783 17.7733 4.8055 17.7733 4.61069 17.7733C4.05874 17.7733 3.57173 17.546 3.18212 17.124C3.14965 17.059 3.11719 16.9941 3.11719 16.8967C3.11719 16.7993 3.14965 16.7019 3.21459 16.637C3.27952 16.572 3.37692 16.5395 3.47433 16.5395C3.53926 16.5395 3.6042 16.572 3.66913 16.6045C3.73407 16.637 3.76654 16.7019 3.799 16.7344C4.02628 16.9616 4.31849 17.0915 4.64316 17.0915C4.96784 17.0915 5.22758 16.9941 5.42238 16.7993C5.45485 16.7668 5.48731 16.7019 5.48731 16.6694C5.48731 16.6045 5.45485 16.572 5.38992 16.5395L3.83147 15.9551Z" fill="white"/>
<path d="M7.14279 14.0072H7.30513V12.7409C7.30513 12.6435 7.3376 12.5786 7.40253 12.4812C7.46747 12.4163 7.56487 12.3838 7.66227 12.3838C7.75968 12.3838 7.82461 12.4163 7.92201 12.4812C7.98695 12.5461 8.01942 12.6435 8.01942 12.7409V14.0072H8.44149C8.5389 14.0072 8.60383 14.0396 8.70123 14.1046C8.76617 14.1695 8.79864 14.2669 8.79864 14.3643C8.79864 14.4617 8.76617 14.5591 8.70123 14.624C8.6363 14.689 8.5389 14.7215 8.44149 14.7215H8.01942V16.4098C8.01942 16.8643 8.24668 17.0591 8.70123 17.0591C8.79863 17.0591 8.86357 17.0916 8.92851 17.1565C8.99344 17.2215 9.02591 17.3189 9.02591 17.4163C9.02591 17.5137 8.99344 17.6111 8.92851 17.676C8.86357 17.7409 8.76617 17.7734 8.70123 17.7734C7.79214 17.7734 7.3376 17.3189 7.3376 16.4098V14.7215H7.17526C7.07786 14.7215 7.01292 14.689 6.94798 14.624C6.88305 14.5591 6.85059 14.4617 6.85059 14.3643C6.85059 14.2669 6.88305 14.202 6.94798 14.1046C6.98045 14.0396 7.04539 14.0072 7.14279 14.0072Z" fill="white"/>
<path d="M13.2467 15.8577C13.2467 16.3772 13.0519 16.8318 12.6948 17.1889C12.3376 17.546 11.8831 17.7408 11.3636 17.7408C10.8441 17.7408 10.3896 17.546 10.0324 17.1889C9.67527 16.8318 9.48047 16.3772 9.48047 15.8577C9.48047 15.3383 9.67527 14.9162 10.0324 14.5266C10.3896 14.1694 10.8441 13.9746 11.3636 13.9746C11.8831 13.9746 12.3051 14.1694 12.6948 14.5266C12.8896 14.7214 13.0194 14.9162 13.1168 15.1434C13.1818 15.3707 13.2142 15.598 13.2467 15.8577ZM11.3636 14.6889C11.2012 14.6889 11.0389 14.7214 10.909 14.7863C10.7792 14.8512 10.6493 14.9486 10.5519 15.046C10.4545 15.1434 10.3571 15.2733 10.2922 15.4032C10.2272 15.5331 10.1947 15.6954 10.1947 15.8577C10.1947 16.0201 10.2272 16.1824 10.2922 16.3123C10.3571 16.4421 10.422 16.572 10.5519 16.6694C10.6493 16.7668 10.7792 16.8642 10.909 16.9292C11.0389 16.9941 11.2012 17.0266 11.3636 17.0266C11.5259 17.0266 11.6883 16.9941 11.8181 16.9292C11.948 16.8642 12.0779 16.7668 12.1753 16.6694C12.2727 16.572 12.3701 16.4421 12.435 16.3123C12.4999 16.1824 12.5324 16.0201 12.5324 15.8577C12.5324 15.6954 12.4999 15.5331 12.435 15.4032C12.3701 15.2733 12.3051 15.1434 12.1753 15.046C12.0779 14.9486 11.948 14.8512 11.8181 14.7863C11.6883 14.7214 11.5259 14.6889 11.3636 14.6889Z" fill="white"/>
<path d="M14.7402 14.332V14.3969C14.9025 14.2671 15.0973 14.1697 15.2921 14.1047C15.4869 14.0398 15.6817 14.0073 15.909 14.0073C16.0064 14.0073 16.1038 14.0073 16.2337 14.0398C16.3636 14.0398 16.461 14.0723 16.5584 14.1047C16.6558 14.1372 16.7207 14.2021 16.7856 14.2346C16.8506 14.2995 16.883 14.3645 16.883 14.4619C16.883 14.5268 16.883 14.5593 16.8506 14.5917C16.8181 14.6242 16.8181 14.6567 16.7856 14.6891C16.7532 14.7216 16.7207 14.7541 16.6882 14.7541C16.6558 14.7865 16.5908 14.7865 16.5584 14.7865C16.5259 14.7865 16.461 14.7865 16.4285 14.7541C16.2986 14.6891 16.1363 14.6567 15.9739 14.6567C15.8116 14.6567 15.6493 14.6891 15.5194 14.7541C15.3895 14.819 15.2597 14.8839 15.1623 15.0138C15.0649 15.1112 14.9674 15.2411 14.9025 15.371C14.8376 15.5008 14.8051 15.6632 14.8051 15.8255V17.3515C14.8051 17.4489 14.7726 17.5138 14.7077 17.6112C14.6428 17.6762 14.5454 17.7086 14.448 17.7086C14.3506 17.7086 14.2532 17.6762 14.1882 17.6112C14.1233 17.5463 14.0908 17.4489 14.0908 17.3515V14.2995C14.0908 14.2021 14.1233 14.1372 14.1882 14.0398C14.2532 13.9749 14.3506 13.9424 14.448 13.9424C14.5454 13.9424 14.6103 13.9749 14.7077 14.0398C14.7077 14.1697 14.7402 14.2346 14.7402 14.332Z" fill="white"/>
<path d="M20.1628 16.6694C20.2602 16.6694 20.3576 16.7019 20.4226 16.7668C20.4875 16.8318 20.52 16.9292 20.52 17.0266C20.52 17.124 20.4875 17.2214 20.4226 17.2863C20.0654 17.5785 19.6758 17.7408 19.1888 17.7408C18.6693 17.7408 18.2148 17.546 17.8576 17.1889C17.5005 16.8318 17.3057 16.3772 17.3057 15.8577C17.3057 15.3383 17.5005 14.9162 17.8576 14.5266C18.2148 14.1694 18.6693 13.9746 19.1888 13.9746C19.7083 13.9746 20.1303 14.1694 20.52 14.5266C20.7148 14.7214 20.8446 14.9162 20.942 15.1434C21.0394 15.3707 21.0719 15.598 21.0719 15.8577C21.0719 15.9551 21.0394 16.0525 20.9745 16.1175C20.9096 16.1824 20.8122 16.2149 20.7148 16.2149H18.0849C18.1174 16.3447 18.1823 16.4421 18.2472 16.5395C18.3122 16.6369 18.4096 16.7344 18.507 16.7993C18.6044 16.8642 18.7018 16.9292 18.8316 16.9616C18.9615 16.9941 19.0589 17.0266 19.1888 17.0266C19.3187 17.0266 19.481 16.9941 19.5784 16.9616C19.7083 16.9292 19.8057 16.8642 19.9031 16.7668C20.0005 16.7019 20.0979 16.6694 20.1628 16.6694ZM20.3252 15.5006C20.2927 15.3707 20.2278 15.2733 20.1628 15.1759C20.0979 15.0785 20.0005 14.9811 19.9031 14.9162C19.8057 14.8512 19.7083 14.7863 19.5784 14.7538C19.4485 14.7214 19.3511 14.6889 19.2213 14.6889C19.0914 14.6889 18.9615 14.7214 18.8641 14.7538C18.7342 14.7863 18.6368 14.8512 18.5394 14.9162C18.442 14.9811 18.3446 15.0785 18.2797 15.1759C18.2148 15.2733 18.1498 15.4032 18.1174 15.5006H20.3252Z" fill="white"/>
<defs>
<linearGradient id="paint0_linear" x1="0.551758" y1="15.6794" x2="23.344" y2="15.6794" gradientUnits="userSpaceOnUse">
<stop stop-color="#4690FF"/>
<stop offset="1" stop-color="#9966E0"/>
</linearGradient>
<linearGradient id="paint1_linear" x1="2.85742" y1="5.53282" x2="10.6496" y2="5.53282" gradientUnits="userSpaceOnUse">
<stop stop-color="#4690FF"/>
<stop offset="1" stop-color="#9966E0"/>
</linearGradient>
<linearGradient id="paint2_linear" x1="11.4609" y1="5.53347" x2="21.0064" y2="5.53347" gradientUnits="userSpaceOnUse">
<stop stop-color="#4690FF"/>
<stop offset="1" stop-color="#9966E0"/>
</linearGradient>
</defs>
</svg>
