<svg width="61" height="190" viewBox="0 0 61 190" fill="none" xmlns="http://www.w3.org/2000/svg">
<rect x="12.5" y="20.5273" width="36" height="36.2162" fill="#8893A5"/>
<path d="M22.5586 43.6004L28.9981 35.6289L31.9707 40.6112L34.942 37.6214L38.4102 43.6004H22.5586Z" fill="white"/>
<path d="M37.4164 36.626C37.9635 36.626 38.4071 36.1798 38.4071 35.6294C38.4071 35.079 37.9635 34.6328 37.4164 34.6328C36.8693 34.6328 36.4258 35.079 36.4258 35.6294C36.4258 36.1798 36.8693 36.626 37.4164 36.626Z" fill="white"/>
<path d="M41.38 48.6682H19.5859V28.5703H41.38V48.6682ZM21.5674 44.5993H39.3995V30.6459H21.5674V44.5993Z" fill="white"/>
<rect x="12.5" y="60.3633" width="26.1" height="5.43243" fill="#A0A9B7"/>
<rect x="12.5" y="68.5117" width="36" height="5.43243" fill="#A0A9B7"/>
<rect x="12.5" y="77.5664" width="17.1" height="5.43243" fill="#A0A9B7"/>
<rect x="12.5" y="111.527" width="36" height="36.2162" fill="#8893A5"/>
<path d="M22.5586 134.6L28.9981 126.629L31.9707 131.611L34.942 128.621L38.4102 134.6H22.5586Z" fill="white"/>
<path d="M37.4164 127.626C37.9635 127.626 38.4071 127.18 38.4071 126.629C38.4071 126.079 37.9635 125.633 37.4164 125.633C36.8693 125.633 36.4258 126.079 36.4258 126.629C36.4258 127.18 36.8693 127.626 37.4164 127.626Z" fill="white"/>
<path d="M41.38 139.668H19.5859V119.57H41.38V139.668ZM21.5674 135.599H39.3995V121.646H21.5674V135.599Z" fill="white"/>
<rect x="12.5" y="151.363" width="26.1" height="5.43243" fill="#A0A9B7"/>
<rect x="12.5" y="159.512" width="36" height="5.43243" fill="#A0A9B7"/>
<rect x="12.5" y="168.566" width="17.1" height="5.43243" fill="#A0A9B7"/>
<rect x="0.5" y="0.5" width="60" height="189" rx="3.5" stroke="#A0A9B7"/>
</svg>
