<svg width="16" height="16" viewBox="0 0 16 16" fill="none" xmlns="http://www.w3.org/2000/svg">
<path d="M15.3327 7.99984C15.3327 12.0499 12.0494 15.3332 7.99935 15.3332C3.94926 15.3332 0.666016 12.0499 0.666016 7.99984C0.666016 3.94975 3.94926 0.666504 7.99935 0.666504C12.0494 0.666504 15.3327 3.94975 15.3327 7.99984Z" fill="#A0A9B7"/>
<path d="M7.38611 3.96631H8.62911L8.42011 9.23531H7.58411L7.38611 3.96631ZM8.01311 11.7323C7.80778 11.7323 7.63544 11.6663 7.49611 11.5343C7.35678 11.395 7.28711 11.2263 7.28711 11.0283C7.28711 10.8303 7.35678 10.6653 7.49611 10.5333C7.63544 10.394 7.80778 10.3243 8.01311 10.3243C8.21844 10.3243 8.38711 10.394 8.51911 10.5333C8.65111 10.6653 8.71711 10.8303 8.71711 11.0283C8.71711 11.2263 8.64744 11.395 8.50811 11.5343C8.37611 11.6663 8.21111 11.7323 8.01311 11.7323Z" fill="white"/>
</svg>
