<svg width="24" height="24" viewBox="0 0 24 24" fill="none" xmlns="http://www.w3.org/2000/svg">
<path d="M21.46 3.64H19.48V1.44C19.48 1.19712 19.2833 1 19.04 1C18.7967 1 18.6 1.19712 18.6 1.44V3.64H5.4V1.44C5.4 1.19712 5.20288 1 4.96 1C4.71712 1 4.52 1.19712 4.52 1.44V3.64H2.54C1.6908 3.64 1 4.3308 1 5.18V8.04H23V5.18C23 4.3308 22.3092 3.64 21.46 3.64ZM1 21.46C1 22.3092 1.6908 23 2.54 23H21.46C22.3092 23 23 22.3092 23 21.46V8.92H1V21.46ZM18.16 11.12H19.92V12.88H18.16V11.12ZM18.16 14.64H19.92V16.4H18.16V14.64ZM18.16 18.16H19.92V19.92H18.16V18.16ZM14.64 11.12H16.4V12.88H14.64V11.12ZM14.64 14.64H16.4V16.4H14.64V14.64ZM14.64 18.16H16.4V19.92H14.64V18.16ZM11.12 11.12H12.88V12.88H11.12V11.12ZM11.12 14.64H12.88V16.4H11.12V14.64ZM11.12 18.16H12.88V19.92H11.12V18.16ZM7.6 11.12H9.36V12.88H7.6V11.12ZM7.6 14.64H9.36V16.4H7.6V14.64ZM7.6 18.16H9.36V19.92H7.6V18.16ZM4.08 11.12H5.84V12.88H4.08V11.12ZM4.08 14.64H5.84V16.4H4.08V14.64ZM4.08 18.16H5.84V19.92H4.08V18.16Z" fill="#A0A9B7"/>
</svg>
