<svg width="16" height="16" viewBox="0 0 16 16" fill="none" xmlns="http://www.w3.org/2000/svg">
<path fill-rule="evenodd" clip-rule="evenodd" d="M13.1854 13.1853C12.708 13.6627 11.9345 13.6627 11.457 13.1853L8 9.72829L4.54303 13.1853C4.06554 13.6627 3.29204 13.6627 2.81455 13.1853C2.33706 12.7078 2.33706 11.9343 2.81455 11.4568L6.27152 7.9998L2.81455 4.54284C2.33706 4.06534 2.33706 3.29185 2.81455 2.81436C3.29204 2.33686 4.06554 2.33686 4.54303 2.81436L8 6.27132L11.457 2.81436C11.934 2.33729 12.708 2.33686 13.1854 2.81435C13.6629 3.29185 13.6625 4.06578 13.1854 4.54284L9.72848 7.9998L13.1854 11.4568C13.6629 11.9343 13.6629 12.7078 13.1854 13.1853Z" fill="#596982"/>
</svg>
