<svg width="24" height="24" viewBox="0 0 24 24" fill="none" xmlns="http://www.w3.org/2000/svg">
<g clip-path="url(#clip0)">
<path fill-rule="evenodd" clip-rule="evenodd" d="M19.7782 19.7784C19.0619 20.4946 17.9017 20.4946 17.1854 19.7784L12 14.5929L6.81455 19.7784C6.09831 20.4946 4.93807 20.4946 4.22182 19.7784C3.50558 19.0621 3.50559 17.9019 4.22183 17.1856L9.40728 12.0002L4.22183 6.81475C3.50559 6.09851 3.50559 4.93826 4.22183 4.22202C4.93807 3.50578 6.09831 3.50578 6.81455 4.22202L12 9.40747L17.1854 4.22202C17.901 3.50643 19.0619 3.50578 19.7782 4.22202C20.4944 4.93826 20.4938 6.09915 19.7782 6.81475L14.5927 12.0002L19.7782 17.1856C20.4944 17.9019 20.4944 19.0621 19.7782 19.7784Z" fill="#596982"/>
</g>
<defs>
<clipPath id="clip0">
<rect width="24" height="24" fill="white"/>
</clipPath>
</defs>
</svg>
