<svg width="252" height="120" viewBox="0 0 252 120" fill="none" xmlns="http://www.w3.org/2000/svg">
<rect x="10.9727" y="11" width="23.7838" height="24" fill="#8893A5"/>
<rect x="37.1367" y="11" width="31.5135" height="3.6" fill="#A0A9B7"/>
<rect x="37.1367" y="16.3984" width="36.8649" height="3.6" fill="#A0A9B7"/>
<rect x="37.1367" y="21.8008" width="23.1892" height="3.6" fill="#A0A9B7"/>
<rect x="37.7305" y="31.3984" width="11.2973" height="3.6" fill="#A0A9B7"/>
<path d="M17.6172 26.2943L21.8715 21.0117L23.8354 24.3134L25.7984 22.3321L28.0897 26.2943H17.6172Z" fill="white"/>
<path d="M27.4357 21.6724C27.7972 21.6724 28.0902 21.3767 28.0902 21.012C28.0902 20.6472 27.7972 20.3516 27.4357 20.3516C27.0743 20.3516 26.7812 20.6472 26.7812 21.012C26.7812 21.3767 27.0743 21.6724 27.4357 21.6724Z" fill="white"/>
<path d="M30.0548 29.6507H15.6562V16.332H30.0548V29.6507ZM16.9653 26.9542H28.7463V17.7075H16.9653V26.9542Z" fill="white"/>
<rect x="95.9727" y="11" width="23.7838" height="24" fill="#8893A5"/>
<rect x="122.137" y="11" width="31.5135" height="3.6" fill="#A0A9B7"/>
<rect x="122.137" y="16.3984" width="36.8649" height="3.6" fill="#A0A9B7"/>
<rect x="122.137" y="21.8008" width="23.1892" height="3.6" fill="#A0A9B7"/>
<rect x="122.73" y="31.3984" width="11.2973" height="3.6" fill="#A0A9B7"/>
<path d="M102.617 26.2943L106.872 21.0117L108.835 24.3134L110.798 22.3321L113.09 26.2943H102.617Z" fill="white"/>
<path d="M112.436 21.6724C112.797 21.6724 113.09 21.3767 113.09 21.012C113.09 20.6472 112.797 20.3516 112.436 20.3516C112.074 20.3516 111.781 20.6472 111.781 21.012C111.781 21.3767 112.074 21.6724 112.436 21.6724Z" fill="white"/>
<path d="M115.055 29.6507H100.656V16.332H115.055V29.6507ZM101.965 26.9542H113.746V17.7075H101.965V26.9542Z" fill="white"/>
<rect x="180.973" y="11" width="23.7838" height="24" fill="#8893A5"/>
<rect x="207.137" y="11" width="31.5135" height="3.6" fill="#A0A9B7"/>
<rect x="207.137" y="16.3984" width="36.8649" height="3.6" fill="#A0A9B7"/>
<rect x="207.137" y="21.8008" width="23.1892" height="3.6" fill="#A0A9B7"/>
<rect x="207.73" y="31.3984" width="11.2973" height="3.6" fill="#A0A9B7"/>
<path d="M187.617 26.2943L191.872 21.0117L193.835 24.3134L195.798 22.3321L198.09 26.2943H187.617Z" fill="white"/>
<path d="M197.436 21.6724C197.797 21.6724 198.09 21.3767 198.09 21.012C198.09 20.6472 197.797 20.3516 197.436 20.3516C197.074 20.3516 196.781 20.6472 196.781 21.012C196.781 21.3767 197.074 21.6724 197.436 21.6724Z" fill="white"/>
<path d="M200.055 29.6507H185.656V16.332H200.055V29.6507ZM186.965 26.9542H198.746V17.7075H186.965V26.9542Z" fill="white"/>
<rect x="10.9727" y="48" width="23.7838" height="24" fill="#8893A5"/>
<rect x="37.1367" y="48" width="31.5135" height="3.6" fill="#A0A9B7"/>
<rect x="37.1367" y="53.3984" width="36.8649" height="3.6" fill="#A0A9B7"/>
<rect x="37.1367" y="58.8008" width="23.1892" height="3.6" fill="#A0A9B7"/>
<rect x="37.7305" y="68.3984" width="11.2973" height="3.6" fill="#A0A9B7"/>
<path d="M17.6172 63.2943L21.8715 58.0117L23.8354 61.3134L25.7984 59.3321L28.0897 63.2943H17.6172Z" fill="white"/>
<path d="M27.4357 58.6724C27.7972 58.6724 28.0902 58.3767 28.0902 58.012C28.0902 57.6472 27.7972 57.3516 27.4357 57.3516C27.0743 57.3516 26.7812 57.6472 26.7812 58.012C26.7812 58.3767 27.0743 58.6724 27.4357 58.6724Z" fill="white"/>
<path d="M30.0548 66.6507H15.6562V53.332H30.0548V66.6507ZM16.9653 63.9542H28.7463V54.7075H16.9653V63.9542Z" fill="white"/>
<rect x="95.9727" y="48" width="23.7838" height="24" fill="#8893A5"/>
<rect x="122.137" y="48" width="31.5135" height="3.6" fill="#A0A9B7"/>
<rect x="122.137" y="53.3984" width="36.8649" height="3.6" fill="#A0A9B7"/>
<rect x="122.137" y="58.8008" width="23.1892" height="3.6" fill="#A0A9B7"/>
<rect x="122.73" y="68.3984" width="11.2973" height="3.6" fill="#A0A9B7"/>
<path d="M102.617 63.2943L106.872 58.0117L108.835 61.3134L110.798 59.3321L113.09 63.2943H102.617Z" fill="white"/>
<path d="M112.436 58.6724C112.797 58.6724 113.09 58.3767 113.09 58.012C113.09 57.6472 112.797 57.3516 112.436 57.3516C112.074 57.3516 111.781 57.6472 111.781 58.012C111.781 58.3767 112.074 58.6724 112.436 58.6724Z" fill="white"/>
<path d="M115.055 66.6507H100.656V53.332H115.055V66.6507ZM101.965 63.9542H113.746V54.7075H101.965V63.9542Z" fill="white"/>
<rect x="180.973" y="48" width="23.7838" height="24" fill="#8893A5"/>
<rect x="207.137" y="48" width="31.5135" height="3.6" fill="#A0A9B7"/>
<rect x="207.137" y="53.3984" width="36.8649" height="3.6" fill="#A0A9B7"/>
<rect x="207.137" y="58.8008" width="23.1892" height="3.6" fill="#A0A9B7"/>
<rect x="207.73" y="68.3984" width="11.2973" height="3.6" fill="#A0A9B7"/>
<path d="M187.617 63.2943L191.872 58.0117L193.835 61.3134L195.798 59.3321L198.09 63.2943H187.617Z" fill="white"/>
<path d="M197.436 58.6724C197.797 58.6724 198.09 58.3767 198.09 58.012C198.09 57.6472 197.797 57.3516 197.436 57.3516C197.074 57.3516 196.781 57.6472 196.781 58.012C196.781 58.3767 197.074 58.6724 197.436 58.6724Z" fill="white"/>
<path d="M200.055 66.6507H185.656V53.332H200.055V66.6507ZM186.965 63.9542H198.746V54.7075H186.965V63.9542Z" fill="white"/>
<rect x="10.9727" y="85" width="23.7838" height="24" fill="#8893A5"/>
<rect x="37.1367" y="85" width="31.5135" height="3.6" fill="#A0A9B7"/>
<rect x="37.1367" y="90.3984" width="36.8649" height="3.6" fill="#A0A9B7"/>
<rect x="37.1367" y="95.8008" width="23.1892" height="3.6" fill="#A0A9B7"/>
<rect x="37.7305" y="105.398" width="11.2973" height="3.6" fill="#A0A9B7"/>
<path d="M17.6172 100.294L21.8715 95.0117L23.8354 98.3134L25.7984 96.3321L28.0897 100.294H17.6172Z" fill="white"/>
<path d="M27.4357 95.6724C27.7972 95.6724 28.0902 95.3767 28.0902 95.012C28.0902 94.6472 27.7972 94.3516 27.4357 94.3516C27.0743 94.3516 26.7812 94.6472 26.7812 95.012C26.7812 95.3767 27.0743 95.6724 27.4357 95.6724Z" fill="white"/>
<path d="M30.0548 103.651H15.6562V90.332H30.0548V103.651ZM16.9653 100.954H28.7463V91.7075H16.9653V100.954Z" fill="white"/>
<rect x="95.9727" y="85" width="23.7838" height="24" fill="#8893A5"/>
<rect x="122.137" y="85" width="31.5135" height="3.6" fill="#A0A9B7"/>
<rect x="122.137" y="90.3984" width="36.8649" height="3.6" fill="#A0A9B7"/>
<rect x="122.137" y="95.8008" width="23.1892" height="3.6" fill="#A0A9B7"/>
<rect x="122.73" y="105.398" width="11.2973" height="3.6" fill="#A0A9B7"/>
<path d="M102.617 100.294L106.872 95.0117L108.835 98.3134L110.798 96.3321L113.09 100.294H102.617Z" fill="white"/>
<path d="M112.436 95.6724C112.797 95.6724 113.09 95.3767 113.09 95.012C113.09 94.6472 112.797 94.3516 112.436 94.3516C112.074 94.3516 111.781 94.6472 111.781 95.012C111.781 95.3767 112.074 95.6724 112.436 95.6724Z" fill="white"/>
<path d="M115.055 103.651H100.656V90.332H115.055V103.651ZM101.965 100.954H113.746V91.7075H101.965V100.954Z" fill="white"/>
<rect x="180.973" y="85" width="23.7838" height="24" fill="#8893A5"/>
<rect x="207.137" y="85" width="31.5135" height="3.6" fill="#A0A9B7"/>
<rect x="207.137" y="90.3984" width="36.8649" height="3.6" fill="#A0A9B7"/>
<rect x="207.137" y="95.8008" width="23.1892" height="3.6" fill="#A0A9B7"/>
<rect x="207.73" y="105.398" width="11.2973" height="3.6" fill="#A0A9B7"/>
<path d="M187.617 100.294L191.872 95.0117L193.835 98.3134L195.798 96.3321L198.09 100.294H187.617Z" fill="white"/>
<path d="M197.436 95.6724C197.797 95.6724 198.09 95.3767 198.09 95.012C198.09 94.6472 197.797 94.3516 197.436 94.3516C197.074 94.3516 196.781 94.6472 196.781 95.012C196.781 95.3767 197.074 95.6724 197.436 95.6724Z" fill="white"/>
<path d="M200.055 103.651H185.656V90.332H200.055V103.651ZM186.965 100.954H198.746V91.7075H186.965V100.954Z" fill="white"/>
<rect x="0.5" y="0.5" width="251" height="119" rx="3.5" stroke="#A0A9B7"/>
</svg>
