<svg width="24" height="24" viewBox="0 0 24 24" fill="none" xmlns="http://www.w3.org/2000/svg">
<path d="M15.5196 9.80005H1.43999C1.19711 9.80005 1 9.99716 1 10.24V22.5597C1 22.803 1.19711 22.9997 1.43999 22.9997H15.5196C15.7629 22.9997 15.9596 22.803 15.9596 22.5597V10.24C15.9596 9.99716 15.7629 9.80005 15.5196 9.80005Z" fill="#DBDFE4"/>
<path d="M22.5587 1.00024H8.47905C8.23618 1.00024 8.03906 1.19736 8.03906 1.44023V8.48005C8.03906 8.72293 8.23618 8.92004 8.47905 8.92004H16.8388V13.7599C16.8388 14.0032 17.0355 14.1999 17.2788 14.1999H22.5587C22.802 14.1999 22.9987 14.0032 22.9987 13.7599V1.44023C22.9987 1.19736 22.802 1.00024 22.5587 1.00024Z" fill="#DBDFE4"/>
</svg>
