<svg width="24" height="24" viewBox="0 0 24 24" fill="none" xmlns="http://www.w3.org/2000/svg">
<path d="M22.1851 19.4149H1.81481C1.36503 19.4149 1 19.7699 1 20.2074C1 20.6448 1.36503 20.9998 1.81481 20.9998H22.1851C22.6348 20.9998 22.9999 20.6448 22.9999 20.2074C22.9999 19.7699 22.6348 19.4149 22.1851 19.4149ZM13.2731 10.3515C13.2731 9.66878 12.7019 9.11328 11.9999 9.11328C11.298 9.11328 10.7268 9.66878 10.7268 10.3515V11.4411H13.2731V10.3515Z" fill="#596982"/>
<path d="M4.25915 16.4714H19.7405C20.1903 16.4714 20.5553 16.1164 20.5553 15.679V3.79243C20.5553 3.35501 20.1903 3 19.7405 3H4.25915C3.80937 3 3.44434 3.35501 3.44434 3.79243V15.679C3.44434 16.1164 3.80937 16.4714 4.25915 16.4714Z" fill="#596982"/>
</svg>
