<svg width="64" height="64" viewBox="0 0 64 64" fill="none" xmlns="http://www.w3.org/2000/svg">
<path d="M29.5464 15.8669H34.5184L33.6824 36.9429H30.3384L29.5464 15.8669ZM32.0544 46.931C31.2331 46.931 30.5437 46.6669 29.9864 46.1389C29.4291 45.5816 29.1504 44.9069 29.1504 44.115C29.1504 43.3229 29.4291 42.6629 29.9864 42.1349C30.5437 41.5776 31.2331 41.2989 32.0544 41.2989C32.8757 41.2989 33.5504 41.5776 34.0784 42.1349C34.6064 42.6629 34.8704 43.3229 34.8704 44.115C34.8704 44.9069 34.5917 45.5816 34.0344 46.1389C33.5064 46.6669 32.8464 46.931 32.0544 46.931Z" fill="#B36F6C"/>
<path d="M31.9988 2.66675C15.8239 2.66675 2.66602 15.8257 2.66602 32.0001C2.66602 48.1745 15.8239 61.3334 31.9988 61.3334C48.1736 61.3334 61.3327 48.1745 61.3327 32.0001C61.3327 15.8257 48.1736 2.66675 31.9988 2.66675ZM31.9988 57.4863C17.9457 57.4863 6.51308 46.0531 6.51308 32.0001C6.51308 17.9469 17.9456 6.51396 31.9988 6.51396C46.0519 6.51396 57.4852 17.9471 57.4852 32.0001C57.4853 46.0531 46.0518 57.4863 31.9988 57.4863Z" fill="#B36F6C"/>
</svg>
