<svg width="24" height="24" viewBox="0 0 24 24" fill="none" xmlns="http://www.w3.org/2000/svg">
<path fill-rule="evenodd" clip-rule="evenodd" d="M1 1V12V23L9.46118 18.5476V5.45238L1 1ZM19.5794 9.11086C19.3501 9.1217 19.1508 9.26046 19.0753 9.46178C18.9998 9.66309 19.0632 9.8868 19.2356 10.0275L20.9631 11.4762H12.8457C12.5212 11.4762 12.2816 11.7531 12.2816 12C12.2816 12.2469 12.5499 12.5238 12.8457 12.5238H20.9631L19.2356 13.9643C19.085 14.0898 19.0183 14.2805 19.0606 14.4642C19.1029 14.648 19.2478 14.7966 19.4405 14.854C19.6332 14.9113 19.8442 14.8685 19.9936 14.7418L22.814 12.3847C22.9324 12.2853 23 12.1441 23 11.9959C23 11.8477 22.9324 11.7065 22.814 11.6071L19.9936 9.25C19.8815 9.15341 19.732 9.10319 19.5794 9.11086Z" fill="#A0A9B7"/>
</svg>
