<svg width="24" height="24" viewBox="0 0 24 24" fill="none" xmlns="http://www.w3.org/2000/svg">
<path fill-rule="evenodd" clip-rule="evenodd" d="M22.9355 1.22836C22.8433 1.08756 22.6673 1 22.4761 1H1.52357C1.33238 1 1.15638 1.08756 1.06471 1.22836C0.972517 1.36916 0.979327 1.54076 1.08199 1.67672L8.33315 11.248V22.56C8.33315 22.7378 8.46096 22.8988 8.65634 22.9666C8.72129 22.9894 8.78939 23 8.85696 23C8.99315 23 9.12725 22.9551 9.2273 22.8711L15.5131 17.5911C15.6115 17.5088 15.6665 17.397 15.6665 17.28V11.248L22.9182 1.67628C23.0209 1.54076 23.0272 1.36916 22.9355 1.22836Z" fill="#A0A9B7"/>
</svg>
