<svg width="20" height="22" viewBox="0 0 20 22" fill="none" xmlns="http://www.w3.org/2000/svg">
<path d="M9.99957 8.81848C15.1378 8.81848 19.1632 7.09353 19.1632 4.8912C19.1632 2.68887 15.1378 0.963928 9.99957 0.963928C4.86096 0.963928 0.835938 2.68887 0.835938 4.8912C0.835938 7.09353 4.86096 8.81848 9.99957 8.81848Z" fill="#12284C"/>
<path d="M18.7268 7.9458C18.4855 7.9458 18.2905 8.14129 18.2905 8.38216C18.2905 9.82696 14.8855 11.4367 9.99957 11.4367C5.11361 11.4367 1.70866 9.82696 1.70866 8.38216C1.70866 8.14129 1.51317 7.9458 1.2723 7.9458C1.03143 7.9458 0.835938 8.14129 0.835938 8.38216V11.0003C0.835938 13.2027 4.86096 14.9276 9.99957 14.9276C15.1378 14.9276 19.1632 13.2027 19.1632 11.0003V8.38216C19.1632 8.14129 18.9682 7.9458 18.7268 7.9458Z" fill="#12284C"/>
<path d="M18.7268 14.0549C18.4855 14.0549 18.2905 14.2499 18.2905 14.4912C18.2905 15.936 14.8855 17.5458 9.99957 17.5458C5.11361 17.5458 1.70866 15.936 1.70866 14.4912C1.70866 14.2499 1.51317 14.0549 1.2723 14.0549C1.03143 14.0549 0.835938 14.2499 0.835938 14.4912V17.1094C0.835938 19.3117 4.86096 21.0367 9.99957 21.0367C15.1378 21.0367 19.1632 19.3117 19.1632 17.1094V14.4912C19.1632 14.2499 18.9682 14.0549 18.7268 14.0549Z" fill="#12284C"/>
</svg>
