<svg width="321" height="63" viewBox="0 0 321 63" fill="none" xmlns="http://www.w3.org/2000/svg">
<path fill-rule="evenodd" clip-rule="evenodd" d="M36.0564 30.6808C36.556 30.1746 36.5573 29.3568 36.0564 28.8505L30.6212 23.3757C30.1217 22.8748 29.3106 22.8748 28.8097 23.3757L23.3752 28.8505C22.8749 29.3568 22.8749 30.1746 23.3752 30.6808C23.876 31.1817 24.6865 31.1817 25.1873 30.6808L29.7148 26.1158L34.2436 30.6808C34.7451 31.1817 35.5555 31.1817 36.0564 30.6808ZM28.8104 31.4308C29.3113 30.9299 30.1223 30.9299 30.6219 31.4308L36.0571 36.9057C36.558 37.4119 36.5566 38.2304 36.0571 38.7366C35.5562 39.2375 34.7458 39.2375 34.2449 38.7366L29.7161 34.1709L25.1887 38.7366C24.6878 39.2375 23.8774 39.2375 23.3765 38.7366C22.8763 38.2304 22.8763 37.4119 23.3765 36.9057L28.8104 31.4308Z" fill="#A0A9B7"/>
<rect x="55.7295" y="12.7002" width="37.8378" height="37.6" fill="#8893A5"/>
<rect x="97.3516" y="12.7002" width="50.1351" height="5.64" fill="#A0A9B7"/>
<rect x="97.3516" y="21.1602" width="58.6486" height="5.64" fill="#A0A9B7"/>
<rect x="97.3516" y="29.6211" width="36.8919" height="5.64" fill="#A0A9B7"/>
<rect x="98.2969" y="44.6602" width="17.973" height="5.64" fill="#A0A9B7"/>
<path d="M66.2998 36.6549L73.068 28.3789L76.1924 33.5516L79.3153 30.4476L82.9606 36.6549H66.2998Z" fill="white"/>
<path d="M81.9231 29.417C82.4981 29.417 82.9643 28.9538 82.9643 28.3823C82.9643 27.8109 82.4981 27.3477 81.9231 27.3477C81.348 27.3477 80.8818 27.8109 80.8818 28.3823C80.8818 28.9538 81.348 29.417 81.9231 29.417Z" fill="white"/>
<path d="M86.0854 41.9166H63.1787V21.0508H86.0854V41.9166ZM65.2613 37.6922H84.0038V23.2057H65.2613V37.6922Z" fill="white"/>
<rect x="170.684" y="12.6992" width="37.4775" height="37.6" fill="#8893A5"/>
<rect x="211.91" y="12.7002" width="49.6577" height="5.64" fill="#A0A9B7"/>
<rect x="211.91" y="21.1602" width="58.0901" height="5.64" fill="#A0A9B7"/>
<rect x="211.91" y="29.6211" width="36.5405" height="5.64" fill="#A0A9B7"/>
<rect x="212.847" y="44.6602" width="17.8018" height="5.64" fill="#A0A9B7"/>
<path d="M181.156 36.6549L187.86 28.3789L190.955 33.5516L194.048 30.4476L197.658 36.6549H181.156Z" fill="white"/>
<path d="M196.625 29.417C197.195 29.417 197.656 28.9538 197.656 28.3823C197.656 27.8109 197.195 27.3477 196.625 27.3477C196.055 27.3477 195.594 27.8109 195.594 28.3823C195.594 28.9538 196.055 29.417 196.625 29.417Z" fill="white"/>
<path d="M200.751 41.9166H178.062V21.0508H200.751V41.9166ZM180.125 37.6922H198.689V23.2057H180.125V37.6922Z" fill="white"/>
<path fill-rule="evenodd" clip-rule="evenodd" d="M297.056 30.6808C297.556 30.1746 297.557 29.3568 297.056 28.8505L291.621 23.3757C291.122 22.8748 290.311 22.8748 289.81 23.3757L284.375 28.8505C283.875 29.3568 283.875 30.1746 284.375 30.6808C284.876 31.1817 285.686 31.1817 286.187 30.6808L290.715 26.1158L295.244 30.6808C295.745 31.1817 296.556 31.1817 297.056 30.6808ZM289.81 31.4308C290.311 30.9299 291.122 30.9299 291.622 31.4308L297.057 36.9057C297.558 37.4119 297.557 38.2304 297.057 38.7366C296.556 39.2375 295.746 39.2375 295.245 38.7366L290.716 34.1709L286.189 38.7366C285.688 39.2375 284.877 39.2375 284.377 38.7366C283.876 38.2304 283.876 37.4119 284.377 36.9057L289.81 31.4308Z" fill="#A0A9B7"/>
<rect x="0.5" y="0.5" width="320" height="62" rx="3.5" stroke="transparrent"/>
</svg>
