<svg width="985" height="191" viewBox="0 0 985 191" fill="none" xmlns="http://www.w3.org/2000/svg">
<path opacity="0.6" d="M1 161C12.1667 167.666 40 181 62 181C84 181 115.167 160.666 128 150.5C136.167 143.666 160.8 130 194 130C227.2 130 251.833 143.666 260 150.5C273.333 163.5 305.2 189.5 326 189.5C346.8 189.5 357.5 185 392 150.5C414 128.166 452.165 79.0881 458 69.9997C471.5 50.4997 503.7 11.4997 524.5 11.4997C550.5 11.4997 575.673 55.6732 590 69.9997C609 88.9997 614.133 92.9995 655.5 92.9995C696.5 92.9995 696 75.9997 722 49.9997C748 23.9997 776.833 12.4997 788 9.99972C828 -2.50028 907.9 -9.80049 917.5 56.9995C927.1 123.8 966.667 146.5 984 150" stroke="#4690FF" stroke-width="2" stroke-linecap="round"/>
</svg>
