<svg width="997" height="280" viewBox="0 0 997 280" fill="none" xmlns="http://www.w3.org/2000/svg">
<g opacity="0.15">
<rect opacity="0.5" x="0.5" y="0.5" width="996" height="279" stroke="#12284C"/>
<path opacity="0.5" d="M196.363 0V280" stroke="#12284C"/>
<path opacity="0.5" d="M129.56 0V280" stroke="#12284C"/>
<path opacity="0.5" d="M62.7549 0V280" stroke="#12284C"/>
<path opacity="0.5" d="M1.01172 41L995.987 41" stroke="#12284C"/>
<path opacity="0.5" d="M1.01172 81L995.987 81" stroke="#12284C"/>
<path opacity="0.5" d="M1.01172 121L995.987 121" stroke="#12284C"/>
<path opacity="0.5" d="M1.01172 161L995.987 161" stroke="#12284C"/>
<path opacity="0.5" d="M1.01172 201L995.987 201" stroke="#12284C"/>
<path opacity="0.5" d="M1.01172 240L995.987 240" stroke="#12284C"/>
<path opacity="0.5" d="M263.168 0V280" stroke="#12284C"/>
<path opacity="0.5" d="M329.972 0V280" stroke="#12284C"/>
<path opacity="0.5" d="M396.775 0V280" stroke="#12284C"/>
<path opacity="0.5" d="M463.58 0V280" stroke="#12284C"/>
<path opacity="0.5" d="M530.384 0V280" stroke="#12284C"/>
<path opacity="0.5" d="M597.188 0V280" stroke="#12284C"/>
<path opacity="0.5" d="M663.992 0V280" stroke="#12284C"/>
<path opacity="0.5" d="M730.796 0V280" stroke="#12284C"/>
<path opacity="0.5" d="M797.6 0V280" stroke="#12284C"/>
<path opacity="0.5" d="M864.404 0V280" stroke="#12284C"/>
<path opacity="0.5" d="M931.208 0V280" stroke="#12284C"/>
</g>
</svg>
