<svg width="20" height="20" viewBox="0 0 20 20" fill="none" xmlns="http://www.w3.org/2000/svg">
<path fill-rule="evenodd" clip-rule="evenodd" d="M10 0C6.4633 0 3.57513 2.68497 3.34821 6.08285C2.45073 6.21504 1.65681 6.72334 1.07887 7.44913C0.40359 8.29715 0 9.44397 0 10.6977C0 11.9514 0.40359 13.0982 1.07887 13.9462C1.75415 14.7942 2.72361 15.3488 3.80952 15.3488C4.05885 15.3488 4.28569 15.1272 4.28571 14.8837C4.28571 14.8837 4.28619 6.52373 4.28571 6.51163C4.28641 6.4971 4.28641 6.48255 4.28571 6.46802C4.30996 3.38874 6.8413 0.930233 10 0.930233C13.1612 0.930233 15.6941 3.39253 15.7143 6.47529C15.7144 6.48768 15.7143 6.49922 15.7143 6.51163C15.7133 6.52857 15.7143 14.6512 15.7143 14.6512C15.7143 15.7509 15.4737 16.6213 14.9702 17.202C14.4667 17.7828 13.6793 18.1395 12.381 18.1395H12.2991C12.1037 17.5969 11.5765 17.2093 10.9524 17.2093H9.04762C8.25619 17.2093 7.61905 17.8316 7.61905 18.6047C7.61905 19.3777 8.25619 20 9.04762 20H10.9524C11.5765 20 12.1037 19.6124 12.2991 19.0698H12.381C13.8684 19.0698 14.9872 18.6109 15.692 17.798C16.2683 17.1333 16.5519 16.277 16.6369 15.3125C17.5405 15.1823 18.34 14.6687 18.9211 13.939C19.5964 13.0909 20 11.9514 20 10.6977C20 9.44397 19.5964 8.29715 18.9211 7.44913C18.3432 6.72334 17.5493 6.21504 16.6518 6.08285C16.4249 2.68497 13.5367 0 10 0Z" fill="#12284C"/>
</svg>
