<svg width="252" height="62" viewBox="0 0 252 62" fill="none" xmlns="http://www.w3.org/2000/svg">
<rect x="12.5508" y="12.6016" width="36.3964" height="36.8" fill="#8893A5"/>
<rect x="52.5859" y="12.6016" width="48.2252" height="5.52" fill="#A0A9B7"/>
<rect x="52.5859" y="20.8789" width="56.4144" height="5.52" fill="#A0A9B7"/>
<rect x="52.5859" y="29.1602" width="35.4865" height="5.52" fill="#A0A9B7"/>
<rect x="53.4961" y="43.8789" width="17.2883" height="5.52" fill="#A0A9B7"/>
<path d="M22.7188 36.0453L29.2292 27.9453L32.2345 33.0079L35.2385 29.97L38.7449 36.0453H22.7188Z" fill="white"/>
<path d="M37.7437 28.9599C38.2969 28.9599 38.7453 28.5065 38.7453 27.9472C38.7453 27.388 38.2969 26.9346 37.7437 26.9346C37.1906 26.9346 36.7422 27.388 36.7422 27.9472C36.7422 28.5065 37.1906 28.9599 37.7437 28.9599Z" fill="white"/>
<path d="M41.7489 41.1953H19.7148V20.7734H41.7489V41.1953ZM21.7181 37.0608H39.7466V22.8825H21.7181V37.0608Z" fill="white"/>
<rect x="147.551" y="12.6016" width="36.3964" height="36.8" fill="#8893A5"/>
<rect x="187.586" y="12.6016" width="48.2252" height="5.52" fill="#A0A9B7"/>
<rect x="187.586" y="20.8789" width="56.4144" height="5.52" fill="#A0A9B7"/>
<rect x="187.586" y="29.1602" width="35.4865" height="5.52" fill="#A0A9B7"/>
<rect x="188.496" y="43.8789" width="17.2883" height="5.52" fill="#A0A9B7"/>
<path d="M157.719 36.0453L164.229 27.9453L167.234 33.0079L170.238 29.97L173.745 36.0453H157.719Z" fill="white"/>
<path d="M172.744 28.9599C173.297 28.9599 173.745 28.5065 173.745 27.9472C173.745 27.388 173.297 26.9346 172.744 26.9346C172.191 26.9346 171.742 27.388 171.742 27.9472C171.742 28.5065 172.191 28.9599 172.744 28.9599Z" fill="white"/>
<path d="M176.749 41.1953H154.715V20.7734H176.749V41.1953ZM156.718 37.0608H174.747V22.8825H156.718V37.0608Z" fill="white"/>
<rect x="0.5" y="0.5" width="251" height="61" rx="3.5" stroke="#A0A9B7"/>
</svg>
