<svg width="24" height="24" viewBox="0 0 24 24" fill="none" xmlns="http://www.w3.org/2000/svg">
<path d="M14.2001 15.9131H9.7998V21.9999H14.2001V15.9131Z" fill="#4690FF"/>
<path d="M22.8419 10.7966L17.7198 6.57928V3.30455C17.7198 3.06455 17.5231 2.86977 17.2798 2.86977C17.0365 2.86977 16.8398 3.06455 16.8398 3.30455V5.85451L12.2814 2.10109C12.1182 1.9663 11.8815 1.9663 11.7182 2.10109L1.15818 10.7966C0.971618 10.9505 0.946538 11.2244 1.10186 11.4088C1.25718 11.5931 1.53438 11.6179 1.72138 11.4644L3.63979 9.88489V21.5652C3.63979 21.8056 3.83691 21.9999 4.07979 21.9999H8.9198V15.4783C8.9198 15.2379 9.11692 15.0435 9.3598 15.0435H14.6398C14.8831 15.0435 15.0798 15.2379 15.0798 15.4783V21.9999H19.9198C20.1632 21.9999 20.3598 21.8056 20.3598 21.5652V9.88489L22.2778 11.4644C22.3605 11.5323 22.46 11.5653 22.5594 11.5653C22.6857 11.5653 22.8106 11.5118 22.8982 11.4088C23.0535 11.2244 23.028 10.9501 22.8419 10.7966Z" fill="#4690FF"/>
</svg>
