<svg width="16" height="17" viewBox="0 0 16 17" fill="none" xmlns="http://www.w3.org/2000/svg">
<path fill-rule="evenodd" clip-rule="evenodd" d="M8.00033 15.8337C12.0581 15.8337 15.3337 12.5581 15.3337 8.50033C15.3337 4.44255 12.0581 1.16699 8.00033 1.16699C3.94255 1.16699 0.666992 4.44255 0.666992 8.50033C0.666992 12.5581 3.94255 15.8337 8.00033 15.8337ZM7.51144 3.70921C7.90255 3.70921 8.19588 4.00255 8.19588 4.39366C8.19588 4.78477 7.90255 5.0781 7.51144 5.0781C7.12033 5.0781 6.82699 4.78477 6.82699 4.39366C6.82699 4.05144 7.12033 3.70921 7.51144 3.70921ZM6.82699 6.44699C6.63144 6.44699 6.43588 6.25144 6.43588 6.05588C6.43588 5.86033 6.63144 5.66477 6.82699 5.66477H8.00033C8.19588 5.66477 8.39144 5.86033 8.39144 6.05588V11.8737H9.17366C9.36921 11.8737 9.56477 12.0692 9.56477 12.2648C9.56477 12.4603 9.36921 12.6559 9.17366 12.6559H6.82699C6.63144 12.6559 6.43588 12.4603 6.43588 12.2648C6.43588 12.0692 6.63144 11.8737 6.82699 11.8737H7.60921V6.44699H6.82699Z" fill="#596982"/>
</svg>
