<svg width="76" height="68" viewBox="0 0 76 68" fill="none" xmlns="http://www.w3.org/2000/svg">
<path fill-rule="evenodd" clip-rule="evenodd" d="M3.94957 25.0415C5.09246 20.6913 7.09234 16.492 9.97727 12.6972C12.8622 8.90234 16.3736 5.85212 20.2596 3.5873C21.7865 2.6974 23.7457 3.2138 24.6356 4.74072C25.5255 6.26763 25.0091 8.22685 23.4822 9.11674C20.3103 10.9654 17.439 13.457 15.0722 16.5704C12.7053 19.6838 11.0724 23.1169 10.1395 26.6677C9.69045 28.377 7.94074 29.3987 6.23144 28.9496C4.52213 28.5005 3.50051 26.7508 3.94957 25.0415ZM69.7668 39.0506C71.4762 39.4997 72.4978 41.2494 72.0487 42.9587C70.9058 47.3089 68.9059 51.5082 66.021 55.303C63.1361 59.0979 59.6247 62.1481 55.7387 64.4129C54.2118 65.3028 52.2526 64.7864 51.3627 63.2595C50.4728 61.7326 50.9892 59.7733 52.5161 58.8834C55.688 57.0348 58.5592 54.5432 60.9261 51.4298C63.293 48.3164 64.9259 44.8833 65.8588 41.3325C66.3078 39.6231 68.0575 38.6015 69.7668 39.0506Z" fill="#4690FF"/>
</svg>
