<svg width="65" height="21" viewBox="0 0 65 21" fill="none" xmlns="http://www.w3.org/2000/svg">
<path d="M19.5667 20.2017V20.0506C19.1782 20.3528 18.7682 20.5902 18.315 20.752C17.8618 20.9139 17.387 21.0002 16.869 21.0002C15.682 21.0002 14.6677 20.5794 13.826 19.7377C12.9843 18.896 12.5635 17.8817 12.5635 16.6947C12.5635 15.5077 12.9843 14.4934 13.826 13.6517C14.6677 12.81 15.682 12.3892 16.869 12.3892C18.0452 12.3892 19.0595 12.81 19.912 13.6517C20.7537 14.4934 21.1745 15.5077 21.1745 16.6947V20.2017C21.1745 20.4175 21.099 20.6117 20.9371 20.7628C20.7861 20.9139 20.5918 21.0002 20.376 21.0002C20.1494 21.0002 19.9552 20.9247 19.8041 20.7628C19.6422 20.6009 19.5667 20.4175 19.5667 20.2017ZM16.869 13.997C16.4913 13.997 16.1352 14.0725 15.8115 14.2128C15.4878 14.3531 15.1964 14.5473 14.959 14.7955C14.7216 15.0437 14.5274 15.3243 14.3871 15.648C14.2468 15.9717 14.1713 16.3278 14.1713 16.6947C14.1713 17.0616 14.2468 17.4069 14.3871 17.7414C14.5274 18.0651 14.7216 18.3565 14.959 18.5939C15.1964 18.842 15.4878 19.0255 15.8115 19.1766C16.1352 19.3168 16.4913 19.3924 16.869 19.3924C17.2467 19.3924 17.592 19.3168 17.9265 19.1766C18.2502 19.0363 18.5416 18.842 18.779 18.5939C19.0272 18.3457 19.2106 18.0651 19.3509 17.7414C19.4912 17.4177 19.5667 17.0724 19.5667 16.7055C19.5667 16.3386 19.4912 15.9933 19.3509 15.6696C19.2106 15.3458 19.0164 15.0545 18.779 14.8171C18.5308 14.5689 18.2502 14.3747 17.9265 14.2344C17.592 14.0725 17.2467 13.997 16.869 13.997Z" fill="#1B2949"/>
<path d="M26.5917 12.3891C27.606 12.3891 28.5124 12.7021 29.2894 13.3387V9.50799C29.2894 9.28139 29.3649 9.08715 29.516 8.93608C29.667 8.78501 29.8613 8.70947 30.0879 8.70947C30.3145 8.70947 30.5087 8.78501 30.6598 8.93608C30.8109 9.08715 30.8972 9.28139 30.8972 9.50799V16.6947C30.8972 17.8924 30.4763 18.9068 29.6347 19.7377C28.7822 20.5793 27.7679 21.0002 26.5917 21.0002C25.4047 21.0002 24.3903 20.5793 23.5487 19.7377C22.707 18.896 22.2861 17.8816 22.2861 16.6947C22.2861 15.5077 22.707 14.4933 23.5487 13.6517C24.3903 12.81 25.4047 12.3891 26.5917 12.3891ZM29.2786 16.6947C29.2786 16.3278 29.203 15.9825 29.0627 15.6587C28.9225 15.335 28.7282 15.0437 28.4908 14.8063C28.2426 14.5581 27.9621 14.3638 27.6384 14.2236C27.3146 14.0833 26.9585 14.0077 26.5809 14.0077C26.2032 14.0077 25.8471 14.0833 25.5234 14.2236C25.1996 14.3638 24.9083 14.5581 24.6709 14.8063C24.4335 15.0545 24.2393 15.335 24.099 15.6587C23.9587 15.9825 23.8832 16.3386 23.8832 16.7054C23.8832 17.0723 23.9587 17.4176 24.099 17.7522C24.2393 18.0759 24.4335 18.3672 24.6709 18.6046C24.9083 18.8528 25.1996 19.0363 25.5234 19.1873C25.8471 19.3276 26.2032 19.4031 26.5809 19.4031C26.9585 19.4031 27.3038 19.3276 27.6384 19.1873C27.9621 19.047 28.2534 18.8528 28.4908 18.6046C28.739 18.3564 28.9225 18.0759 29.0627 17.7522C29.2138 17.4068 29.2786 17.0615 29.2786 16.6947Z" fill="#1B2949"/>
<path d="M33.6273 16.8997C33.1417 16.7163 32.8072 16.522 32.6129 16.3278H32.6237C32.2352 15.9285 32.041 15.4753 32.041 14.9358C32.041 14.5473 32.1489 14.1912 32.3539 13.8783C32.559 13.5654 32.8287 13.2956 33.1633 13.0798C33.4978 12.864 33.8754 12.6913 34.2855 12.5726C34.7063 12.4539 35.1164 12.3892 35.5372 12.3892C36.8213 12.3892 37.9112 12.9071 38.8284 13.9322C38.9363 14.0617 38.9903 14.2236 38.9903 14.4178C38.9903 14.6444 38.9147 14.8387 38.7637 14.9897C38.6126 15.1408 38.4184 15.2163 38.1918 15.2163C38.0299 15.2163 37.8896 15.1732 37.7709 15.0761C37.6522 14.9789 37.5443 14.8818 37.4364 14.7739C36.9185 14.256 36.2818 13.9862 35.5372 13.9862C34.8035 13.9862 34.21 14.2128 33.7675 14.666C33.6812 14.7523 33.6488 14.8603 33.6488 15.0005C33.6488 15.1408 33.7136 15.2379 33.8539 15.2919L37.4472 16.4789C37.9436 16.6731 38.2889 16.8673 38.4615 17.0508H38.4507C38.8392 17.45 39.0334 17.9033 39.0334 18.4428C39.0334 18.8421 38.9255 19.1874 38.7205 19.5003C38.5155 19.8132 38.2457 20.083 37.9112 20.2988C37.5767 20.5254 37.2098 20.6873 36.789 20.806C36.3789 20.9247 35.9581 20.9786 35.5372 20.9786C34.2423 20.9786 33.1525 20.4715 32.246 19.4463C32.1381 19.2953 32.0734 19.1334 32.0734 18.95C32.0734 18.7234 32.1489 18.5291 32.3 18.378C32.4511 18.227 32.6453 18.1514 32.8719 18.1514C33.0446 18.1514 33.1848 18.2054 33.3035 18.3025C33.4222 18.3996 33.5301 18.4967 33.6273 18.5939C34.1452 19.1118 34.7819 19.3816 35.5372 19.3816C36.271 19.3816 36.8537 19.155 37.3069 18.691C37.3825 18.6047 37.4256 18.4967 37.4256 18.378C37.4256 18.2378 37.3609 18.1299 37.2206 18.0759L33.6273 16.8997Z" fill="#1B2949"/>
<path d="M42.2267 19.8995C42.2267 20.2016 42.1188 20.4606 41.903 20.6764C41.6872 20.8922 41.4282 21.0002 41.126 21.0002C40.8239 21.0002 40.5649 20.8922 40.3491 20.6764C40.1333 20.4606 40.0254 20.2016 40.0254 19.8995C40.0254 19.5973 40.1333 19.3384 40.3491 19.1226C40.5649 18.9067 40.8239 18.7988 41.126 18.7988C41.4282 18.7988 41.6872 18.9067 41.903 19.1226C42.1296 19.3492 42.2267 19.5973 42.2267 19.8995Z" fill="#1B2949"/>
<path d="M44.5151 13.3495C45.2812 12.7129 46.1768 12.3999 47.2128 12.3999C48.3889 12.3999 49.4033 12.8208 50.2558 13.6624C50.6766 14.0725 50.9895 14.5365 51.2053 15.0437C51.4104 15.5508 51.5183 16.1012 51.5183 16.6947C51.5183 17.8924 51.0974 18.9068 50.2558 19.7377C49.4033 20.5793 48.3889 21.0002 47.2128 21.0002C46.0258 21.0002 45.0114 20.5793 44.1697 19.7377C43.3281 18.896 42.9072 17.8816 42.9072 16.6947V9.50799C42.9072 9.28139 42.9828 9.08715 43.1338 8.93608C43.2849 8.78501 43.4791 8.70947 43.7057 8.70947C43.9324 8.70947 44.1266 8.78501 44.2777 8.93608C44.4287 9.08715 44.5151 9.28139 44.5151 9.50799V13.3495ZM47.202 19.3924C47.5796 19.3924 47.9249 19.3168 48.2595 19.1765C48.5832 19.0363 48.8745 18.842 49.1119 18.5938C49.3601 18.3456 49.5436 18.0651 49.6838 17.7414C49.8241 17.4176 49.8997 17.0723 49.8997 16.7054C49.8997 16.3386 49.8241 15.9933 49.6838 15.6695C49.5436 15.3458 49.3493 15.0545 49.1119 14.8171C48.8637 14.5689 48.5832 14.3746 48.2595 14.2344C47.9357 14.0941 47.5796 14.0185 47.202 14.0185C46.8243 14.0185 46.4682 14.0941 46.1445 14.2344C45.8207 14.3746 45.5294 14.5689 45.292 14.8171C45.0546 15.0652 44.8604 15.3458 44.7201 15.6695C44.5798 15.9933 44.5043 16.3494 44.5043 16.7162C44.5043 17.0831 44.5798 17.4284 44.7201 17.7629C44.8604 18.0867 45.0546 18.378 45.292 18.6154C45.5294 18.8636 45.8207 19.047 46.1445 19.1981C46.4682 19.3168 46.8243 19.3924 47.202 19.3924Z" fill="#1B2949"/>
<path d="M54.6375 10.8676C54.6375 11.1265 54.5403 11.3531 54.3569 11.5366C54.1735 11.72 53.9468 11.8171 53.6879 11.8171C53.4289 11.8171 53.2023 11.72 53.0188 11.5366C52.8354 11.3531 52.7383 11.1265 52.7383 10.8676C52.7383 10.6086 52.8354 10.382 53.0188 10.1985C53.2023 10.0151 53.4289 9.91797 53.6879 9.91797C53.9468 9.91797 54.1735 10.0151 54.3569 10.1985C54.5403 10.382 54.6375 10.6086 54.6375 10.8676ZM52.9001 20.1908V13.1984C52.9001 12.9718 52.9757 12.7775 53.1375 12.6265C53.2886 12.4754 53.4828 12.3891 53.6987 12.3891C53.9145 12.3891 54.1087 12.4646 54.2598 12.6265C54.4109 12.7775 54.4972 12.9718 54.4972 13.1984V20.1908C54.4972 20.4174 54.4109 20.6116 54.2598 20.7627C54.1087 20.9138 53.9145 21.0001 53.6987 21.0001C53.4828 21.0001 53.2886 20.9246 53.1375 20.7627C52.9757 20.6008 52.9001 20.4174 52.9001 20.1908Z" fill="#1B2949"/>
<path d="M60.1835 12.3891C61.1978 12.3891 62.1042 12.7021 62.8812 13.3387V9.50799C62.8812 9.28139 62.9567 9.08715 63.1078 8.93608C63.2588 8.78501 63.4531 8.70947 63.6797 8.70947C63.9063 8.70947 64.1005 8.78501 64.2516 8.93608C64.4027 9.08715 64.489 9.28139 64.489 9.50799V16.6947C64.489 17.8924 64.0681 18.9068 63.2265 19.7377C62.374 20.5793 61.3597 21.0002 60.1835 21.0002C58.9965 21.0002 57.9821 20.5793 57.1405 19.7377C56.2988 18.896 55.8779 17.8816 55.8779 16.6947C55.8779 15.5077 56.2988 14.4933 57.1405 13.6517C57.9821 12.81 58.9965 12.3891 60.1835 12.3891ZM62.8812 16.6947C62.8812 16.3278 62.8056 15.9825 62.6653 15.6587C62.5251 15.335 62.3308 15.0437 62.0934 14.8063C61.8452 14.5581 61.5647 14.3638 61.241 14.2236C60.9172 14.0833 60.5611 14.0077 60.1835 14.0077C59.8058 14.0077 59.4497 14.0833 59.126 14.2236C58.8022 14.3638 58.5109 14.5581 58.2735 14.8063C58.0361 15.0545 57.8419 15.335 57.7016 15.6587C57.5613 15.9825 57.4858 16.3386 57.4858 16.7054C57.4858 17.0723 57.5613 17.4176 57.7016 17.7522C57.8419 18.0759 58.0361 18.3672 58.2735 18.6046C58.5109 18.8528 58.8022 19.0363 59.126 19.1873C59.4497 19.3276 59.8058 19.4031 60.1835 19.4031C60.5611 19.4031 60.9064 19.3276 61.241 19.1873C61.5647 19.047 61.856 18.8528 62.0934 18.6046C62.3416 18.3564 62.5251 18.0759 62.6653 17.7522C62.8056 17.4068 62.8812 17.0615 62.8812 16.6947Z" fill="#1B2949"/>
<path d="M18.0018 4.44704C18.2824 4.38229 18.5738 4.36071 18.8651 4.41467L14.4085 3.04423C14.0308 2.92554 13.6316 2.92554 13.2755 3.01186C12.9086 3.0874 12.5633 3.26005 12.2719 3.52982L0.682636 14.2882C-0.180627 15.0868 -0.234581 16.4464 0.574728 17.3097C1.37325 18.1729 2.73289 18.2269 3.59615 17.4176L14.3114 7.46846L17.0091 4.965C17.2897 4.70602 17.635 4.53336 18.0018 4.44704Z" fill="url(#paint0_linear)"/>
<path d="M23.0295 5.31052C23.0511 5.32131 23.0834 5.32131 23.105 5.3321C23.159 5.3429 23.2129 5.35368 23.2669 5.36448C23.2885 5.36448 23.3208 5.37527 23.3424 5.37527C23.4072 5.38606 23.4719 5.39685 23.5367 5.39685C23.5474 5.39685 23.5582 5.39685 23.569 5.39685C23.6446 5.40764 23.7201 5.40764 23.8064 5.40764C23.8388 5.40764 23.8604 5.40764 23.8928 5.40764C23.9467 5.40764 24.0007 5.40764 24.0438 5.40764C24.0762 5.40764 24.1086 5.40764 24.1409 5.40764C24.1949 5.40764 24.2381 5.40764 24.292 5.39685C24.3244 5.39685 24.3568 5.39685 24.3891 5.38606C24.4431 5.37527 24.5078 5.37527 24.5618 5.36448C24.5834 5.36448 24.6049 5.35369 24.6265 5.35369C24.7021 5.3429 24.7776 5.32131 24.8531 5.31052C24.8747 5.31052 24.8963 5.29973 24.9287 5.28894C24.9826 5.27815 25.0366 5.25657 25.0905 5.24578C25.1229 5.23499 25.1445 5.2242 25.1769 5.2242C25.2308 5.21341 25.274 5.19182 25.3279 5.17024C25.3603 5.15945 25.3819 5.14866 25.4143 5.13787C25.4682 5.11629 25.5222 5.09471 25.5653 5.07313C25.5869 5.06234 25.6085 5.05154 25.6301 5.04075C25.7056 5.00838 25.7704 4.97601 25.8459 4.93284C25.8567 4.92205 25.8783 4.92206 25.8891 4.91126C25.943 4.87889 26.0077 4.84652 26.0617 4.81415C26.0833 4.80336 26.1049 4.78177 26.1264 4.77098C26.1696 4.73861 26.2128 4.71703 26.2667 4.68466C26.2883 4.66308 26.3099 4.65229 26.3423 4.6307C26.3854 4.59833 26.4286 4.56596 26.4825 4.53359C26.5041 4.5228 26.5257 4.50122 26.5473 4.49042C26.612 4.43647 26.6768 4.38252 26.7307 4.32856L27.8746 3.26027C28.3709 2.79627 28.5975 2.15961 28.5436 1.53375C28.5112 1.14528 28.3386 0.789184 28.0472 0.530205C28.0364 0.519414 28.0364 0.519413 28.0256 0.508622C27.1947 -0.21436 25.943 -0.149614 25.1337 0.59495L20.8174 4.60912L22.7921 5.21341C22.8676 5.26736 22.9432 5.28894 23.0295 5.31052Z" fill="url(#paint1_linear)"/>
<path d="M23.7966 5.83925C23.5269 5.81767 23.2679 5.76371 23.0089 5.67739L20.527 4.91124C20.527 4.91124 20.5162 4.90045 20.527 4.90045L20.5162 4.91124L19.8472 4.717C19.5019 4.61989 19.1458 4.5983 18.8005 4.67384C18.8005 4.67384 18.8005 4.67384 18.7897 4.67384C18.4012 4.74938 18.0236 4.93282 17.7106 5.21338L14.959 7.68447L20.6241 9.41099C20.9263 9.46495 21.2284 9.44337 21.509 9.37862C21.8759 9.30309 22.2428 9.13044 22.5341 8.84987L25.221 6.3572L25.4692 6.1198L26.9152 4.77096C26.0843 5.56947 24.9297 5.94715 23.7966 5.83925Z" fill="url(#paint2_linear)"/>
<defs>
<linearGradient id="paint0_linear" x1="-7.47946" y1="-9.91916" x2="14.7543" y2="16.957" gradientUnits="userSpaceOnUse">
<stop stop-color="#4690FF"/>
<stop offset="1" stop-color="#9966E0"/>
</linearGradient>
<linearGradient id="paint1_linear" x1="15.0424" y1="15.0279" x2="31.8173" y2="-4.93154" gradientUnits="userSpaceOnUse">
<stop offset="0.3282" stop-color="#7E4D99"/>
<stop offset="0.3436" stop-color="#7B509E"/>
<stop offset="0.4712" stop-color="#6867C1"/>
<stop offset="0.6007" stop-color="#5979DC"/>
<stop offset="0.7312" stop-color="#4F86EF"/>
<stop offset="0.8635" stop-color="#488DFB"/>
<stop offset="1" stop-color="#4690FF"/>
</linearGradient>
<linearGradient id="paint2_linear" x1="16.8117" y1="-1.9921" x2="24.8204" y2="13.9216" gradientUnits="userSpaceOnUse">
<stop offset="0.3282" stop-color="#7E4D99"/>
<stop offset="0.3436" stop-color="#7B509E"/>
<stop offset="0.4712" stop-color="#6867C1"/>
<stop offset="0.6007" stop-color="#5979DC"/>
<stop offset="0.7312" stop-color="#4F86EF"/>
<stop offset="0.8635" stop-color="#488DFB"/>
<stop offset="1" stop-color="#4690FF"/>
</linearGradient>
</defs>
</svg>
