<svg width="96" height="32" viewBox="0 0 96 32" fill="none" xmlns="http://www.w3.org/2000/svg">
<path fill-rule="evenodd" clip-rule="evenodd" d="M25.1166 21.0177C24.563 21.0177 24.0371 21.1284 23.5389 21.3498C23.0407 21.5712 22.6256 21.848 22.2658 22.2078C21.9059 22.5676 21.6292 22.9828 21.4077 23.481C21.1863 23.9792 21.1033 24.4774 21.1033 25.031C21.1033 25.5845 21.214 26.1104 21.4077 26.5809C21.6292 27.0791 21.9059 27.4943 22.2658 27.8541C22.6256 28.2139 23.0407 28.4907 23.5389 28.7121C24.0371 28.9336 24.563 29.0443 25.1166 29.0443C25.6701 29.0443 26.196 28.9336 26.6942 28.7121C27.1924 28.4907 27.6076 28.2139 27.9674 27.8541C28.3272 27.4943 28.604 27.0515 28.8254 26.5809C29.0468 26.1104 29.1299 25.5845 29.1299 25.031C29.1299 24.4774 29.0192 23.9792 28.8254 23.481C28.604 23.0105 28.3272 22.5676 27.9674 22.2078C27.6076 21.848 27.1924 21.5436 26.6942 21.3498C26.196 21.1007 25.6701 21.0177 25.1166 21.0177ZM29.1299 30.2344V30.013C28.5486 30.4835 27.9397 30.8157 27.2755 31.0648C26.6112 31.3139 25.8916 31.4246 25.1166 31.4246C23.3452 31.4246 21.8506 30.788 20.5774 29.5425C19.3319 28.297 18.6953 26.7747 18.6953 25.0033C18.6953 23.2319 19.3319 21.7373 20.5774 20.4641C21.8229 19.2186 23.3452 18.582 25.1166 18.582C26.8603 18.582 28.3826 19.2186 29.6558 20.4641C30.9013 21.7096 31.5379 23.2319 31.5379 25.0033V30.2067C31.5379 30.5389 31.4271 30.8157 31.178 31.0371C30.9566 31.2585 30.6522 31.3969 30.3477 31.3969C30.0156 31.3969 29.7388 31.2862 29.4897 31.0371C29.2406 30.8433 29.1299 30.5666 29.1299 30.2344Z" fill="#12284C"/>
<path fill-rule="evenodd" clip-rule="evenodd" d="M43.5781 25.0304C43.5781 24.4768 43.4674 23.9786 43.2737 23.4804C43.0522 23.0099 42.7755 22.5671 42.4156 22.2073C42.0558 21.8474 41.6407 21.543 41.1425 21.3492C40.6443 21.1278 40.1461 21.0171 39.5648 21.0171C39.0113 21.0171 38.4854 21.1278 37.9872 21.3492C37.489 21.5707 37.0738 21.8474 36.714 22.2073C36.3542 22.5671 36.0774 22.9822 35.856 23.4804C35.6346 23.9786 35.5515 24.4768 35.5515 25.0304C35.5515 25.584 35.6622 26.1098 35.856 26.5804C36.0774 27.0786 36.3542 27.4937 36.714 27.8535C37.0738 28.2134 37.489 28.4901 37.9872 28.7116C38.4854 28.933 39.0113 29.0437 39.5648 29.0437C40.1184 29.0437 40.6443 28.933 41.1425 28.7116C41.6407 28.4901 42.0558 28.2134 42.4156 27.8535C42.7755 27.4937 43.0522 27.0509 43.2737 26.5804C43.4674 26.0822 43.5781 25.5563 43.5781 25.0304ZM39.5648 18.6091C41.0871 18.6091 42.4156 19.0797 43.5781 20.0207V14.3191C43.5781 13.9869 43.6888 13.6825 43.9103 13.461C44.1317 13.2396 44.4085 13.1289 44.7683 13.1289C45.1004 13.1289 45.3772 13.2396 45.6263 13.461C45.8477 13.6825 45.9861 13.9592 45.9861 14.3191V25.0304C45.9861 26.8018 45.3495 28.3241 44.104 29.5696C42.8308 30.8151 41.3362 31.4517 39.5648 31.4517C37.7934 31.4517 36.2988 30.8151 35.0257 29.5696C33.7801 28.3241 33.1436 26.8018 33.1436 25.0304C33.1436 23.259 33.7801 21.7644 35.0257 20.4912C36.2988 19.2457 37.7934 18.6091 39.5648 18.6091Z" fill="#12284C"/>
<path fill-rule="evenodd" clip-rule="evenodd" d="M50.0258 25.3351C49.3062 25.0583 48.808 24.7815 48.5035 24.4771C47.9223 23.8959 47.6455 23.2039 47.6455 22.4012C47.6455 21.82 47.8116 21.2941 48.116 20.8236C48.4205 20.3531 48.8357 19.9656 49.3339 19.6335C49.8321 19.3013 50.3856 19.0522 51.0222 18.8862C51.6311 18.7201 52.2677 18.6094 52.9043 18.6094C54.8141 18.6094 56.4471 19.3844 57.8033 20.9066C57.9694 21.1004 58.0524 21.3495 58.0524 21.6263C58.0524 21.9584 57.9417 22.2629 57.7203 22.4843C57.4988 22.7057 57.2221 22.8164 56.8622 22.8164C56.6131 22.8164 56.4194 22.7611 56.2257 22.6227C56.0596 22.4843 55.8935 22.3459 55.7275 22.1798C54.9525 21.4048 54.0114 21.0174 52.9043 21.0174C51.7972 21.0174 50.9392 21.3495 50.2749 22.0138C50.1642 22.1245 50.0812 22.2905 50.0812 22.512C50.0812 22.7334 50.1919 22.8718 50.3856 22.9548L55.7275 24.7262C56.4748 25.003 56.973 25.3074 57.2497 25.5842C57.831 26.1654 58.1078 26.8574 58.1078 27.66C58.1078 28.2413 57.9417 28.7672 57.6372 29.2377C57.3328 29.7082 56.9176 30.0957 56.4194 30.4278C55.9212 30.76 55.3676 31.0091 54.7587 31.1751C54.1498 31.3412 53.5132 31.4519 52.9043 31.4519C50.9945 31.4519 49.3615 30.7046 48.0053 29.1823C47.8393 28.9609 47.7562 28.7118 47.7562 28.435C47.7562 28.1029 47.8669 27.7984 48.0884 27.577C48.3098 27.3556 48.5866 27.2449 48.9464 27.2449C49.1955 27.2449 49.4169 27.3279 49.583 27.4663C49.749 27.6047 49.9151 27.7708 50.0535 27.8815C50.8285 28.6565 51.7695 29.0439 52.9043 29.0439C53.9837 29.0439 54.8694 28.7118 55.5337 28.0199C55.6444 27.8815 55.6998 27.7431 55.6998 27.5493C55.6998 27.3279 55.5891 27.1895 55.3953 27.1065L50.0258 25.3351Z" fill="#12284C"/>
<path fill-rule="evenodd" clip-rule="evenodd" d="M62.8412 29.7902C62.8412 30.2331 62.6751 30.6206 62.3707 30.9527C62.0662 31.2572 61.6787 31.4232 61.2082 31.4232C60.7653 31.4232 60.3779 31.2572 60.0457 30.9527C59.7413 30.6482 59.5752 30.2607 59.5752 29.7902C59.5752 29.3474 59.7413 28.9599 60.0457 28.6278C60.3502 28.3233 60.7377 28.1572 61.2082 28.1572C61.651 28.1572 62.0385 28.3233 62.3707 28.6278C62.7028 28.9599 62.8412 29.3474 62.8412 29.7902Z" fill="#12284C"/>
<path fill-rule="evenodd" clip-rule="evenodd" d="M70.2592 29.0437C70.8127 29.0437 71.3386 28.933 71.8368 28.7116C72.335 28.4901 72.7502 28.2134 73.11 27.8535C73.4698 27.4937 73.7466 27.0509 73.968 26.5804C74.1894 26.1098 74.2725 25.584 74.2725 25.0304C74.2725 24.4768 74.1617 23.9786 73.968 23.4804C73.7466 23.0099 73.4698 22.5671 73.11 22.2073C72.7502 21.8474 72.335 21.543 71.8368 21.3492C71.3386 21.1278 70.8404 21.0171 70.2592 21.0171C69.7056 21.0171 69.1797 21.1278 68.6815 21.3492C68.1833 21.5707 67.7681 21.8474 67.4083 22.2073C67.0485 22.5671 66.7717 22.9822 66.5503 23.4804C66.3289 23.9786 66.2459 24.4768 66.2459 25.0304C66.2459 25.584 66.3566 26.1098 66.5503 26.5804C66.7717 27.0786 67.0485 27.4937 67.4083 27.8535C67.7681 28.2134 68.1833 28.4901 68.6815 28.7116C69.1797 28.933 69.7056 29.0437 70.2592 29.0437ZM66.2459 20.0484C67.3807 19.1073 68.7092 18.6368 70.2592 18.6368C72.0029 18.6368 73.5251 19.2734 74.7983 20.5189C75.4349 21.1278 75.9054 21.8198 76.2099 22.5947C76.5144 23.342 76.6804 24.1724 76.6804 25.0581C76.6804 26.8295 76.0438 28.3517 74.7983 29.5972C73.5251 30.8428 72.0305 31.4793 70.2592 31.4793C68.4878 31.4793 66.9932 30.8428 65.72 29.5972C64.4745 28.3517 63.8379 26.8295 63.8379 25.0581V14.3191C63.8379 13.9869 63.9486 13.6825 64.17 13.461C64.3914 13.2396 64.6682 13.1289 65.028 13.1289C65.3602 13.1289 65.637 13.2396 65.8861 13.461C66.1075 13.6825 66.2459 13.9592 66.2459 14.3191V20.0484Z" fill="#12284C"/>
<path fill-rule="evenodd" clip-rule="evenodd" d="M78.7283 30.2059V19.8267C78.7283 19.4946 78.839 19.2178 79.0881 18.9687C79.3095 18.7473 79.6139 18.6089 79.9184 18.6089C80.2505 18.6089 80.5273 18.7196 80.7487 18.9687C80.9702 19.1901 81.1086 19.4946 81.1086 19.8267V30.2336C81.1086 30.5657 80.9702 30.8425 80.7487 31.0916C80.5273 31.313 80.2229 31.4514 79.9184 31.4514C79.5863 31.4514 79.3095 31.3407 79.0881 31.0916C78.839 30.8425 78.7283 30.5657 78.7283 30.2059ZM81.33 16.3393C81.33 16.7268 81.1916 17.0589 80.9148 17.3357C80.638 17.6125 80.3059 17.7509 79.9184 17.7509C79.5309 17.7509 79.1988 17.6125 78.922 17.3357C78.6452 17.0589 78.5068 16.7268 78.5068 16.3393C78.5068 15.9518 78.6452 15.6197 78.922 15.3429C79.1988 15.0661 79.5309 14.9277 79.9184 14.9277C80.3059 14.9277 80.638 15.0661 80.9148 15.3429C81.1916 15.6197 81.33 15.9518 81.33 16.3393Z" fill="#12284C"/>
<path fill-rule="evenodd" clip-rule="evenodd" d="M93.5928 25.0304C93.5928 24.4768 93.4821 23.9786 93.2883 23.4804C93.0669 23.0099 92.7901 22.5671 92.4303 22.2073C92.0705 21.8474 91.6553 21.543 91.1571 21.3492C90.6589 21.1278 90.1607 21.0171 89.5795 21.0171C89.0259 21.0171 88.5 21.1278 88.0018 21.3492C87.5036 21.5707 87.0885 21.8474 86.7286 22.2073C86.3688 22.5671 86.0921 22.9822 85.8706 23.4804C85.6492 23.9786 85.5662 24.4768 85.5662 25.0304C85.5662 25.584 85.6769 26.1098 85.8706 26.5804C86.0921 27.0786 86.3688 27.4937 86.7286 27.8535C87.0885 28.2134 87.5036 28.4901 88.0018 28.7116C88.5 28.933 89.0259 29.0437 89.5795 29.0437C90.133 29.0437 90.6589 28.933 91.1571 28.7116C91.6553 28.4901 92.0705 28.2134 92.4303 27.8535C92.7901 27.4937 93.0669 27.0509 93.2883 26.5804C93.4821 26.0822 93.5928 25.5563 93.5928 25.0304ZM89.5795 18.6091C91.1018 18.6091 92.4303 19.0797 93.5928 20.0207V14.3191C93.5928 13.9869 93.7035 13.6825 93.9249 13.461C94.1463 13.2396 94.4231 13.1289 94.7829 13.1289C95.1151 13.1289 95.3918 13.2396 95.6409 13.461C95.8624 13.6825 96.0007 13.9592 96.0007 14.3191V25.0304C96.0007 26.8018 95.3642 28.3241 94.1186 29.5696C92.8455 30.8151 91.3509 31.4517 89.5795 31.4517C87.8081 31.4517 86.3135 30.8151 85.0403 29.5696C83.7948 28.3241 83.1582 26.8018 83.1582 25.0304C83.1582 23.259 83.7948 21.7644 85.0403 20.4912C86.3135 19.2457 87.8081 18.6091 89.5795 18.6091Z" fill="#12284C"/>
<path fill-rule="evenodd" clip-rule="evenodd" d="M26.7773 6.79136C27.1924 6.68065 27.6353 6.68065 28.0781 6.73601L21.4354 4.71552C20.8542 4.54946 20.273 4.54946 19.7471 4.66017C19.1935 4.77088 18.6953 5.01998 18.2525 5.43515L1.00914 21.4606C-0.264039 22.6508 -0.347074 24.6713 0.843076 25.9445C2.03323 27.2176 4.05371 27.3007 5.3269 26.1105L21.2694 11.3029L25.2827 7.56635C25.7255 7.17886 26.2514 6.90208 26.7773 6.79136Z" fill="url(#paint0_linear)"/>
<path fill-rule="evenodd" clip-rule="evenodd" d="M34.6459 7.86664C36.5833 8.33716 38.6868 7.7836 40.1538 6.42739L41.8698 4.84975C42.6171 4.1578 42.9492 3.21675 42.8662 2.2757C42.8109 1.69447 42.5617 1.16859 42.1189 0.781097L42.0912 0.753419C40.8457 -0.326019 38.9913 -0.215307 37.8012 0.891808L31.3799 6.87023C32.404 7.20237 33.5664 7.61753 34.6459 7.86664Z" fill="url(#paint1_linear)"/>
<path fill-rule="evenodd" clip-rule="evenodd" d="M35.4126 8.86684C35.0251 8.83916 34.6372 8.73357 34.2502 8.61774L30.5413 7.48294C30.2369 7.39991 29.8494 7.2892 29.5172 7.17849C29.019 7.0401 28.4655 6.98474 27.9673 7.12313C27.386 7.23384 26.8325 7.51062 26.362 7.92579L22.2656 11.6069L30.7074 14.181C31.1833 14.3091 31.6274 14.3091 32.1208 14.2104C32.6743 14.0997 33.1154 13.7658 33.5582 13.3507L37.5438 9.64182L37.9313 9.28201L40.0902 7.2892C38.817 8.45167 37.101 9.0329 35.4126 8.86684Z" fill="url(#paint2_linear)"/>
<defs>
<linearGradient id="paint0_linear" x1="-11.1321" y1="-14.5576" x2="21.9303" y2="25.4382" gradientUnits="userSpaceOnUse">
<stop stop-color="#4690FF"/>
<stop offset="1" stop-color="#9966E0"/>
</linearGradient>
<linearGradient id="paint1_linear" x1="22.7938" y1="22.3198" x2="47.7037" y2="-7.3502" gradientUnits="userSpaceOnUse">
<stop offset="0.3282" stop-color="#7E4D99"/>
<stop offset="0.3436" stop-color="#7B509E"/>
<stop offset="0.4712" stop-color="#6867C1"/>
<stop offset="0.6007" stop-color="#5979DC"/>
<stop offset="0.7312" stop-color="#4F86EF"/>
<stop offset="0.8635" stop-color="#488DFB"/>
<stop offset="1" stop-color="#4690FF"/>
</linearGradient>
<linearGradient id="paint2_linear" x1="25.0276" y1="-2.91311" x2="37.1335" y2="20.9338" gradientUnits="userSpaceOnUse">
<stop offset="0.3282" stop-color="#7E4D99"/>
<stop offset="0.3436" stop-color="#7B509E"/>
<stop offset="0.4712" stop-color="#6867C1"/>
<stop offset="0.6007" stop-color="#5979DC"/>
<stop offset="0.7312" stop-color="#4F86EF"/>
<stop offset="0.8635" stop-color="#488DFB"/>
<stop offset="1" stop-color="#4690FF"/>
</linearGradient>
</defs>
</svg>
