<svg width="24" height="24" viewBox="0 0 24 24" fill="none" xmlns="http://www.w3.org/2000/svg">
<path d="M3.11158 8.6253C3.38988 8.82526 4.22878 9.41913 5.62832 10.4066C7.0279 11.3941 8.10007 12.1544 8.84488 12.6877C8.92671 12.7461 9.10057 12.8732 9.36652 13.069C9.63253 13.265 9.85355 13.4234 10.0294 13.5442C10.2054 13.6649 10.4182 13.8004 10.6679 13.9503C10.9176 14.1002 11.1529 14.2128 11.3739 14.2875C11.5949 14.3627 11.7995 14.3999 11.9878 14.3999H12.0001H12.0125C12.2007 14.3999 12.4054 14.3626 12.6264 14.2875C12.8473 14.2128 13.0828 14.1 13.3323 13.9503C13.5819 13.8002 13.7946 13.6649 13.9706 13.5442C14.1466 13.4234 14.3675 13.265 14.6336 13.069C14.8995 12.873 15.0736 12.7461 15.1554 12.6877C15.9082 12.1544 17.8236 10.8002 20.9009 8.62504C21.4983 8.20022 21.9975 7.6876 22.3985 7.08756C22.7998 6.48777 23.0002 5.85857 23.0002 5.20029C23.0002 4.6502 22.8057 4.17931 22.4169 3.78768C22.0281 3.39595 21.5677 3.2002 21.0358 3.2002H2.96422C2.33405 3.2002 1.84909 3.41683 1.50943 3.85011C1.16981 4.28347 1 4.82516 1 5.47512C1 6.00012 1.22515 6.56904 1.67524 7.18152C2.12528 7.79404 2.60422 8.27535 3.11158 8.6253Z" fill="#596982"/>
<path d="M21.7723 9.96248C19.0881 11.8124 17.0498 13.25 15.6586 14.2752C15.1921 14.625 14.8137 14.8981 14.523 15.0939C14.2324 15.2897 13.8459 15.4897 13.3629 15.6938C12.8801 15.8981 12.4301 16 12.0126 16H12.0001H11.9878C11.5704 16 11.1202 15.8981 10.6374 15.6938C10.1545 15.4897 9.76775 15.2897 9.4772 15.0939C9.18673 14.8981 8.80816 14.625 8.34169 14.2752C7.2367 13.4502 5.20287 12.0124 2.24009 9.96248C1.77345 9.64602 1.36013 9.28328 1 8.875V18.8C1 19.3503 1.19226 19.8209 1.57698 20.2126C1.96162 20.6044 2.42413 20.8003 2.96435 20.8003H21.036C21.5761 20.8003 22.0385 20.6044 22.4232 20.2126C22.808 19.8208 23.0002 19.3504 23.0002 18.8V8.875C22.6482 9.27483 22.2391 9.63757 21.7723 9.96248Z" fill="#596982"/>
</svg>
