<svg width="12" height="22" viewBox="0 0 12 22" fill="none" xmlns="http://www.w3.org/2000/svg">
<path d="M12 2.05555V0.888887C12 0.674221 11.8212 0.5 11.6 0.5H0.399998C0.179199 0.5 0 0.674221 0 0.888887V2.05555H12Z" fill="#596982"/>
<path d="M12 2.83301H0V17.6108H12V2.83301Z" fill="#596982"/>
<path d="M0 18.3887V21.1109C0 21.3259 0.179199 21.4998 0.399998 21.4998H11.6C11.8212 21.4998 12 21.3259 12 21.1109V18.3887H0ZM5.99998 20.3331C5.55838 20.3331 5.19998 19.9847 5.19998 19.5553C5.19998 19.126 5.55838 18.7776 5.99998 18.7776C6.44157 18.7776 6.79997 19.126 6.79997 19.5553C6.79997 19.9847 6.44157 20.3331 5.99998 20.3331Z" fill="#596982"/>
</svg>
