<svg width="80" height="37" viewBox="0 0 80 37" fill="none" xmlns="http://www.w3.org/2000/svg">
<path d="M32.2942 27.762L16.1475 36.7601V18.7491L32.2942 9.75098V27.762Z" fill="#0E0E0E"/>
<path d="M0 27.762L16.1468 36.7601V18.7491L0 9.75098L0 27.762Z" fill="#FB525E"/>
<path d="M0 9.70715L16.1468 18.7053L32.2936 9.70715L16.1468 0.708984L0 9.70715Z" fill="#F8F8F8"/>
<path d="M42.4472 9.94574V14.7684L38.508 9.94574H36.9912V17.889H38.8023V13.0663L42.7529 17.889H44.2583V9.94574H42.4472Z" fill="#0E0E0E"/>
<path d="M47.9555 16.4138V14.5755H51.6343V13.1457H47.9555V11.4209H52.1211V9.94574H46.1331V17.889H52.2682V16.4138H47.9555Z" fill="#0E0E0E"/>
<path d="M63.8383 9.94574L61.9932 15.5741L60.1821 9.94574H58.4842L56.6164 15.5287L54.828 9.94574H52.9263L55.5298 17.889H57.488L59.2879 12.5103L61.0311 17.889H63.0007L65.5928 9.94574H63.8383Z" fill="#0E0E0E"/>
<path d="M69.22 18.0252C71.4839 18.0252 72.5819 16.8904 72.5819 15.5628C72.5819 12.6464 67.9749 13.6564 67.9749 12.1925C67.9749 11.6933 68.3937 11.2847 69.4804 11.2847C70.1822 11.2847 70.9406 11.489 71.6764 11.9089L72.2423 10.5131C71.5066 10.0479 70.4878 9.80957 69.4917 9.80957C67.2391 9.80957 66.1524 10.933 66.1524 12.2833C66.1524 15.2337 70.7595 14.2124 70.7595 15.6989C70.7595 16.1869 70.318 16.55 69.2314 16.55C68.2805 16.55 67.2844 16.2096 66.6165 15.7216L65.994 17.106C66.6958 17.6507 67.9636 18.0252 69.22 18.0252Z" fill="#0E0E0E"/>
<path d="M40.421 19.6384H36.9912V27.5817H38.825V25.3916H40.421C42.5378 25.3916 43.8622 24.2909 43.8622 22.5207C43.8622 20.7391 42.5378 19.6384 40.421 19.6384ZM40.3192 23.8937H38.825V21.1363H40.3192C41.4398 21.1363 42.0058 21.6469 42.0058 22.5207C42.0058 23.3831 41.4398 23.8937 40.3192 23.8937Z" fill="#0E0E0E"/>
<path d="M52.1894 27.5817L50.4123 25.0285C51.4424 24.5859 52.0423 23.7122 52.0423 22.5207C52.0423 20.7391 50.7179 19.6384 48.6012 19.6384H45.1713V27.5817H47.0051V25.3689H48.6012H48.6917L50.2198 27.5817H52.1894ZM50.1859 22.5207C50.1859 23.3831 49.6199 23.9051 48.4993 23.9051H47.0051V21.1363H48.4993C49.6199 21.1363 50.1859 21.6469 50.1859 22.5207Z" fill="#0E0E0E"/>
<path d="M57.3325 27.7178C59.8228 27.7178 61.6679 25.9817 61.6679 23.61C61.6679 21.2384 59.8228 19.5022 57.3325 19.5022C54.8309 19.5022 52.9971 21.2497 52.9971 23.61C52.9971 25.9703 54.8309 27.7178 57.3325 27.7178ZM57.3325 26.1519C55.9176 26.1519 54.8535 25.1192 54.8535 23.61C54.8535 22.1008 55.9176 21.0682 57.3325 21.0682C58.7474 21.0682 59.8115 22.1008 59.8115 23.61C59.8115 25.1192 58.7474 26.1519 57.3325 26.1519Z" fill="#0E0E0E"/>
<path d="M69.0341 21.1136V19.6384H63.046V27.5817H64.8798V24.688H68.5473V23.2129H64.8798V21.1136H69.0341Z" fill="#0E0E0E"/>
<path d="M70.2755 27.5817H72.1093V19.6384H70.2755V27.5817Z" fill="#0E0E0E"/>
<path d="M75.631 27.5817H77.4648V21.1363H80.0004V19.6384H73.0955V21.1363H75.631V27.5817Z" fill="#0E0E0E"/>
</svg>
