<svg width="45" height="20" viewBox="0 0 45 20" fill="none" xmlns="http://www.w3.org/2000/svg">
<path d="M17.9948 15.0085L9.03711 20.0003L9.03711 10.0085L17.9948 5.0166V15.0085Z" fill="#596982"/>
<path d="M0.0791016 15.0085L9.03676 20.0003L9.03676 10.0085L0.0791016 5.0166L0.0791016 15.0085Z" fill="#596982"/>
<path d="M0.0791016 4.99186L9.03676 9.98371L17.9944 4.99186L9.03676 0L0.0791016 4.99186Z" fill="#8893A5"/>
<path d="M23.6274 5.12437V7.79982L21.4421 5.12437H20.6006V9.531H21.6053V6.85555L23.7969 9.531H24.6321V5.12437H23.6274Z" fill="#596982"/>
<path d="M26.6832 8.71263V7.69281H28.7241V6.89961H26.6832V5.94274H28.9941V5.12437H25.6722V9.531H29.0757V8.71263H26.6832Z" fill="#596982"/>
<path d="M35.4944 5.12437L34.4708 8.24678L33.4661 5.12437H32.5241L31.488 8.2216L30.4958 5.12437H29.4408L30.8851 9.531H31.9715L32.97 6.54708L33.937 9.531H35.0297L36.4677 5.12437H35.4944Z" fill="#596982"/>
<path d="M38.48 9.60654C39.7359 9.60654 40.345 8.97702 40.345 8.24049C40.345 6.62262 37.7892 7.1829 37.7892 6.37082C37.7892 6.09383 38.0216 5.8672 38.6244 5.8672C39.0137 5.8672 39.4345 5.98052 39.8427 6.21344L40.1566 5.43913C39.7485 5.18103 39.1833 5.04883 38.6307 5.04883C37.381 5.04883 36.7782 5.67205 36.7782 6.42118C36.7782 8.05793 39.334 7.49136 39.334 8.31603C39.334 8.58672 39.0891 8.78817 38.4863 8.78817C37.9588 8.78817 37.4061 8.59931 37.0357 8.32862L36.6903 9.09663C37.0796 9.3988 37.7829 9.60654 38.48 9.60654Z" fill="#596982"/>
<path d="M22.5033 10.5015H20.6006V14.9081H21.6179V13.6932H22.5033C23.6776 13.6932 24.4123 13.0825 24.4123 12.1005C24.4123 11.1121 23.6776 10.5015 22.5033 10.5015ZM22.4468 12.8622H21.6179V11.3325H22.4468C23.0685 11.3325 23.3825 11.6158 23.3825 12.1005C23.3825 12.5789 23.0685 12.8622 22.4468 12.8622Z" fill="#596982"/>
<path d="M29.032 14.9081L28.0461 13.4917C28.6176 13.2462 28.9504 12.7615 28.9504 12.1005C28.9504 11.1121 28.2157 10.5015 27.0414 10.5015H25.1386V14.9081H26.1559V13.6806H27.0414H27.0916L27.9394 14.9081H29.032ZM27.9205 12.1005C27.9205 12.5789 27.6065 12.8685 26.9848 12.8685H26.1559V11.3325H26.9848C27.6065 11.3325 27.9205 11.6158 27.9205 12.1005Z" fill="#596982"/>
<path d="M31.8852 14.9837C33.2667 14.9837 34.2903 14.0205 34.2903 12.7048C34.2903 11.3891 33.2667 10.426 31.8852 10.426C30.4974 10.426 29.4801 11.3954 29.4801 12.7048C29.4801 14.0142 30.4974 14.9837 31.8852 14.9837ZM31.8852 14.1149C31.1002 14.1149 30.5099 13.5421 30.5099 12.7048C30.5099 11.8676 31.1002 11.2947 31.8852 11.2947C32.6702 11.2947 33.2604 11.8676 33.2604 12.7048C33.2604 13.5421 32.6702 14.1149 31.8852 14.1149Z" fill="#596982"/>
<path d="M38.3768 11.3199V10.5015H35.0549V14.9081H36.0722V13.3029H38.1068V12.4845H36.0722V11.3199H38.3768Z" fill="#596982"/>
<path d="M39.0655 14.9081H40.0828V10.5015H39.0655V14.9081Z" fill="#596982"/>
<path d="M42.0366 14.9081H43.0539V11.3325H44.4605V10.5015H40.6299V11.3325H42.0366V14.9081Z" fill="#596982"/>
</svg>
