<svg width="24" height="24" viewBox="0 0 24 24" fill="none" xmlns="http://www.w3.org/2000/svg">
<path d="M7.2933 3.71684L8.41959 5.32H8.90168V2.87793H8.39835V4.48445L7.27277 2.87793H6.79492V5.32H7.2933V3.71684Z" fill="#596982"/>
<path d="M10.9379 4.86455H10.002V4.2214H10.9379V3.77605H10.002V3.33203H10.9379V2.87793H9.50293V5.32H10.9379V4.86455Z" fill="#596982"/>
<path d="M12.2791 5.32L12.7534 3.74039L13.239 5.32H13.7197L14.3129 2.87793H13.8195L13.4429 4.43803L12.9679 2.87793H12.5488L12.0816 4.43803L11.6986 2.87793H11.208L11.8019 5.32H12.2791Z" fill="#596982"/>
<path d="M15.3366 4.93948C15.1696 4.93948 15.0256 4.8321 14.8996 4.61638L14.4775 4.85204C14.5776 5.03641 14.6955 5.16944 14.8345 5.25495C14.9725 5.34047 15.1375 5.38324 15.3245 5.38324C15.5655 5.38324 15.7595 5.31861 15.9085 5.18844C16.0575 5.05728 16.1315 4.89097 16.1315 4.69334C16.1315 4.58974 16.1095 4.49186 16.0685 4.40443C16.0265 4.31794 15.9545 4.22768 15.8525 4.13074C15.8105 4.09558 15.6955 3.99865 15.5065 3.85039C15.3015 3.69263 15.1775 3.58714 15.1385 3.53487C15.1075 3.50159 15.0935 3.46266 15.0935 3.42083C15.0935 3.37997 15.1155 3.34101 15.1555 3.31153C15.1985 3.27637 15.2505 3.26401 15.3175 3.26401C15.4525 3.26401 15.5845 3.34858 15.7165 3.51301L16.0865 3.20985C15.9485 3.06065 15.8205 2.9561 15.7005 2.90387C15.5825 2.84497 15.4565 2.81836 15.3265 2.81836C15.1215 2.81836 14.9495 2.87919 14.8105 2.99704C14.6715 3.12057 14.6025 3.26597 14.6025 3.43609C14.6025 3.55108 14.6425 3.67175 14.7285 3.78677C14.8115 3.90745 14.9965 4.07568 15.2835 4.29141C15.4335 4.40353 15.5325 4.48908 15.5765 4.5461C15.6185 4.59931 15.6405 4.65633 15.6405 4.70861C15.6405 4.77037 15.6125 4.82645 15.5545 4.87206C15.4956 4.91762 15.4215 4.93948 15.3366 4.93948Z" fill="#596982"/>
<path d="M3 1V23H20.9998V1H3ZM4.38492 7.72244H11.3074V13.2224H4.38492V7.72244ZM19.6149 18.7224H4.38492V17.5H19.6149V18.7224ZM19.6149 16.2776H4.38492V15.0551H19.6149V16.2776ZM19.6149 13.8317H12.6924V12.6093H19.6149V13.8317ZM19.6149 11.3907H12.6924V10.1682H19.6149V11.3907ZM19.6149 8.94583H14.7698V7.72244H19.6149V8.94583ZM19.6149 5.8907H4.38492V2.22245H19.6149V5.8907Z" fill="#596982"/>
</svg>
