<svg width="24" height="24" viewBox="0 0 24 24" fill="none" xmlns="http://www.w3.org/2000/svg">
<path fill-rule="evenodd" clip-rule="evenodd" d="M23.84 10.0226L17.44 1.25162C17.2 0.983119 16.88 0.89362 16.64 1.16212L14.72 2.77311C14.56 2.86261 14.48 3.04161 14.48 3.22061C14.48 3.39961 14.48 3.57861 14.64 3.7576L14.8 4.0261L10.96 7.06909L8.24 5.4581L8.4 5.1896C8.48 5.0106 8.48 4.8316 8.48 4.6526C8.4 4.4736 8.32 4.2946 8.16 4.2051L5.92 3.04161C5.6 2.86261 5.28 3.04161 5.12 3.31011L0.08 13.1551C0 13.2446 0 13.4236 0 13.6026C0.08 13.7815 0.16 13.9605 0.32 14.05L2.48 15.303C2.56 15.3925 2.64 15.3925 2.72 15.3925C2.88 15.3925 3.04 15.303 3.2 15.124C3.36 15.5715 3.6 15.9295 3.92 16.2875C3.84 16.377 3.6 16.914 3.68 17.451C3.76 17.809 3.92 18.2565 4.48 18.6145C4.88 18.883 5.28 19.062 5.6 19.062C5.68 19.599 5.92 20.136 6.56 20.494C7.04 20.852 7.44 20.9415 7.84 21.031C8 21.4785 8.32 22.0155 8.88 22.463C9.36 22.821 9.84 23 10.24 23C10.4 23 10.56 23 10.72 22.9105C11.12 22.7315 11.36 22.3735 11.44 22.1945L11.84 21.389L13.28 22.1945C13.52 22.3735 13.84 22.3735 14.08 22.3735C14.24 22.3735 14.48 22.3735 14.64 22.284C15.12 22.105 15.44 21.747 15.68 21.2995C15.92 20.852 15.92 20.315 15.84 19.8675C16.24 19.6885 16.64 19.3305 16.8 18.883C17.04 18.4355 17.04 17.8985 16.96 17.451C17.36 17.272 17.76 16.914 17.92 16.4665C18.16 16.019 18.16 15.482 18.08 15.0345C18.48 14.8555 18.88 14.4975 19.04 14.05C19.04 13.9605 19.04 13.9605 19.12 13.871C19.44 13.7816 20.24 13.4236 20.8 12.2601L21.04 12.5286C21.12 12.7076 21.36 12.7971 21.52 12.7971C21.68 12.7971 21.76 12.7971 21.84 12.7076L23.76 11.0966C23.92 11.0071 24 10.8281 24 10.6491C24 10.3806 24 10.2016 23.84 10.0226ZM6.56 16.556L6 17.7195C6 17.7195 6 17.809 5.92 17.809C5.84 17.809 5.68 17.809 5.2 17.451C5.04 17.3615 4.96 17.272 4.96 17.1825C4.96 17.093 4.96 17.0035 5.04 16.914L5.6 15.84C5.6 15.84 5.68 15.7505 5.76 15.7505C5.92 15.7505 6.08 15.84 6.24 15.9295C6.48 16.198 6.56 16.4665 6.56 16.556ZM2.56 13.7815L1.52 13.1551L6 4.5631L7.04 5.1896L2.56 13.7815ZM8.16 19.42C8.08 19.5095 8.08 19.599 8 19.6885C8 19.6885 7.76 19.6885 7.28 19.42C6.88 19.1515 6.88 18.7935 6.88 18.6145C6.96 18.525 7.04 18.346 7.04 18.2565L7.6 17.1825C7.68 17.0035 7.76 16.8245 7.76 16.6455L7.84 16.556C7.92 16.4665 8.4 16.6455 8.8 16.914C9.04 17.093 9.12 17.272 9.2 17.5405L8.16 19.42ZM10.48 21.389C10.4 21.4785 10.4 21.568 10.32 21.6575C10.32 21.6575 10.08 21.747 9.6 21.389C9.2 21.1205 9.12 20.7625 9.04 20.5835C9.12 20.494 9.12 20.4045 9.12 20.4045L10.16 18.525C10.32 18.525 10.72 18.704 11.12 18.9725C11.36 19.1515 11.44 19.3305 11.52 19.599L10.48 21.389ZM19.04 12.3496C18.88 11.9021 18.56 11.4546 18.16 11.2756L13.36 8.94858C13.2 8.85908 12.96 8.85908 12.8 9.03808L10.16 11.0071C10.08 11.0966 9.92 11.0966 9.76 11.0966C9.6 11.0966 9.44 11.0071 9.36 10.8281C9.2 10.5596 9.2 10.1121 9.52 9.84357L15.6 5.0106L19.92 11.0071C19.68 11.8126 19.36 12.1706 19.04 12.3496ZM21.52 11.0966L15.92 3.39961L16.88 2.59411L22.48 10.2911L21.52 11.0966Z" fill="#596982"/>
</svg>
