<svg width="22" height="18" viewBox="0 0 22 18" fill="none" xmlns="http://www.w3.org/2000/svg">
<path d="M21.1851 16.4149H0.81481C0.365035 16.4149 0 16.7699 0 17.2074C0 17.6448 0.365035 17.9998 0.81481 17.9998H21.1851C21.6348 17.9998 21.9999 17.6448 21.9999 17.2074C21.9999 16.7699 21.6348 16.4149 21.1851 16.4149ZM12.2731 7.35146C12.2731 6.66878 11.7019 6.11328 10.9999 6.11328C10.298 6.11328 9.72679 6.66878 9.72679 7.35146V8.44106H12.2731V7.35146Z" fill="#4690FF"/>
<path d="M3.25915 13.4714H18.7405C19.1903 13.4714 19.5553 13.1164 19.5553 12.679V0.792435C19.5553 0.355011 19.1903 0 18.7405 0H3.25915C2.80937 0 2.44434 0.355011 2.44434 0.792435V12.679C2.44434 13.1164 2.80937 13.4714 3.25915 13.4714Z" fill="#4690FF"/>
</svg>
