<svg width="82" height="40" viewBox="0 0 82 40" fill="none" xmlns="http://www.w3.org/2000/svg">
<path fill-rule="evenodd" clip-rule="evenodd" d="M10.3969 39.7335C12.0623 40.2317 13.8365 40.0165 15.589 39.2126L12.465 38.2161C10.7017 39.0428 8.92741 39.2579 7.24023 38.7597L10.3969 39.7335ZM16.068 38.9748L12.944 37.9783C13.695 37.582 14.4352 37.0725 15.1536 36.4724L18.2885 37.4688C17.5701 38.0689 16.819 38.5785 16.068 38.9748ZM18.6368 37.1857C19.2029 36.6875 19.7689 36.1327 20.3131 35.5099L17.1782 34.5134C16.634 35.1249 16.0789 35.6911 15.502 36.1893L18.6368 37.1857ZM20.5852 35.1928L17.4504 34.1964C17.9184 33.6415 18.3756 33.0527 18.811 32.4299L21.9459 33.4264C21.5105 34.0492 21.0533 34.6493 20.5852 35.1928ZM22.1745 33.098C22.5663 32.5092 22.9473 31.8977 23.3174 31.2523L20.1716 30.2559C19.8015 30.9013 19.4206 31.5128 19.0287 32.1016L22.1745 33.098ZM23.5133 30.9126L20.3675 29.9162C20.705 29.3047 21.0206 28.6706 21.3363 28.0138L24.4821 29.0103C24.1664 29.6784 23.8507 30.3125 23.5133 30.9126ZM24.6345 28.6706C24.9175 28.0365 25.1896 27.3911 25.44 26.723L22.2942 25.7265C22.0438 26.3946 21.7717 27.04 21.4887 27.6741L24.6345 28.6706ZM25.5815 26.3606L22.4357 25.3642C22.6752 24.7188 22.8929 24.0507 23.0997 23.3713L26.2454 24.3677C26.0386 25.0585 25.8209 25.7152 25.5815 26.3606ZM26.3543 24.0054C26.3978 23.8582 26.4414 23.7223 26.474 23.5751C26.6264 23.0429 26.757 22.4994 26.8768 21.9672L23.731 20.9594C23.6113 21.503 23.4698 22.0465 23.3174 22.59C23.2847 22.7259 23.2412 22.8617 23.1976 22.9976L26.3543 24.0054ZM26.9747 21.5935L23.829 20.5858C23.9814 19.8837 24.112 19.193 24.2208 18.5023L27.3666 19.51C27.2578 20.2008 27.1271 20.9028 26.9747 21.5935ZM27.421 19.1364C27.5299 18.423 27.6061 17.7096 27.6605 17.0076L24.5038 15.9998C24.4494 16.7019 24.3732 17.4152 24.2644 18.1286L27.421 19.1364ZM27.6932 16.6113L24.5365 15.6035C24.5909 14.8675 24.6127 14.1315 24.6018 13.4181L27.7585 14.4259C27.7694 15.1506 27.7476 15.8753 27.6932 16.6113ZM27.7585 14.0296C27.7476 13.2596 27.704 12.5122 27.6278 11.7876L24.4712 10.7798C24.5474 11.5045 24.5909 12.2518 24.6018 13.0218L27.7585 14.0296ZM27.5843 11.3686L24.4277 10.3608C24.3297 9.54554 24.1991 8.77555 24.0249 8.02821L27.1816 9.03599C27.3557 9.78333 27.4863 10.5646 27.5843 11.3686ZM27.0836 8.60571C26.8659 7.72249 26.5829 6.89589 26.2563 6.13723L23.0888 5.12945C23.4153 5.88811 23.6875 6.71472 23.9161 7.59793L27.0836 8.60571ZM26.0495 5.67297L22.882 4.6652C22.3595 3.56684 21.7282 2.627 20.9989 1.85701L24.1882 2.87611C24.9066 3.63477 25.5379 4.58594 26.0495 5.67297ZM23.5351 2.26466C22.8276 1.66453 22.033 1.23424 21.173 0.973801L18.0164 0C18.8654 0.249113 19.6383 0.679395 20.3349 1.25688L23.5351 2.26466Z" fill="#252525"/>
<path fill-rule="evenodd" clip-rule="evenodd" d="M6.78328 36.6763C4.20354 35.895 2.37486 33.2454 1.51494 29.5993C0.633258 25.8513 0.774762 21.0728 2.14627 16.1472V16.1359C3.51778 11.2216 5.84717 7.09988 8.514 4.42759C11.1155 1.8119 14.0109 0.588985 16.6016 1.37029C19.1813 2.1516 21.01 4.80125 21.859 8.44736C22.7407 12.1954 22.5992 16.9738 21.2277 21.8994C19.8562 26.8251 17.5268 30.9354 14.86 33.6191C12.2693 36.2234 9.36303 37.4463 6.78328 36.6763ZM0.578833 29.8371C1.51494 33.8455 3.57221 36.7556 6.51116 37.6502C9.45011 38.5334 12.6938 37.2085 15.5348 34.3437C18.3105 31.5469 20.7487 27.278 22.1638 22.1712C23.5788 17.0757 23.7203 12.1161 22.806 8.20957C21.8699 4.20112 19.8126 1.29103 16.8737 0.396491L16.7866 0.373837C13.8694 -0.452765 10.6692 0.872065 7.85001 3.70289C5.07434 6.49975 2.6361 10.7686 1.22105 15.8754L1.19928 15.966C-0.194003 21.0162 -0.335507 25.9532 0.578833 29.8371Z" fill="#252525"/>
<path fill-rule="evenodd" clip-rule="evenodd" d="M7.58923 33.7767C5.37958 33.1086 3.82302 30.8666 3.09373 27.7754C2.36443 24.6501 2.47328 20.6757 3.6162 16.5879C4.75913 12.5002 6.69666 9.06926 8.9172 6.83857C11.116 4.63052 13.5869 3.60011 15.7965 4.25686C18.0062 4.92494 19.5627 7.16695 20.292 10.2582C21.0213 13.3834 20.9125 17.3579 19.7695 21.4456C18.6266 25.5333 16.6891 28.953 14.4686 31.195C12.2698 33.403 9.79889 34.4448 7.58923 33.7767ZM2.77806 27.8546C3.52913 31.0591 5.16188 33.3917 7.49127 34.0938C9.82066 34.7958 12.4004 33.7314 14.6863 31.4328C16.9503 29.1568 18.9205 25.6805 20.0743 21.5362L20.0852 21.5022C21.2281 17.3692 21.3479 13.3381 20.5968 10.1676C19.8457 6.96313 18.213 4.63053 15.8836 3.92848C13.5542 3.22644 10.9745 4.29083 8.68862 6.58946C6.42454 8.86544 4.45435 12.3417 3.30054 16.486C2.15762 20.6417 2.03788 24.6841 2.77806 27.8546Z" fill="#252525"/>
<path fill-rule="evenodd" clip-rule="evenodd" d="M13.6613 17.7662L17.1227 12.7613C17.2425 12.5914 17.3731 12.4556 17.5037 12.3763C17.6017 12.3197 17.6996 12.2857 17.7867 12.2857C17.8629 12.2857 17.9391 12.3084 17.9935 12.3537C18.048 12.3876 18.0915 12.4556 18.135 12.5348C18.2765 12.7839 18.3201 13.135 18.2765 13.5086C18.233 13.9049 18.0915 14.3126 17.8738 14.6296L12.932 21.7746L12.9102 21.8086L12.1265 22.8504L14.8804 21.6614C14.9457 21.6274 15.011 21.6161 15.0764 21.6161C15.1634 21.6161 15.2396 21.6501 15.3158 21.7067C15.4029 21.7746 15.4682 21.8766 15.5226 22.0124C15.5879 22.171 15.6206 22.3748 15.6315 22.6013C15.6315 23.0202 15.5226 23.4618 15.3376 23.8242C15.1634 24.1639 14.9348 24.4356 14.6845 24.5375L9.1658 26.9154C8.13173 27.357 7.8596 27.4816 7.17385 26.2926L5.87853 24.0167C5.49756 23.3599 5.37782 22.4201 5.49756 21.4463C5.60641 20.4498 5.96561 19.4307 6.52075 18.6154L7.58748 17.0642L10.3305 13.101C10.4611 12.9198 10.5917 12.7839 10.7332 12.6934C10.8421 12.6254 10.9401 12.5914 11.038 12.5914C11.1142 12.5914 11.2013 12.6141 11.2666 12.6594C11.321 12.7047 11.3755 12.7613 11.419 12.8406C11.4625 12.9311 11.5061 13.0217 11.5278 13.135C11.5496 13.2142 11.5605 13.3048 11.5714 13.3954L10.1672 15.4223L10.6897 15.8186L12.2027 13.6219C12.3333 13.4407 12.464 13.3048 12.6055 13.2142C12.7143 13.1463 12.8123 13.1123 12.9102 13.1123C12.9864 13.1123 13.0735 13.135 13.1388 13.1803C13.1932 13.2255 13.2477 13.2822 13.2912 13.3614C13.3456 13.452 13.3783 13.5539 13.4109 13.6785C13.4327 13.7804 13.4436 13.8823 13.4545 13.9955C13.411 14.0522 13.3674 14.0975 13.3348 14.1654L11.6802 16.5546L12.2027 16.9509L13.8572 14.5617C13.9879 14.3805 14.1185 14.2447 14.26 14.1541C14.3688 14.0861 14.4668 14.0522 14.5648 14.0522C14.641 14.0522 14.728 14.0748 14.7933 14.1201C14.8478 14.1654 14.9022 14.222 14.9457 14.3013C14.9784 14.3579 15.0002 14.4145 15.0219 14.4711C15.0328 14.4938 15.0437 14.5277 15.0437 14.5617L13.1279 17.3359L13.6613 17.7662ZM14.0532 13.5426C14.0096 13.3614 13.9443 13.2029 13.8681 13.0557C13.7702 12.8972 13.6613 12.7613 13.5307 12.6707C13.3456 12.5348 13.1388 12.4669 12.9211 12.4669C12.7143 12.4669 12.5075 12.5348 12.3007 12.6594C12.2354 12.6934 12.1809 12.7387 12.1156 12.7953C12.083 12.6934 12.0394 12.6028 11.9959 12.5235C11.8979 12.365 11.7891 12.2291 11.6585 12.1385C11.4734 12.0026 11.2666 11.9347 11.0489 11.9347C10.8421 11.9347 10.6353 12.0026 10.4285 12.1272C10.2216 12.2518 10.0148 12.4556 9.82979 12.716L7.48951 16.1017L6.02004 18.2305C5.38871 19.1363 4.99685 20.28 4.87711 21.3783C4.74649 22.4993 4.89888 23.5864 5.34517 24.3677L6.64048 26.6437C7.60925 28.3308 7.99022 28.1723 9.42704 27.5495L14.9457 25.1716C15.3376 25.0018 15.6859 24.6281 15.9254 24.1525C16.154 23.6996 16.2955 23.1448 16.2955 22.6126C16.2955 22.2955 16.241 22.0124 16.1431 21.7746C16.0451 21.5255 15.9036 21.333 15.7295 21.1972C15.5444 21.05 15.3267 20.9707 15.0872 20.9707C14.9457 20.9707 14.8042 21.0047 14.6518 21.0726L14.0749 21.3217L18.4072 15.0486C18.6902 14.6296 18.8752 14.1201 18.9296 13.6219C18.9841 13.101 18.9188 12.6028 18.7011 12.2178C18.614 12.0592 18.5051 11.9347 18.3745 11.8441C18.1895 11.7082 17.9935 11.6403 17.7758 11.6516C17.5799 11.6516 17.3731 11.7196 17.1663 11.8441C16.9595 11.9687 16.7635 12.1612 16.5894 12.4103L15.49 14.0069C15.4029 13.8597 15.2941 13.7351 15.1743 13.6445C14.9893 13.5086 14.7825 13.4407 14.5648 13.4407C14.3906 13.4067 14.2164 13.452 14.0532 13.5426Z" fill="#252525"/>
<path fill-rule="evenodd" clip-rule="evenodd" d="M28.0225 4.84673H74.6212C76.2213 4.84673 77.6799 5.52613 78.7357 6.62449C79.7916 7.72286 80.4447 9.24017 80.4447 10.9047V30.5619C80.4447 32.2265 79.7916 33.7438 78.7357 34.8422C77.6799 35.9405 76.2213 36.6199 74.6212 36.6199H23.0372L20.9473 37.8768H74.6212C76.5587 37.8768 78.3112 37.0502 79.5848 35.7254C80.8583 34.4006 81.6529 32.5662 81.6529 30.5619V10.9047C81.6529 8.88915 80.8583 7.0661 79.5848 5.74127C78.3112 4.41645 76.5479 3.58984 74.6212 3.58984H26.3353L28.0225 4.84673Z" fill="#252525"/>
<path fill-rule="evenodd" clip-rule="evenodd" d="M40.6577 12.354C40.6577 13.4184 40.3529 14.245 39.7543 14.8338C39.1447 15.4113 38.2848 15.7057 37.1745 15.7057H36.4779V18.8762H33.9961V9.30805H37.1745C38.3392 9.30805 39.21 9.56849 39.7869 10.1007C40.3638 10.6329 40.6577 11.3915 40.6577 12.354ZM36.467 13.5996H36.9242C37.2942 13.5996 37.599 13.4864 37.8167 13.2712C38.0344 13.0561 38.1433 12.7503 38.1433 12.3653C38.1433 11.7199 37.795 11.4029 37.1092 11.4029H36.467V13.5996ZM68.9587 16.9966C69.2853 16.9966 69.688 16.9173 70.1452 16.7475V18.6158C69.8186 18.763 69.503 18.8649 69.1982 18.9329C68.9043 19.0008 68.5451 19.0235 68.1423 19.0235C67.3151 19.0235 66.7164 18.8083 66.3572 18.3893C65.9871 17.9704 65.8129 17.3249 65.8129 16.4531V13.3958H64.953V12.354L66.0524 11.5501L66.6837 9.99877H68.2838V11.4821H70.0363V13.3958H68.2838V16.2832C68.2838 16.7588 68.5124 16.9966 68.9587 16.9966ZM46.2744 11.3462C46.4921 11.3462 46.688 11.3689 46.8839 11.4029L47.0254 11.4255L46.8077 13.8374C46.6118 13.7808 46.3288 13.7581 45.9696 13.7581C45.4362 13.7581 45.0444 13.8827 44.8049 14.1431C44.5654 14.4035 44.4348 14.7659 44.4348 15.2415V18.8876H41.9748V11.4821H43.8035L44.1845 12.6597H44.3042C44.511 12.2634 44.794 11.9464 45.1641 11.7086C45.5342 11.4595 45.9043 11.3462 46.2744 11.3462ZM54.5579 15.1622C54.5579 16.3738 54.2422 17.3136 53.6217 17.993C53.0013 18.6724 52.1196 19.0121 50.9876 19.0121C49.91 19.0121 49.0501 18.6611 48.4078 17.9704C47.7656 17.2797 47.45 16.3398 47.45 15.1622C47.45 13.9506 47.7656 13.0108 48.3861 12.3427C49.0174 11.6746 49.8882 11.3349 51.0202 11.3349C51.7169 11.3349 52.3373 11.4934 52.8707 11.7992C53.4041 12.1049 53.8177 12.5578 54.1116 13.1353C54.4164 13.7128 54.5579 14.3922 54.5579 15.1622ZM49.9426 15.1622C49.9426 15.7963 50.0188 16.2832 50.1821 16.6229C50.3454 16.9513 50.6175 17.1211 51.0093 17.1211C51.3903 17.1211 51.6625 16.9513 51.8148 16.6229C51.9672 16.2945 52.0434 15.8076 52.0434 15.1622C52.0434 14.5281 51.9672 14.0525 51.804 13.7355C51.6407 13.4071 51.3686 13.2486 50.9876 13.2486C50.6066 13.2486 50.3345 13.4071 50.1712 13.7241C50.0297 14.0412 49.9426 14.5281 49.9426 15.1622ZM63.7557 18.8876H61.2957V11.4821H63.7557V18.8876ZM61.2304 9.62511C61.2304 9.24012 61.3283 8.95702 61.5351 8.76453C61.742 8.57203 62.0685 8.48145 62.5257 8.48145C62.9828 8.48145 63.3203 8.57203 63.5271 8.76453C63.7339 8.95702 63.8428 9.24011 63.8428 9.61378C63.8428 10.3611 63.4074 10.7348 62.5257 10.7348C61.6658 10.7461 61.2304 10.3724 61.2304 9.62511ZM60.316 13.3958H58.803V18.8876H56.343V13.3958H55.396V12.1389L56.3865 11.5161V11.3915C56.3865 10.4177 56.5825 9.7157 56.9634 9.28541C57.3444 8.85513 57.9649 8.63997 58.803 8.63997C59.1296 8.63997 59.4452 8.66263 59.7282 8.71925C60.0221 8.77586 60.3596 8.86644 60.7405 8.99099L60.2072 10.6442C59.9024 10.5536 59.6085 10.5083 59.3255 10.5083C59.1404 10.5083 58.9989 10.5649 58.9119 10.6895C58.8248 10.814 58.7812 11.0066 58.7812 11.2783V11.4708H60.2943V13.3958H60.316Z" fill="#252525"/>
<path fill-rule="evenodd" clip-rule="evenodd" d="M38.2186 24.5606C37.6526 24.5606 37.2172 24.7984 36.9016 25.2853C36.5859 25.7722 36.4226 26.4289 36.4226 27.2782C36.4226 29.0333 37.0648 29.9165 38.3493 29.9165C38.7411 29.9165 39.1112 29.8599 39.4813 29.7466C39.8405 29.6334 40.2106 29.4975 40.5807 29.339V31.4338C39.8514 31.7735 39.0132 31.9434 38.088 31.9434C36.7601 31.9434 35.7477 31.5471 35.0402 30.7431C34.3327 29.9392 33.9844 28.7842 33.9844 27.2782C33.9844 26.3383 34.1585 25.5004 34.496 24.787C34.8334 24.0737 35.3341 23.5188 35.9763 23.1338C36.6185 22.7488 37.3805 22.5564 38.2404 22.5564C39.1874 22.5564 40.1017 22.7715 40.9617 23.2018L40.2324 25.1494C39.9058 24.9909 39.5793 24.855 39.2527 24.7531C38.9371 24.6172 38.5887 24.5606 38.2186 24.5606ZM44.5102 31.8075H42.159V22.0808H44.5102V31.8075ZM48.4941 31.8075H46.1429V24.7304H48.4941V31.8075ZM46.0885 22.964C46.0885 22.6016 46.1865 22.3186 46.3824 22.1487C46.5783 21.9675 46.894 21.877 47.3294 21.877C47.7648 21.877 48.0913 21.9675 48.2873 22.1487C48.4832 22.3299 48.592 22.6016 48.592 22.964C48.592 23.6774 48.1784 24.0397 47.3294 24.0397C46.5021 24.0397 46.0885 23.6774 46.0885 22.964ZM53.2399 31.9434C52.1297 31.9434 51.2806 31.6263 50.7037 31.0035C50.1268 30.3808 49.8438 29.4749 49.8438 28.3086C49.8438 27.131 50.1486 26.2251 50.7799 25.5797C51.4004 24.9342 52.2821 24.6059 53.425 24.6059C54.2196 24.6059 54.9598 24.787 55.6564 25.1381L54.9598 26.9498C54.6768 26.8252 54.4155 26.712 54.1761 26.6441C53.9366 26.5648 53.6862 26.5308 53.425 26.5308C53.044 26.5308 52.7501 26.6894 52.5433 26.9951C52.3365 27.3008 52.2276 27.7424 52.2276 28.2973C52.2276 29.4296 52.6304 29.9958 53.4359 29.9958C54.1216 29.9958 54.7856 29.7919 55.4169 29.373V31.3206C54.8074 31.7282 54.089 31.9434 53.2399 31.9434ZM59.0525 27.833C59.3355 27.3574 59.575 26.9951 59.7818 26.7347L61.3057 24.7304H63.929L61.567 27.7424L64.0814 31.8075H61.3928L59.9016 29.2711L59.1396 29.8825V31.8188H56.7776V22.0921H59.1396V25.9194C59.1396 26.5761 59.0961 27.2102 59.009 27.8443H59.0525V27.833ZM70.1443 29.6334C70.1443 30.3921 69.894 30.9696 69.4042 31.3546C68.9035 31.7395 68.1959 31.9321 67.2598 31.9321C66.7591 31.9321 66.3128 31.9094 65.9427 31.8415C65.5727 31.7848 65.1917 31.6829 64.7998 31.5357V29.5768C65.1699 29.7466 65.5618 29.8825 65.9972 29.9844C66.4326 30.0977 66.8244 30.143 67.1619 30.143C67.6735 30.143 67.9238 30.0184 67.9238 29.7806C67.9238 29.6561 67.8476 29.5428 67.7061 29.4522C67.5646 29.3503 67.151 29.1578 66.4652 28.8748C65.8448 28.603 65.4094 28.3086 65.159 27.9689C64.9087 27.6292 64.7889 27.1989 64.7889 26.678C64.7889 26.0213 65.0393 25.5117 65.5182 25.1381C66.008 24.7757 66.6938 24.5832 67.5864 24.5832C68.0327 24.5832 68.4572 24.6398 68.849 24.7418C69.2409 24.8437 69.6545 24.9909 70.079 25.1834L69.4477 26.7573C69.132 26.6101 68.8055 26.4855 68.4572 26.3836C68.1089 26.2817 67.8258 26.2251 67.6081 26.2251C67.2272 26.2251 67.0312 26.327 67.0312 26.5195C67.0312 26.6441 67.0965 26.746 67.2272 26.8252C67.3578 26.9158 67.7497 27.0857 68.3919 27.3461C68.8708 27.5499 69.2191 27.7537 69.4586 27.9462C69.6981 28.1387 69.8722 28.3765 69.9702 28.637C70.0899 28.9314 70.1443 29.2597 70.1443 29.6334Z" fill="#252525"/>
</svg>
