<svg width="24" height="24" viewBox="0 0 24 24" fill="none" xmlns="http://www.w3.org/2000/svg">
<path fill-rule="evenodd" clip-rule="evenodd" d="M19.7775 1H4.2224C2.98871 1 2 1.94325 2 3.09551V17.7622C2 18.9144 2.98871 19.8568 4.22244 19.8568H8.66636L12 23L15.3327 19.8568H19.7776C20.9996 19.8568 22 18.9144 22 17.7622V3.09551C22 1.94325 20.9996 1 19.7775 1ZM13.1112 17.7621H10.8888V15.6666H13.1112V17.7621ZM15.4104 9.64323L14.411 10.6066C13.6109 11.3711 13.1112 12 13.1112 13.5711H10.8888V13.0477C10.8888 11.8955 11.3885 10.8477 12.1886 10.0832L13.5662 8.76324C13.9764 8.38557 14.2224 7.86309 14.2224 7.28648C14.2224 6.13423 13.221 5.19097 12 5.19097C10.7779 5.19097 9.77751 6.13423 9.77751 7.28648H7.55604C7.55604 4.97192 9.54514 3.09639 12 3.09639C14.4548 3.09639 16.4439 4.97187 16.4439 7.28648C16.4439 8.20774 16.0443 9.04559 15.4104 9.64323Z" fill="#596982"/>
</svg>
