<svg width="22" height="22" viewBox="0 0 22 22" fill="none" xmlns="http://www.w3.org/2000/svg">
<path d="M21.1538 8.46154H19.0672C18.9183 7.98981 18.7283 7.53162 18.4982 7.09162L19.9743 5.61508C20.3047 5.28465 20.3047 4.74904 19.9743 4.41862L17.581 2.02527C17.2637 1.70796 16.7018 1.70796 16.3845 2.02527L14.908 3.50181C14.468 3.27165 14.0102 3.08127 13.5385 2.93277V0.846154C13.5385 0.379077 13.1594 0 12.6923 0H9.30769C8.84062 0 8.46154 0.379077 8.46154 0.846154V2.93277C7.98939 3.08127 7.53162 3.27123 7.09162 3.50181L5.6155 2.02569C5.28508 1.69527 4.74946 1.69527 4.41904 2.02569L2.02569 4.41862C1.86704 4.57727 1.77777 4.79262 1.77777 5.01727C1.77777 5.2415 1.86662 5.45685 2.02569 5.6155L3.50181 7.09162C3.27123 7.53204 3.08127 7.99023 2.93277 8.46196H0.846154C0.379077 8.46196 0 8.84104 0 9.30812V12.6927C0 13.1598 0.379077 13.5389 0.846154 13.5389H2.93235C3.08127 14.011 3.27123 14.4688 3.50181 14.9088L2.02527 16.3853C1.86662 16.544 1.77735 16.7593 1.77735 16.9836C1.77735 17.2078 1.86662 17.4232 2.02527 17.5818L4.41862 19.9747C4.74904 20.3052 5.28508 20.3052 5.61508 19.9747L7.09162 18.4986C7.53162 18.7288 7.98939 18.9187 8.46112 19.0677V21.1538C8.46112 21.6209 8.84019 22 9.30727 22H12.6919C13.159 22 13.538 21.6209 13.538 21.1538V19.0668C14.0098 18.9179 14.4675 18.7279 14.9075 18.4978L16.3845 19.9743C16.7018 20.2916 17.2637 20.2916 17.581 19.9743L19.9739 17.581C20.3043 17.2505 20.3043 16.7149 19.9739 16.3845L18.4973 14.908C18.7275 14.468 18.9175 14.0102 19.0664 13.5385H21.1538C21.6209 13.5385 22 13.1594 22 12.6923V9.30769C22 8.84062 21.6209 8.46154 21.1538 8.46154ZM11 16.0769C8.2005 16.0769 5.92308 13.7991 5.92308 11C5.92308 8.2005 8.2005 5.92308 11 5.92308C13.7995 5.92308 16.0769 8.2005 16.0769 11C16.0769 13.7991 13.7991 16.0769 11 16.0769Z" fill="#12284C"/>
<path d="M11.0006 8.53809C9.64306 8.53809 8.53906 9.64239 8.53906 10.9996C8.53906 12.3569 9.64337 13.4612 11.0006 13.4612C12.3578 13.4612 13.4621 12.3569 13.4621 10.9996C13.4621 9.64239 12.3578 8.53809 11.0006 8.53809Z" fill="#12284C"/>
</svg>
