<svg width="24" height="24" viewBox="0 0 24 24" fill="none" xmlns="http://www.w3.org/2000/svg">
<path fill-rule="evenodd" clip-rule="evenodd" d="M22.56 15.3333H20.36V12C20.36 11.7371 20.1633 11.5238 19.92 11.5238H12.44V8.66667H14.64C14.8833 8.66667 15.08 8.45333 15.08 8.19048V2.47619C15.08 2.21333 14.8833 2 14.64 2H9.36C9.11712 2 8.92 2.21333 8.92 2.47619V8.19048C8.92 8.45333 9.11712 8.66667 9.36 8.66667H11.56V11.5238H4.08C3.83712 11.5238 3.64 11.7371 3.64 12V15.3333H1.44C1.19712 15.3333 1 15.5462 1 15.8095V21.5238C1 21.7871 1.19712 22 1.44 22H6.72C6.96288 22 7.16 21.7871 7.16 21.5238V15.8095C7.16 15.5462 6.96288 15.3333 6.72 15.3333H4.52V12.4762H11.56V15.3333H9.36C9.11712 15.3333 8.92 15.5462 8.92 15.8095V21.5238C8.92 21.7871 9.11712 22 9.36 22H14.64C14.8833 22 15.08 21.7871 15.08 21.5238V15.8095C15.08 15.5462 14.8833 15.3333 14.64 15.3333H12.44V12.4762H19.48V15.3333H17.28C17.0367 15.3333 16.84 15.5462 16.84 15.8095V21.5238C16.84 21.7871 17.0367 22 17.28 22H22.56C22.8033 22 23 21.7871 23 21.5238V15.8095C23 15.5462 22.8033 15.3333 22.56 15.3333Z" fill="#596982"/>
</svg>
