<svg width="24" height="24" viewBox="0 0 24 24" fill="none" xmlns="http://www.w3.org/2000/svg">
<path d="M7.85387 6.14482C7.85387 5.76546 8.17174 5.45793 8.56385 5.45793H22.29C22.6821 5.45793 23 5.76546 23 6.14482C23 6.52418 22.6821 6.83172 22.29 6.83172H8.56385C8.17174 6.83172 7.85387 6.52418 7.85387 6.14482Z" fill="#596982"/>
<path d="M7.85387 8.8924C7.85387 8.51304 8.17174 8.20551 8.56385 8.20551H19.9234C20.3156 8.20551 20.6334 8.51304 20.6334 8.8924C20.6334 9.27176 20.3156 9.57929 19.9234 9.57929H8.56385C8.17174 9.57929 7.85387 9.27176 7.85387 8.8924Z" fill="#596982"/>
<path d="M7.85387 11.64C7.85387 11.2606 8.17174 10.9531 8.56385 10.9531H15.6636C16.0557 10.9531 16.3736 11.2606 16.3736 11.64C16.3736 12.0193 16.0557 12.3269 15.6636 12.3269H8.56385C8.17174 12.3269 7.85387 12.0193 7.85387 11.64Z" fill="#596982"/>
<path d="M7.85387 14.3876C7.85387 14.0082 8.17174 13.7007 8.56385 13.7007H11.8771C12.2692 13.7007 12.587 14.0082 12.587 14.3876C12.587 14.7669 12.2692 15.0744 11.8771 15.0744H8.56385C8.17174 15.0744 7.85387 14.7669 7.85387 14.3876Z" fill="#596982"/>
<path d="M3.12071 5.68689C3.12071 5.30753 3.43858 5 3.83068 5C4.22279 5 4.54066 5.30753 4.54066 5.68689V15.7613C4.54066 16.1407 4.22279 16.4482 3.83068 16.4482C3.43858 16.4482 3.12071 16.1407 3.12071 15.7613V5.68689Z" fill="#596982"/>
<path d="M4.16848 18.8628C3.98295 19.0457 3.67842 19.0457 3.49289 18.8628L1.13647 16.54C0.842582 16.2503 1.05471 15.7613 1.47426 15.7613L6.1871 15.7613C6.60666 15.7613 6.81878 16.2503 6.5249 16.54L4.16848 18.8628Z" fill="#596982"/>
</svg>
