<svg width="24" height="24" viewBox="0 0 24 24" fill="none" xmlns="http://www.w3.org/2000/svg">
<path fill-rule="evenodd" clip-rule="evenodd" d="M23 20.25V23H1V20.25H23ZM7.875 13.375C7.875 12.6153 7.25969 12 6.5 12H3.75C2.99031 12 2.375 12.6153 2.375 13.375V18.875H7.875V13.375ZM14.75 7.875C14.75 7.11531 14.1347 6.5 13.375 6.5H10.625C9.86531 6.5 9.25 7.11531 9.25 7.875V18.875H14.75V7.875ZM21.625 2.375C21.625 1.61531 21.0097 1 20.25 1H17.5C16.7403 1 16.125 1.61531 16.125 2.375V18.875H21.625V2.375Z" fill="#596982"/>
</svg>
