<svg width="65" height="64" viewBox="0 0 65 64" fill="none" xmlns="http://www.w3.org/2000/svg">
<path d="M32.4988 2.66675C16.3239 2.66675 3.16602 15.8257 3.16602 32.0001C3.16602 48.1745 16.3239 61.3334 32.4988 61.3334C48.6736 61.3334 61.8327 48.1745 61.8327 32.0001C61.8327 15.8257 48.6736 2.66675 32.4988 2.66675ZM32.4988 57.4863C18.4457 57.4863 7.01308 46.0531 7.01308 32.0001C7.01308 17.9469 18.4456 6.51396 32.4988 6.51396C46.5519 6.51396 57.9852 17.9471 57.9852 32.0001C57.9853 46.0531 46.5518 57.4863 32.4988 57.4863Z" fill="#95BD5A"/>
<path d="M43.1197 22.3972L27.9938 37.5223L21.8794 31.4092C21.128 30.6587 19.9108 30.6583 19.1595 31.4097C18.4078 32.1613 18.4078 33.3787 19.1595 34.13L26.634 41.6034C27.0096 41.9786 27.5017 42.1663 27.9938 42.1663C28.4859 42.1663 28.9792 41.9786 29.3547 41.6028C29.3559 41.6012 29.3568 41.5996 29.3587 41.5977L45.8395 25.1171C46.5911 24.3662 46.5911 23.1479 45.8395 22.397C45.0882 21.6456 43.8702 21.6456 43.1197 22.3972Z" fill="#95BD5A"/>
</svg>
