<svg width="24" height="24" viewBox="0 0 24 24" fill="none" xmlns="http://www.w3.org/2000/svg">
<path d="M12 23C18.0751 23 23 18.0751 23 12C23 5.92487 18.0751 1 12 1C5.92487 1 1 5.92487 1 12C1 18.0751 5.92487 23 12 23Z" fill="#596982"/>
<path d="M10.9309 13.602L15.902 17.3552L18.4114 6.64355L5.58691 11.6881L9.48925 12.9807L16.6111 8.20351L10.9309 13.602Z" fill="white"/>
<path d="M9.48926 12.9812L10.558 16.8272L10.9309 13.6026L16.6111 8.2041L9.48926 12.9812Z" fill="#D2D2D7"/>
<path d="M12.5471 14.8233L10.5586 16.8281L10.9314 13.6035L12.5471 14.8233Z" fill="#B9B9BE"/>
</svg>
