<svg width="24" height="24" viewBox="0 0 24 24" fill="none" xmlns="http://www.w3.org/2000/svg">
<path fill-rule="evenodd" clip-rule="evenodd" d="M23.8666 7.83081L21.9421 5.90622C21.772 5.73612 21.4709 5.73612 21.3008 5.90622C20.8726 6.33441 20.3029 6.57028 19.6974 6.57028C19.0914 6.57028 18.5217 6.33441 18.0935 5.90622C17.2095 5.02217 17.2095 3.58292 18.0935 2.69887C18.2709 2.52152 18.2709 2.23485 18.0935 2.05749L16.1695 0.132902C16.0842 0.0476271 15.9695 0 15.8488 0C15.7282 0 15.6129 0.0476271 15.5281 0.132902L12.3209 3.34025C12.2356 3.42553 12.188 3.54074 12.188 3.66094V4.49056H11.3589C11.2387 4.49056 11.123 4.53819 11.0382 4.62346L0.132897 15.5283C0.0476253 15.6135 0 15.7283 0 15.849C0 15.9696 0.0476253 16.0848 0.132897 16.1696L2.05742 18.0938C2.23476 18.2711 2.52142 18.2711 2.69877 18.0938C3.12694 17.6656 3.69663 17.4297 4.30261 17.4297C4.90859 17.4297 5.47782 17.6656 5.90645 18.0938C6.33508 18.522 6.57048 19.0917 6.57048 19.6977C6.57048 20.3032 6.33462 20.8729 5.90645 21.3011C5.82118 21.3864 5.77355 21.5012 5.77355 21.6218C5.77355 21.7425 5.82118 21.8577 5.90645 21.9425L7.83097 23.8671C7.91624 23.9524 8.03145 24 8.15164 24C8.27184 24 8.3875 23.9524 8.47232 23.8671L19.3772 12.9618C19.4624 12.8766 19.5101 12.7618 19.5101 12.6412V11.812H20.3392C20.4598 11.812 20.5751 11.7644 20.6599 11.6791L23.8671 8.47174C23.9524 8.38646 24 8.27125 24 8.15105C24 8.03084 23.9519 7.91563 23.8666 7.83081ZM6.86848 15.0198C6.75237 15.0198 6.63625 14.9753 6.5478 14.8869C6.37046 14.7095 6.37046 14.4229 6.5478 14.2455L11.0377 9.75495C11.2151 9.57759 11.5017 9.57759 11.6791 9.75495C11.8564 9.9323 11.8564 10.219 11.6791 10.3963L7.18916 14.8869C7.10026 14.9758 6.98414 15.0198 6.86848 15.0198ZM11.6791 15.5283L9.75458 17.4524C9.66613 17.5409 9.55002 17.5853 9.4339 17.5853C9.31779 17.5853 9.20167 17.5409 9.11322 17.4524C8.93588 17.275 8.93588 16.9884 9.11322 16.811L11.0377 14.8869C11.2151 14.7095 11.5017 14.7095 11.6791 14.8869C11.8564 15.0642 11.8564 15.3514 11.6791 15.5283ZM12.9618 11.6795L8.47187 16.1696C8.38342 16.2581 8.26731 16.3025 8.15119 16.3025C8.03508 16.3025 7.91896 16.2581 7.83051 16.1696C7.65317 15.9923 7.65317 15.7056 7.83051 15.5283L12.3204 11.0382C12.4978 10.8608 12.7845 10.8608 12.9618 11.0382C13.1392 11.2155 13.1392 11.5022 12.9618 11.6795ZM15.5277 7.83081C15.4392 7.91926 15.3231 7.96371 15.207 7.96371C15.0909 7.96371 14.9748 7.91926 14.8863 7.83081L13.6032 6.5476C13.4258 6.3707 13.4258 6.08357 13.6032 5.90622C13.7805 5.72887 14.0672 5.72887 14.2445 5.90622L15.5277 7.18943C15.705 7.36633 15.705 7.65346 15.5277 7.83081ZM18.0432 10.4467C17.9557 10.5288 17.8445 10.5696 17.7325 10.5696C17.6114 10.5696 17.4912 10.5215 17.4018 10.4267L16.1591 9.10359C15.9871 8.92124 15.9967 8.63412 16.179 8.46221C16.3623 8.29121 16.6489 8.29982 16.8199 8.48217L18.0627 9.80529C18.2351 9.98764 18.226 10.2748 18.0432 10.4467Z" fill="#596982"/>
</svg>
