<svg width="328" height="228" viewBox="0 0 328 228" fill="none" xmlns="http://www.w3.org/2000/svg">
<g clip-path="url(#clip0)">
<path d="M153.369 100.433C153.369 144.634 127.092 160.067 94.6777 160.067C62.2634 160.067 35.9863 144.634 35.9863 100.433C35.9863 56.2311 94.6777 0 94.6777 0C94.6777 0 153.369 56.2311 153.369 100.433Z" fill="#F2F2F2"/>
<path d="M92.5394 153.306L93.1406 116.313L118.156 70.5483L93.2348 110.51L93.505 93.877L110.746 60.7665L93.5764 89.4753L94.0623 59.5594L112.524 33.1992L94.139 54.8551L94.4425 0L92.5341 72.6183L92.691 69.6225L73.9209 40.8917L92.3901 75.3732L90.6412 108.784L90.5891 107.897L68.9502 77.6624L90.5235 111.03L90.3049 115.209L90.2657 115.271L90.2835 115.614L85.8464 200.381H91.7748L92.4861 156.597L114.006 123.311L92.5394 153.306Z" fill="#596982"/>
<path d="M328 118.536C328 154.717 306.491 167.35 279.959 167.35C253.426 167.35 231.917 154.717 231.917 118.536C231.917 82.355 279.959 36.3271 279.959 36.3271C279.959 36.3271 328 82.355 328 118.536Z" fill="#F2F2F2"/>
<path d="M278.208 161.815L278.7 131.535L299.177 94.0744L278.777 126.785L278.999 113.17L293.111 86.0672L279.057 109.567L279.455 85.0794L294.567 63.5022L279.517 81.2289L279.766 36.3271L278.204 95.7686L278.333 93.3166L262.968 69.7988L278.086 98.0238L276.654 125.372L276.612 124.646L258.899 99.8974L276.558 127.211L276.379 130.631L276.347 130.682L276.362 130.963L272.73 200.348H277.582L278.165 164.509L295.78 137.263L278.208 161.815Z" fill="#596982"/>
<path d="M162.33 207.384C251.983 207.384 324.661 203.71 324.661 199.178C324.661 194.646 251.983 190.972 162.33 190.972C72.6778 190.972 0 194.646 0 199.178C0 203.71 72.6778 207.384 162.33 207.384Z" fill="#596982"/>
<path d="M261.22 214.14C276.576 214.14 289.024 213.511 289.024 212.735C289.024 211.959 276.576 211.33 261.22 211.33C245.865 211.33 233.417 211.959 233.417 212.735C233.417 213.511 245.865 214.14 261.22 214.14Z" fill="#596982"/>
<path d="M160.612 227.698C175.967 227.698 188.415 227.069 188.415 226.293C188.415 225.516 175.967 224.887 160.612 224.887C145.257 224.887 132.809 225.516 132.809 226.293C132.809 227.069 145.257 227.698 160.612 227.698Z" fill="#596982"/>
<path d="M84.2813 218.136C119.363 218.136 147.802 216.699 147.802 214.925C147.802 213.152 119.363 211.714 84.2813 211.714C49.1999 211.714 20.7607 213.152 20.7607 214.925C20.7607 216.699 49.1999 218.136 84.2813 218.136Z" fill="#596982"/>
<path d="M28.4165 188.872C41.1872 188.872 51.5399 178.519 51.5399 165.749C51.5399 152.978 41.1872 142.625 28.4165 142.625C15.6457 142.625 5.29297 152.978 5.29297 165.749C5.29297 178.519 15.6457 188.872 28.4165 188.872Z" fill="#2F2E41"/>
<path d="M24.6904 183.853L17.666 183.771L17.5177 196.356L24.5421 196.439L24.6904 183.853Z" fill="#2F2E41"/>
<path d="M38.7392 184.019L31.7148 183.936L31.5665 196.521L38.5909 196.604L38.7392 184.019Z" fill="#2F2E41"/>
<path d="M29.2234 196.64C29.2377 195.428 26.6285 194.414 23.3956 194.376C20.1627 194.338 17.5304 195.29 17.5161 196.502C17.5018 197.714 20.111 198.728 23.3439 198.766C26.5768 198.804 29.2091 197.852 29.2234 196.64Z" fill="#2F2E41"/>
<path d="M43.2761 196.513C43.2904 195.301 40.6812 194.287 37.4483 194.249C34.2155 194.211 31.5831 195.163 31.5688 196.375C31.5545 197.588 34.1637 198.601 37.3966 198.639C40.6295 198.677 43.2618 197.725 43.2761 196.513Z" fill="#2F2E41"/>
<path d="M29.0709 167.804C33.4356 167.804 36.9739 164.266 36.9739 159.901C36.9739 155.537 33.4356 151.999 29.0709 151.999C24.7062 151.999 21.168 155.537 21.168 159.901C21.168 164.266 24.7062 167.804 29.0709 167.804Z" fill="white"/>
<path d="M29.0708 162.536C30.5257 162.536 31.7052 161.357 31.7052 159.902C31.7052 158.447 30.5257 157.268 29.0708 157.268C27.6159 157.268 26.4365 158.447 26.4365 159.902C26.4365 161.357 27.6159 162.536 29.0708 162.536Z" fill="#3F3D56"/>
<path d="M6.24095 143.981C4.47248 135.598 10.54 127.22 19.7932 125.268C29.0464 123.316 37.9812 128.529 39.7497 136.913C41.5181 145.296 35.3655 148.308 26.1123 150.26C16.8591 152.212 8.00941 152.365 6.24095 143.981Z" fill="#A0A9B7"/>
<path d="M63.6896 178.649C63.6896 194.77 54.1065 200.399 42.2842 200.399C42.0104 200.399 41.7369 200.396 41.4639 200.389C40.9162 200.378 40.3736 200.352 39.8376 200.315C29.1682 199.56 20.8789 193.642 20.8789 178.649C20.8789 163.133 40.7062 143.555 42.1955 142.106L42.1981 142.103C42.2555 142.047 42.2842 142.02 42.2842 142.02C42.2842 142.02 63.6896 162.528 63.6896 178.649Z" fill="#A0A9B7"/>
<path d="M41.504 197.932L49.3329 186.992L41.4844 199.133L41.4636 200.389C40.9158 200.377 40.3733 200.351 39.8373 200.315L40.6811 184.186L40.6746 184.061L40.6889 184.037L40.7685 182.514L32.9004 170.343L40.7932 181.372L40.8115 181.695L41.4492 169.509L34.7132 156.933L41.5314 167.37L42.1952 142.106L42.1978 142.02V142.103L42.087 162.026L48.793 154.127L42.0596 163.742L41.8822 174.652L48.1435 164.181L41.8561 176.258L41.757 182.324L50.8471 167.749L41.7231 184.44L41.504 197.932Z" fill="#596982"/>
<path d="M208.546 188.622C221.317 188.622 231.67 178.269 231.67 165.499C231.67 152.728 221.317 142.375 208.546 142.375C195.776 142.375 185.423 152.728 185.423 165.499C185.423 178.269 195.776 188.622 208.546 188.622Z" fill="#2F2E41"/>
<path d="M210.52 183.877L203.805 185.941L207.502 197.972L214.217 195.908L210.52 183.877Z" fill="#2F2E41"/>
<path d="M223.949 179.751L217.234 181.815L220.932 193.846L227.647 191.782L223.949 179.751Z" fill="#2F2E41"/>
<path d="M213.786 198.49C216.876 197.541 219.093 195.831 218.737 194.672C218.381 193.513 215.587 193.344 212.496 194.293C209.406 195.243 207.189 196.953 207.545 198.112C207.901 199.27 210.695 199.44 213.786 198.49Z" fill="#2F2E41"/>
<path d="M227.13 194.083C230.22 193.133 232.437 191.424 232.081 190.265C231.724 189.106 228.93 188.936 225.84 189.886C222.749 190.836 220.533 192.545 220.889 193.704C221.245 194.863 224.039 195.033 227.13 194.083Z" fill="#2F2E41"/>
<path d="M207.386 167.634C211.751 167.634 215.289 164.096 215.289 159.731C215.289 155.366 211.751 151.828 207.386 151.828C203.022 151.828 199.483 155.366 199.483 159.731C199.483 164.096 203.022 167.634 207.386 167.634Z" fill="white"/>
<path d="M207.386 162.365C208.841 162.365 210.021 161.186 210.021 159.731C210.021 158.276 208.841 157.097 207.386 157.097C205.931 157.097 204.752 158.276 204.752 159.731C204.752 161.186 205.931 162.365 207.386 162.365Z" fill="#3F3D56"/>
<path d="M180.788 151.532C176.547 144.088 179.77 134.258 187.987 129.576C196.204 124.895 206.303 127.135 210.544 134.58C214.786 142.024 209.845 146.769 201.628 151.45C193.411 156.131 185.029 158.976 180.788 151.532Z" fill="#A0A9B7"/>
<path d="M167.307 175.696C167.307 190.495 158.51 195.662 147.658 195.662C147.406 195.662 147.155 195.659 146.905 195.653C146.402 195.642 145.904 195.618 145.412 195.585C135.618 194.892 128.009 189.459 128.009 175.696C128.009 161.454 146.209 143.482 147.576 142.152L147.579 142.149C147.632 142.098 147.658 142.073 147.658 142.073C147.658 142.073 167.307 160.898 167.307 175.696Z" fill="#A0A9B7"/>
<path d="M146.942 193.398L154.128 183.356L146.924 194.5L146.905 195.653C146.402 195.642 145.904 195.618 145.412 195.585L146.186 180.78L146.18 180.665L146.193 180.643L146.266 179.245L139.044 168.073L146.289 178.196L146.306 178.493L146.891 167.307L140.708 155.762L146.967 165.343L147.576 142.152L147.579 142.073V142.149L147.477 160.437L153.633 153.187L147.452 162.013L147.289 172.028L153.036 162.416L147.265 173.502L147.174 179.07L155.518 165.692L147.143 181.013L146.942 193.398Z" fill="#596982"/>
<path d="M244.58 181.869C244.58 197.989 234.997 203.618 223.175 203.618C222.901 203.618 222.628 203.615 222.355 203.609C221.807 203.597 221.264 203.571 220.728 203.535C210.059 202.78 201.77 196.861 201.77 181.869C201.77 166.353 221.597 146.775 223.086 145.326L223.089 145.323C223.146 145.267 223.175 145.24 223.175 145.24C223.175 145.24 244.58 165.748 244.58 181.869Z" fill="#A0A9B7"/>
<path d="M222.395 201.152L230.224 190.212L222.375 202.353L222.354 203.609C221.806 203.597 221.264 203.571 220.728 203.534L221.572 187.406L221.565 187.28L221.58 187.257L221.659 185.734L213.791 173.563L221.684 184.591L221.702 184.915L222.34 172.729L215.604 160.152L222.422 170.59L223.086 145.325L223.088 145.239V145.323L222.978 165.245L229.684 157.347L222.95 166.962L222.773 177.872L229.034 167.401L222.747 179.478L222.648 185.543L231.738 170.969L222.614 187.66L222.395 201.152Z" fill="#596982"/>
<path d="M210.015 179.341C210.874 177.53 206.893 173.843 201.124 171.107C195.354 168.371 189.981 167.621 189.122 169.432C188.263 171.243 192.243 174.93 198.013 177.666C203.782 180.402 209.155 181.152 210.015 179.341Z" fill="#2F2E41"/>
<path d="M32.0444 177.224C32.7902 175.363 28.59 171.929 22.663 169.554C16.736 167.178 11.3266 166.761 10.5808 168.621C9.83505 170.482 14.0353 173.916 19.9623 176.292C25.8893 178.667 31.2986 179.085 32.0444 177.224Z" fill="#2F2E41"/>
</g>
<defs>
<clipPath id="clip0">
<rect width="328" height="227.698" fill="white"/>
</clipPath>
</defs>
</svg>
