<svg width="34" height="28" viewBox="0 0 34 28" fill="none" xmlns="http://www.w3.org/2000/svg">
<mask id="mask0" mask-type="alpha" maskUnits="userSpaceOnUse" x="1" y="2" width="32" height="24">
<rect x="1" y="2" width="32" height="24" rx="1" fill="white"/>
</mask>
<g mask="url(#mask0)">
<path d="M1.87598 2C1.32369 2 0.875977 2.44772 0.875977 3V25C0.875977 25.5523 1.32369 26 1.87598 26H31.876C32.4283 26 32.876 25.5523 32.876 25V3C32.876 2.44772 32.4283 2 31.876 2H1.87598Z" fill="#012169"/>
<path d="M0.875977 2L32.876 26L0.875977 2ZM32.876 2L0.875977 26L32.876 2Z" fill="black"/>
<path fill-rule="evenodd" clip-rule="evenodd" d="M12.2313 14.8001C12.7647 14.4001 12.7647 13.6001 12.2313 13.2001L0.736765 4.57922C0.39242 4.32096 0.251967 3.87133 0.388081 3.46299L1.1525 1.16974C1.36834 0.522211 2.15514 0.276436 2.70118 0.685969L16.2757 10.8669C16.6313 11.1335 17.1202 11.1335 17.4757 10.8669L31.0503 0.685969C31.5963 0.276435 32.3831 0.522211 32.599 1.16974L33.3634 3.46299C33.4995 3.87134 33.359 4.32096 33.0147 4.57922L21.5201 13.2001C20.9868 13.6001 20.9868 14.4001 21.5201 14.8001L33.0147 23.4211C33.359 23.6793 33.4995 24.1289 33.3634 24.5373L32.599 26.8305C32.3831 27.4781 31.5963 27.7238 31.0503 27.3143L17.4757 17.1334C17.1202 16.8668 16.6313 16.8668 16.2757 17.1334L2.70118 27.3143C2.15514 27.7238 1.36834 27.4781 1.1525 26.8305L0.388081 24.5373C0.251967 24.1289 0.39242 23.6793 0.736765 23.4211L12.2313 14.8001Z" fill="white"/>
<path d="M0.875977 2L32.876 26L0.875977 2ZM32.876 2L0.875977 26L32.876 2Z" fill="black"/>
<path fill-rule="evenodd" clip-rule="evenodd" d="M13.4237 14.8004C13.957 14.4004 13.957 13.6004 13.4237 13.2004L0.975045 3.86396C0.630701 3.6057 0.490247 3.15607 0.626361 2.74773L0.913751 1.88556C1.12959 1.23803 1.91639 0.992258 2.46244 1.40179L16.2755 11.7616C16.631 12.0282 17.1199 12.0282 17.4755 11.7616L31.2885 1.40179C31.8345 0.992257 32.6213 1.23803 32.8372 1.88556L33.1246 2.74773C33.2607 3.15607 33.1202 3.6057 32.7759 3.86396L20.3273 13.2004C19.7939 13.6004 19.7939 14.4004 20.3273 14.8004L32.7759 24.1369C33.1202 24.3951 33.2607 24.8448 33.1246 25.2531L32.8372 26.1153C32.6213 26.7628 31.8345 27.0086 31.2885 26.599L17.4755 16.2393C17.1199 15.9726 16.631 15.9726 16.2755 16.2393L2.46243 26.599C1.91639 27.0086 1.12959 26.7628 0.913751 26.1153L0.626362 25.2531C0.490248 24.8448 0.6307 24.3951 0.975044 24.1369L13.4237 14.8004Z" fill="#C8102E"/>
<path d="M16.876 2V26V2ZM0.875977 14H32.876H0.875977Z" fill="black"/>
<path fill-rule="evenodd" clip-rule="evenodd" d="M20.5426 18C19.9904 18 19.5426 18.4477 19.5426 19V25C19.5426 25.5523 19.0949 26 18.5426 26H15.2093C14.657 26 14.2093 25.5523 14.2093 25V19C14.2093 18.4477 13.7616 18 13.2093 18H1.87598C1.32369 18 0.875977 17.5523 0.875977 17V11C0.875977 10.4477 1.32369 10 1.87598 10H13.2093C13.7616 10 14.2093 9.55228 14.2093 9V3C14.2093 2.44772 14.657 2 15.2093 2H18.5426C19.0949 2 19.5426 2.44772 19.5426 3V9C19.5426 9.55228 19.9904 10 20.5426 10H31.876C32.4283 10 32.876 10.4477 32.876 11V17C32.876 17.5523 32.4283 18 31.876 18H20.5426Z" fill="white"/>
<path d="M16.876 2V26V2ZM0.875977 14H32.876H0.875977Z" fill="black"/>
<path fill-rule="evenodd" clip-rule="evenodd" d="M19.476 16.4C18.9237 16.4 18.476 16.8477 18.476 17.4V25C18.476 25.5523 18.0283 26 17.476 26H16.276C15.7237 26 15.276 25.5523 15.276 25V17.4C15.276 16.8477 14.8283 16.4 14.276 16.4H1.87598C1.32369 16.4 0.875977 15.9523 0.875977 15.4V12.6C0.875977 12.0477 1.32369 11.6 1.87598 11.6H14.276C14.8283 11.6 15.276 11.1523 15.276 10.6V3C15.276 2.44772 15.7237 2 16.276 2H17.476C18.0283 2 18.476 2.44771 18.476 3V10.6C18.476 11.1523 18.9237 11.6 19.476 11.6H31.876C32.4283 11.6 32.876 12.0477 32.876 12.6V15.4C32.876 15.9523 32.4283 16.4 31.876 16.4H19.476Z" fill="#C8102E"/>
</g>
</svg>
