<svg width="22" height="22" viewBox="0 0 22 22" fill="none" xmlns="http://www.w3.org/2000/svg">
<path d="M10.9974 11.4358C14.1252 11.4358 16.6701 8.89091 16.6701 5.76306C16.6701 2.6352 14.1252 0.090332 10.9974 0.090332C7.86952 0.090332 5.32465 2.6352 5.32465 5.76306C5.32465 8.89091 7.86952 11.4358 10.9974 11.4358Z" fill="#A0A9B7"/>
<path d="M17.8001 11.2018C17.619 11.0565 17.355 11.0787 17.201 11.2533C15.6239 13.0341 13.3631 14.0556 10.9994 14.0556C8.63558 14.0556 6.37478 13.0341 4.79733 11.2533C4.64329 11.0792 4.37973 11.056 4.1982 11.2018C1.58787 13.2863 0.090271 16.3941 0.090271 19.7283V21.4738C0.090271 21.7151 0.285762 21.9101 0.526635 21.9101H21.4721C21.7134 21.9101 21.9085 21.7151 21.9085 21.4738V19.7283C21.9085 16.3945 20.4109 13.2867 17.8001 11.2018Z" fill="#A0A9B7"/>
</svg>
