<svg width="16" height="16" viewBox="0 0 16 16" fill="none" xmlns="http://www.w3.org/2000/svg">
<path d="M7.99983 8.29361C10.1024 8.29361 11.8131 6.5829 11.8131 4.4803C11.8131 2.3777 10.1024 0.666992 7.99983 0.666992C5.89723 0.666992 4.18652 2.3777 4.18652 4.4803C4.18652 6.5829 5.89723 8.29361 7.99983 8.29361Z" fill="#A0A9B7"/>
<path d="M12.5719 8.13571C12.4501 8.03803 12.2727 8.05299 12.1691 8.17032C11.109 9.36741 9.58926 10.0541 8.00028 10.0541C6.4113 10.0541 4.89155 9.36741 3.83116 8.17032C3.72761 8.05328 3.55044 8.03773 3.42841 8.13571C1.67371 9.53695 0.666992 11.6261 0.666992 13.8674V15.0407C0.666992 15.2029 0.798405 15.3341 0.960324 15.3341H15.0402C15.2024 15.3341 15.3336 15.2029 15.3336 15.0407V13.8674C15.3336 11.6264 14.3269 9.53724 12.5719 8.13571Z" fill="#A0A9B7"/>
</svg>
