<svg width="33" height="24" viewBox="0 0 33 24" fill="none" xmlns="http://www.w3.org/2000/svg">
<mask id="mask0" mask-type="alpha" maskUnits="userSpaceOnUse" x="1" y="0" width="32" height="24">
<rect x="1" width="32" height="24" rx="1" fill="white"/>
</mask>
<g mask="url(#mask0)">
<path d="M32.875 1C32.875 0.447715 32.4273 0 31.875 0H1.875C1.32272 0 0.875 0.447716 0.875 1V23C0.875 23.5523 1.32272 24 1.875 24H31.875C32.4273 24 32.875 23.5523 32.875 23V1Z" fill="#DA251D"/>
<path d="M17.8238 7.85027C17.5202 6.93806 16.2298 6.93807 15.9262 7.85027L13.512 15.1025C13.2068 16.0195 14.2506 16.7931 15.039 16.2343L21.3127 11.7882C22.108 11.2246 21.7092 9.97235 20.7345 9.97235H13.0155C12.0408 9.97235 11.642 11.2246 12.4373 11.7882L18.711 16.2343C19.4994 16.7931 20.5432 16.0195 20.238 15.1025L17.8238 7.85027Z" fill="#FFFF00"/>
</g>
</svg>
