<svg width="16" height="16" viewBox="0 0 16 16" fill="none" xmlns="http://www.w3.org/2000/svg">
<path fill-rule="evenodd" clip-rule="evenodd" d="M13.5003 3.41699V1.58366C13.5003 1.0772 13.0901 0.666992 12.5837 0.666992H11.6665H3.41653C1.89762 0.666992 0.666992 1.89899 0.666992 3.41699V14.417C0.666992 14.9234 1.07674 15.3337 1.5832 15.3337H14.417C14.9234 15.3337 15.3337 14.9234 15.3337 14.417V3.41699H13.5003ZM3.41653 2.50033H11.667V3.41699H2.49987C2.49987 2.91053 2.91008 2.50033 3.41653 2.50033ZM12.5837 9.83366C12.0772 9.83366 11.6665 9.42345 11.6665 8.91699C11.6665 8.41053 12.0772 8.00033 12.5837 8.00033C13.0901 8.00033 13.5003 8.41053 13.5003 8.91699C13.5003 9.42345 13.0901 9.83366 12.5837 9.83366Z" fill="#A0A9B7"/>
</svg>
